<svg width="391" height="430" viewBox="0 0 391 430" fill="none" xmlns="http://www.w3.org/2000/svg">
    <path d="M234.401 296.331L229.506 291.723L234.401 296.331Z" fill="#A8CFF0"/>
    <path d="M167.018 257.31L142.254 271.565C135.342 275.453 123.392 275.021 115.473 270.413L94.7397 258.462C86.8207 253.854 85.9568 246.943 92.868 243.055L117.633 228.8C124.544 224.912 136.494 225.344 144.413 229.952L165.147 241.903C172.922 246.367 173.785 253.278 167.018 257.31Z" fill="#084C94"/>
    <path d="M33.9796 277.18L58.7444 262.925C65.6555 259.038 77.606 259.47 85.525 264.077L106.258 276.029C114.177 280.636 115.041 287.548 108.13 291.435L83.3652 305.69C76.4541 309.578 64.5037 309.146 56.5847 304.539L35.8514 292.587C28.0764 287.98 27.2125 281.068 33.9796 277.18Z" fill="#084C94"/>
    <g filter="url(#filter0_b)">
        <path d="M225.762 291.147L200.998 305.402C194.087 309.29 182.136 308.858 174.217 304.251L153.484 292.299C145.565 287.692 144.701 280.78 151.612 276.893L176.377 262.638C183.288 258.75 195.238 259.182 203.157 263.789L223.891 275.741C231.81 280.204 232.674 287.116 225.762 291.147Z" fill="#0B0D11" fill-opacity="0.1"/>
    </g>
    <g filter="url(#filter1_b)">
        <path d="M92.7238 311.018L117.489 296.763C124.4 292.875 136.35 293.307 144.269 297.915L165.002 309.866C172.921 314.474 173.785 321.385 166.874 325.273L142.109 339.528C135.198 343.416 123.248 342.984 115.329 338.376L94.5955 326.425C86.8206 321.817 85.9567 314.906 92.7238 311.018Z" fill="#0B0D11" fill-opacity="0.1"/>
    </g>
    <path d="M165.003 245.791L144.27 233.84C136.351 229.232 124.4 228.8 117.489 232.688L92.7244 246.943C90.4207 248.239 88.9809 249.966 88.405 251.694C87.3971 248.527 88.8369 245.215 92.7244 242.911L117.489 228.656C124.4 224.768 136.351 225.2 144.27 229.808L165.003 241.759C170.33 244.783 172.346 248.814 171.194 252.414C170.474 250.11 168.459 247.807 165.003 245.791Z" fill="#001A46"/>
    <path d="M112.45 286.54C111.73 284.092 109.571 281.788 106.259 279.772L85.5256 267.821C77.6066 263.213 65.6562 262.782 58.7451 266.669L33.9803 280.924C31.6766 282.22 30.2368 283.948 29.6609 285.676C28.653 282.508 30.0928 279.196 33.9803 276.893L58.7451 262.638C65.6562 258.75 77.6066 259.182 85.5256 263.789L106.259 275.741C111.442 278.908 113.602 282.94 112.45 286.54Z" fill="#001A46"/>
    <g filter="url(#filter2_b)">
        <path d="M223.892 279.628L203.158 267.677C195.239 263.069 183.289 262.637 176.378 266.525L151.613 280.78C149.309 282.076 147.87 283.804 147.294 285.532C146.286 282.364 147.726 279.052 151.613 276.749L176.378 262.494C183.289 258.606 195.239 259.038 203.158 263.645L223.892 275.597C229.219 278.62 231.235 282.652 230.083 286.252C229.363 283.948 227.203 281.644 223.892 279.628Z" fill="#0B0D11" fill-opacity="0.5"/>
    </g>
    <g filter="url(#filter3_b)">
        <path d="M92.7237 311.018L117.488 296.763C124.4 292.875 136.35 293.307 144.269 297.915L165.002 309.866C170.33 312.89 172.345 316.922 171.194 320.521C170.474 318.074 168.314 315.77 165.002 313.754L144.269 301.803C136.35 297.195 124.4 296.763 117.488 300.651L92.7237 314.906C90.42 316.202 88.9802 317.93 88.4042 319.657C87.5404 316.49 88.8362 313.322 92.7237 311.018Z" fill="#0B0D11" fill-opacity="0.5"/>
    </g>
    <path d="M141.823 267.533L166.444 253.278C173.211 249.39 172.347 242.479 164.572 238.015L143.983 226.208C136.064 221.6 124.257 221.168 117.49 225.056L92.8693 239.311C86.1022 243.199 86.9661 250.11 94.7411 254.574L115.33 266.381C123.249 270.989 135.056 271.565 141.823 267.533Z" fill="#72B5E8"/>
    <path d="M94.7399 254.718L115.329 266.525C123.248 271.133 135.055 271.565 141.822 267.677L166.443 253.422C169.322 251.694 170.906 249.534 171.05 247.087V250.542C171.194 253.134 169.754 255.726 166.443 257.598L141.822 271.853C135.055 275.741 123.104 275.309 115.329 270.701L94.7399 258.894C90.7084 256.59 88.5487 253.566 88.2607 250.686C88.2607 250.398 88.2607 250.11 88.2607 249.822V246.223C88.5487 249.246 90.7084 252.27 94.7399 254.718Z" fill="#2672AB"/>
    <path d="M110.002 248.958L122.816 256.302C124.112 257.022 126.272 257.022 127.712 256.302L129.008 255.582L135.775 259.47V251.55L149.453 243.631C150.749 242.911 150.749 241.615 149.453 240.895L136.639 233.552C135.343 232.832 133.183 232.832 131.743 233.552L110.002 246.223C108.706 246.943 108.706 248.239 110.002 248.958ZM132.895 241.615C132.895 240.751 134.047 240.175 135.487 240.175C136.927 240.175 138.079 240.895 138.079 241.615C138.079 242.479 136.927 243.055 135.487 243.055C134.047 243.055 132.895 242.479 132.895 241.615ZM126.992 245.071C126.992 244.207 128.144 243.631 129.584 243.631C131.023 243.631 132.175 244.351 132.175 245.071C132.175 245.935 131.023 246.511 129.584 246.511C128.144 246.511 126.992 245.935 126.992 245.071ZM121.089 248.527C121.089 247.663 122.241 247.087 123.68 247.087C125.12 247.087 126.272 247.807 126.272 248.527C126.272 249.246 125.12 249.966 123.68 249.966C122.241 249.966 121.089 249.246 121.089 248.527Z" fill="white"/>
    <path d="M83.2224 301.371L107.843 287.116C114.61 283.228 113.746 276.317 105.971 271.853L85.3821 260.046C77.4631 255.438 65.6566 255.006 58.8895 258.894L34.2687 273.149C27.5016 277.036 28.3655 283.948 36.1405 288.412L56.7298 300.219C64.5048 304.827 76.4552 305.258 83.2224 301.371Z" fill="#3ECFCD"/>
    <path d="M36.1393 288.412L56.7286 300.219C64.6476 304.827 76.4541 305.259 83.2212 301.371L107.842 287.116C110.722 285.388 112.305 283.228 112.449 280.78V284.236C112.593 286.828 111.154 289.42 107.842 291.291L83.2212 305.546C76.4541 309.434 64.5036 309.002 56.7286 304.395L36.1393 292.587C32.1078 290.284 29.9481 287.26 29.6602 284.38C29.6602 284.092 29.6602 283.804 29.6602 283.516V280.06C29.8041 282.94 32.1078 285.964 36.1393 288.412Z" fill="#0BA19F"/>
    <g filter="url(#filter4_b)">
        <path d="M231.827 258.183L144.843 258.838L145.154 270.917C145.091 271.765 145.664 272.748 146.729 273.446L184.404 294.876C186.887 296.267 191.051 296.021 193.933 294.444L229.905 273.387C231.381 272.528 232.078 271.463 232.211 270.473L231.827 258.183Z" fill="url(#paint0_linear)" fill-opacity="0.6"/>
    </g>
    <path d="M184.162 282.656L146.487 261.225C144.004 259.834 144.336 257.36 147.075 255.713L183.048 234.657C185.788 233.01 190.093 232.833 192.576 234.224L230.252 255.655C232.735 257.046 232.403 259.52 229.663 261.167L193.691 282.223C190.809 283.8 186.645 284.047 184.162 282.656Z" fill="url(#paint1_linear)"/>
    <path d="M189.904 268.718L209.028 257.911C210.013 257.357 210.013 256.387 209.028 255.833L205.513 253.755C203.263 252.508 199.747 252.231 197.076 253.201C195.388 253.755 193.56 254.171 191.591 254.171C191.169 254.171 190.888 254.032 190.607 253.894C190.326 253.755 190.185 253.478 190.185 253.201C190.185 252.231 189.904 251.4 189.341 250.569C189.904 249.876 189.904 249.045 188.919 248.491C188.076 247.936 186.951 247.798 185.966 247.936C181.466 245.72 176.967 245.72 172.889 248.075C168.81 250.43 168.67 252.924 172.748 255.556C172.467 256.11 172.889 256.803 173.732 257.219C174.717 257.773 176.263 257.773 177.388 257.496C178.795 257.773 180.482 257.911 182.17 257.911C182.591 257.911 183.013 258.05 183.295 258.189C183.576 258.327 183.716 258.604 183.716 258.743C183.716 259.851 183.154 260.959 182.029 261.929C180.341 263.453 180.763 265.531 183.013 266.778L186.529 268.856C187.373 269.272 189.06 269.272 189.904 268.718Z" fill="white"/>
    <path d="M145.566 271.853C145.998 271.853 146.286 271.565 146.286 271.133V259.038L189.192 218.577C189.48 218.289 189.48 217.857 189.192 217.569C188.904 217.281 188.472 217.281 188.184 217.569L144.846 258.462V271.133C144.846 271.565 145.278 271.853 145.566 271.853Z" fill="#2672AB"/>
    <path d="M183.289 203.17C183.289 200.002 185.449 196.258 188.184 194.674C189.624 193.81 190.776 193.81 191.784 194.386L193.224 195.25L192.216 196.834C192.216 196.978 192.216 196.978 192.216 197.122C192.216 200.29 190.056 204.034 187.321 205.618C187.177 205.762 187.033 205.761 186.889 205.761L186.169 207.057L185.161 206.481C184.009 206.049 183.289 204.898 183.289 203.17Z" fill="#24272E"/>
    <path d="M184.584 203.89C184.584 207.057 186.744 208.209 189.479 206.625C192.215 205.042 194.375 201.298 194.375 198.13C194.375 194.962 192.215 193.81 189.479 195.394C186.744 196.978 184.584 200.866 184.584 203.89Z" fill="#7F818C"/>
    <path d="M180.266 151.333C180.266 146.87 183.433 141.398 187.321 139.238C189.336 138.086 191.064 137.942 192.36 138.806L194.52 139.958L193.08 142.262C193.08 142.406 193.08 142.55 193.08 142.694C193.08 147.158 189.912 152.629 186.025 154.789C185.881 154.933 185.737 154.933 185.449 155.077L184.297 156.949L182.857 156.085C181.273 155.509 180.266 153.781 180.266 151.333Z" fill="#24272E"/>
    <path d="M182.281 152.485C182.281 156.949 185.449 158.677 189.336 156.517C193.224 154.213 196.391 148.885 196.391 144.422C196.391 139.958 193.224 138.23 189.336 140.39C185.449 142.55 182.281 148.022 182.281 152.485Z" fill="#7F818C"/>
    <path d="M184.728 203.026L182.137 155.365C182.137 155.077 182.137 154.789 182.137 154.501C182.137 149.317 185.736 143.126 190.2 140.534C191.496 139.814 192.791 139.382 194.087 139.382C197.111 139.382 199.127 141.83 199.127 145.574C199.127 145.862 199.127 146.15 199.127 146.438L196.535 197.122C196.535 200.578 194.087 204.754 191.064 206.481C190.2 207.057 189.192 207.345 188.472 207.345C186.168 207.201 184.728 205.618 184.728 203.026ZM190.92 141.83C186.888 144.134 183.577 149.893 183.577 154.501C183.577 154.789 183.577 155.077 183.577 155.365L186.168 203.026C186.168 204.754 187.032 205.905 188.328 205.905C188.904 205.905 189.624 205.762 190.2 205.33C192.791 203.89 194.951 200.146 194.951 197.122L197.543 146.438C197.543 146.15 197.543 145.862 197.543 145.718C197.543 142.838 196.247 140.966 193.943 140.966C193.079 140.822 192.071 141.11 190.92 141.83Z" fill="#2672AB"/>
    <path d="M186.312 221.744C188.759 220.304 190.775 218.001 190.775 215.121C190.775 211.377 187.032 212.817 187.032 210.945V206.913L189.767 205.33V209.649C192.071 209.217 193.799 210.945 193.367 214.257C193.079 217.281 191.063 220.88 188.471 222.608C186.6 223.904 184.872 224.048 183.72 223.328C183.432 223.184 183.864 222.32 184.152 222.32C185.016 222.32 185.592 222.176 186.312 221.744Z" fill="#001A46"/>
    <path d="M187.032 222.032C189.48 220.592 191.496 218.289 191.496 215.409C191.496 211.665 187.752 213.105 187.752 211.233V207.345L190.488 205.761V210.081C192.792 209.649 194.519 211.377 194.087 214.689C193.799 217.713 191.784 221.312 189.192 223.04C187.32 224.336 185.593 224.48 184.441 223.76C184.153 223.616 184.585 222.752 184.873 222.752C185.736 222.608 186.312 222.464 187.032 222.032Z" fill="#03336E"/>
    <path d="M183.865 153.205C183.865 148.741 187.033 143.27 190.92 141.11C192.936 139.958 194.664 139.814 195.96 140.678L198.119 141.83L196.68 144.134C196.68 144.278 196.68 144.422 196.68 144.566C196.68 149.029 193.512 154.501 189.624 156.661C189.481 156.805 189.337 156.805 189.049 156.949L187.897 158.821L186.457 157.957C184.873 157.381 183.865 155.797 183.865 153.205Z" fill="#24272E"/>
    <path d="M197.802 153.228C200.571 148.491 200.59 143.349 197.844 141.744C195.098 140.139 190.627 142.677 187.858 147.414C185.089 152.151 185.07 157.293 187.816 158.898C190.562 160.504 195.033 157.965 197.802 153.228Z" fill="#7F818C"/>
    <path d="M188.904 152.485C188.904 154.933 190.632 155.941 192.792 154.645C194.952 153.349 196.679 150.325 196.679 147.878C196.679 145.43 194.952 144.422 192.792 145.718C190.632 147.014 188.904 150.037 188.904 152.485Z" fill="#03336E"/>
    <path d="M185.736 204.466C185.736 201.298 187.896 197.554 190.632 195.97C192.071 195.106 193.223 195.106 194.231 195.682L195.671 196.546L194.663 198.13C194.663 198.274 194.663 198.274 194.663 198.418C194.663 201.586 192.503 205.33 189.768 206.913C189.624 207.057 189.48 207.057 189.336 207.057L188.616 208.353L187.608 207.777C186.456 207.345 185.736 206.193 185.736 204.466Z" fill="#24272E"/>
    <path d="M187.032 205.186C187.032 208.353 189.192 209.505 191.928 207.921C194.663 206.337 196.823 202.594 196.823 199.426C196.823 196.258 194.663 195.106 191.928 196.69C189.336 198.418 187.032 202.162 187.032 205.186Z" fill="#7F818C"/>
    <path d="M189.191 204.034C189.191 205.762 190.343 206.481 191.927 205.618C193.367 204.754 194.663 202.594 194.663 200.866C194.663 199.138 193.511 198.418 191.927 199.282C190.487 200.146 189.191 202.306 189.191 204.034Z" fill="#03336E"/>
    <path d="M188.616 295.035C189.048 295.035 189.336 294.747 189.336 294.315V218.145C189.336 217.713 189.048 217.425 188.616 217.425C188.184 217.425 187.896 217.713 187.896 218.145V294.315C187.896 294.603 188.328 295.035 188.616 295.035Z" fill="#2672AB"/>
    <path d="M231.667 271.853C232.098 271.853 232.386 271.565 232.386 271.133V258.462L232.098 258.318L189.048 217.713C188.76 217.425 188.328 217.425 188.04 217.713C187.752 218.001 187.752 218.433 188.04 218.721L230.947 259.182V271.277C230.947 271.565 231.235 271.853 231.667 271.853Z" fill="#2672AB"/>
    <path d="M372.48 81.0663L342.244 63.4995V57.7399L372.48 75.1627V81.0663Z" fill="#2672AB"/>
    <path d="M390.334 70.555L372.48 81.0663V75.1627L390.334 64.6514V70.555Z" fill="#3F92D1"/>
    <path d="M390.334 64.6514L372.48 75.1627L342.244 57.7399L360.098 47.2287L390.334 64.6514Z" fill="#24272E"/>
    <path d="M372.48 73.5788L342.244 56.1561V50.2525L372.48 67.6752V73.5788Z" fill="#2672AB"/>
    <path d="M390.334 63.0676L372.48 73.5788V67.6753L390.334 57.164V63.0676Z" fill="#3F92D1"/>
    <path d="M390.334 57.164L372.48 67.6752L342.244 50.2525L360.098 39.7412L390.334 57.164Z" fill="#24272E"/>
    <path d="M372.48 66.3793L342.244 48.8125V43.0529L372.48 60.4757V66.3793Z" fill="#2672AB"/>
    <path d="M390.334 55.8681L372.48 66.3793V60.4757L390.334 49.9645V55.8681Z" fill="#3F92D1"/>
    <path d="M390.334 49.9645L372.48 60.4757L342.244 43.0529L360.098 32.5417L390.334 49.9645Z" fill="#24272E"/>
    <path d="M372.48 58.7479L342.244 41.3251V35.4215L372.48 52.8443V58.7479Z" fill="#2672AB"/>
    <path d="M390.334 48.2366L372.48 58.7478V52.8443L390.334 42.333V48.2366Z" fill="#3F92D1"/>
    <path d="M390.334 42.333L372.48 52.8443L342.244 35.4215L360.098 24.9102L390.334 42.333Z" fill="#24272E"/>
    <path d="M376.224 265.661L326.838 294.459L276.732 265.661L326.262 236.863L376.224 265.661Z" fill="url(#paint2_linear)"/>
    <path d="M326.694 284.092L296.458 266.669V260.766L326.694 278.188V284.092Z" fill="url(#paint3_linear)"/>
    <path d="M356.641 266.669L326.693 284.092V278.188L356.641 260.766V266.669Z" fill="url(#paint4_linear)"/>
    <path d="M356.642 260.766L326.694 278.188L296.458 260.766L326.262 243.343L356.642 260.766Z" fill="url(#paint5_linear)"/>
    <path d="M308.264 96.9052V100.361L305.24 98.6331V95.0333L308.264 96.9052Z" fill="#24272E"/>
    <path d="M308.264 96.9052V100.361L326.837 89.7057V86.2499L308.264 96.9052Z" fill="#7F818C"/>
    <path d="M326.837 86.2499L308.264 96.9052L305.24 95.0333L323.67 84.3781L326.837 86.2499Z" fill="#0B0D11"/>
    <path d="M308.264 125.415V129.015L305.24 127.143V123.687L308.264 125.415Z" fill="#24272E"/>
    <path d="M308.264 153.925V157.381L305.24 155.653V152.053L308.264 153.925Z" fill="#24272E"/>
    <path d="M308.264 182.291V185.747L305.24 184.019V180.419L308.264 182.291Z" fill="#24272E"/>
    <path d="M308.264 210.801V214.257L305.24 212.529V208.929L308.264 210.801Z" fill="#24272E"/>
    <path d="M308.264 239.167V242.767L305.24 241.039V237.439L308.264 239.167Z" fill="#24272E"/>
    <path d="M345.123 68.5392V72.1389L348.291 70.267V66.8113L345.123 68.5392Z" fill="#24272E"/>
    <path d="M345.267 68.5392V72.1389L326.693 61.3397V57.8839L345.267 68.5392Z" fill="#24272E"/>
    <path d="M326.693 57.8839L345.267 68.5392L348.291 66.8113L329.717 56.0121L326.693 57.8839Z" fill="#0B0D11"/>
    <path d="M308.264 68.5392V72.1389L305.24 70.267V66.8113L308.264 68.5392Z" fill="#24272E"/>
    <path d="M308.264 68.5392V72.1389L326.837 61.3397V57.8839L308.264 68.5392Z" fill="#7F818C"/>
    <path d="M326.837 57.8839L308.264 68.5392L305.24 66.8113L323.67 56.0121L326.837 57.8839Z" fill="#0B0D11"/>
    <g filter="url(#filter5_b)">
        <path fill-rule="evenodd" clip-rule="evenodd" d="M305.097 262.782V31.6778L308.264 29.8059V125.415L326.838 114.76V118.216L308.264 129.015V153.925L326.838 143.126V146.726L308.264 157.381V182.291L326.838 171.492V175.092L308.264 185.747V210.801L326.838 200.146V203.602L308.264 214.257V239.167L326.838 228.512V232.112L308.264 242.767V260.91L305.097 262.782Z" fill="url(#paint6_linear)"/>
        <path d="M308.264 29.8059L305.097 31.6778L302.073 29.8059L305.097 28.078L308.264 29.8059Z" fill="url(#paint7_linear)"/>
    </g>
    <path d="M323.67 81.2103V84.666L326.838 82.9382V79.3384L323.67 81.2103Z" fill="#24272E"/>
    <path d="M323.67 81.2103V84.6661L305.24 74.0108V70.4111L323.67 81.2103Z" fill="#24272E"/>
    <path d="M305.24 70.411L323.67 81.2103L326.837 79.3384L308.264 68.6832L305.24 70.411Z" fill="#0B0D11"/>
    <path d="M381.406 34.1256V37.5813L384.574 35.8535V32.2537L381.406 34.1256Z" fill="#24272E"/>
    <path d="M381.407 34.1256V37.5813L371.328 31.5338V28.078L381.407 34.1256Z" fill="#24272E"/>
    <path d="M371.328 28.078L381.407 34.1256L384.574 32.2537L374.352 26.2061L371.328 28.078Z" fill="#0B0D11"/>
    <path d="M371.328 16.2709V28.078L368.305 26.2062V14.399L371.328 16.2709Z" fill="#24272E"/>
    <path d="M371.328 16.2709V28.078L374.352 26.2062V14.399L371.328 16.2709Z" fill="#7F818C"/>
    <path d="M374.352 14.399L371.328 16.2709L368.305 14.399L371.328 12.6711L374.352 14.399Z" fill="#0B0D11"/>
    <path d="M169.178 145.286V148.742L166.154 147.014V143.414L169.178 145.286Z" fill="#24272E"/>
    <path d="M169.178 145.286V148.742L374.639 29.5179V26.0622L169.178 145.286Z" fill="#7F818C"/>
    <path d="M374.639 26.0622L169.178 145.286L166.154 143.414L371.616 24.1903L374.639 26.0622Z" fill="#0B0D11"/>
    <path d="M345.842 54.5721V58.1719L348.865 56.3V52.8443L345.842 54.5721Z" fill="#24272E"/>
    <path d="M345.842 54.5721V58.1719L335.764 52.1243V48.5246L345.842 54.5721Z" fill="#24272E"/>
    <path d="M335.764 48.5246L345.842 54.5721L348.866 52.8443L338.787 46.7967L335.764 48.5246Z" fill="#0B0D11"/>
    <path d="M335.764 36.8614V48.6686L332.597 46.7967V34.9895L335.764 36.8614Z" fill="#24272E"/>
    <path d="M335.764 36.8614V48.6686L338.787 46.7967V34.9895L335.764 36.8614Z" fill="#7F818C"/>
    <path d="M338.788 34.9895L335.764 36.8614L332.597 34.9895L335.764 33.2617L338.788 34.9895Z" fill="#0B0D11"/>
    <path d="M363.553 44.4929V47.9486L366.72 46.2207V42.621L363.553 44.4929Z" fill="#24272E"/>
    <path d="M363.553 44.4929V47.9486L353.475 41.901V38.3013L363.553 44.4929Z" fill="#24272E"/>
    <path d="M353.475 38.3013L363.553 44.4929L366.721 42.621L356.498 36.5734L353.475 38.3013Z" fill="#0B0D11"/>
    <path d="M353.474 26.4941V38.3013L350.45 36.5734V24.7662L353.474 26.4941Z" fill="#24272E"/>
    <path d="M353.474 26.4941V38.3013L356.497 36.5734V24.7662L353.474 26.4941Z" fill="#7F818C"/>
    <path d="M356.497 24.7662L353.474 26.4941L350.45 24.7662L353.474 23.0384L356.497 24.7662Z" fill="#0B0D11"/>
    <path d="M221.443 126.855V130.311L224.467 128.583V124.983L221.443 126.855Z" fill="#24272E"/>
    <path d="M221.443 126.855V130.311L211.364 124.263V120.807L221.443 126.855Z" fill="#24272E"/>
    <path d="M211.364 120.807L221.443 126.855L224.467 124.983L214.388 118.936L211.364 120.807Z" fill="#0B0D11"/>
    <path d="M211.365 109V120.807L208.197 119.08V107.272L211.365 109Z" fill="#24272E"/>
    <path d="M211.365 109V120.807L214.389 119.08V107.272L211.365 109Z" fill="#7F818C"/>
    <path d="M214.388 107.272L211.365 109L208.197 107.272L211.365 105.545L214.388 107.272Z" fill="#0B0D11"/>
    <path d="M239.152 116.632V120.232L242.32 118.36V114.904L239.152 116.632Z" fill="#24272E"/>
    <path d="M239.153 116.632V120.232L229.074 114.184V110.584L239.153 116.632Z" fill="#24272E"/>
    <path d="M229.074 110.584L239.153 116.632L242.321 114.904L232.098 108.856L229.074 110.584Z" fill="#0B0D11"/>
    <path d="M229.074 98.921V110.728L226.051 108.856V97.0492L229.074 98.921Z" fill="#24272E"/>
    <path d="M229.074 98.921V110.728L232.098 108.856V97.0492L229.074 98.921Z" fill="#7F818C"/>
    <path d="M232.098 97.0492L229.074 98.921L226.051 97.0492L229.074 95.3213L232.098 97.0492Z" fill="#0B0D11"/>
    <path d="M257.006 106.265V109.864L260.173 108.136V104.537L257.006 106.265Z" fill="#24272E"/>
    <path d="M257.006 106.265V109.864L246.928 103.817V100.217L257.006 106.265Z" fill="#24272E"/>
    <path d="M246.929 100.217L257.007 106.265L260.175 104.537L249.952 98.4891L246.929 100.217Z" fill="#0B0D11"/>
    <path d="M246.928 88.5537V100.361L243.904 98.633V86.8259L246.928 88.5537Z" fill="#24272E"/>
    <path d="M246.928 88.5537V100.361L249.951 98.633V86.8259L246.928 88.5537Z" fill="#7F818C"/>
    <path d="M249.952 86.8259L246.928 88.5538L243.904 86.8259L246.928 84.954L249.952 86.8259Z" fill="#0B0D11"/>
    <path d="M274.717 95.8972V99.497L277.884 97.6251V94.1693L274.717 95.8972Z" fill="#24272E"/>
    <path d="M274.716 95.8972V99.497L264.638 93.3054V89.8496L274.716 95.8972Z" fill="#24272E"/>
    <path d="M264.639 89.8497L274.717 95.8972L277.885 94.1694L267.806 87.9778L264.639 89.8497Z" fill="#0B0D11"/>
    <path d="M264.637 78.1865V89.9936L261.613 88.1218V76.3146L264.637 78.1865Z" fill="#24272E"/>
    <path d="M264.637 78.1865V89.9936L267.804 88.1218V76.3146L264.637 78.1865Z" fill="#7F818C"/>
    <path d="M267.804 76.3146L264.637 78.1865L261.613 76.3146L264.637 74.5867L267.804 76.3146Z" fill="#0B0D11"/>
    <path d="M292.57 85.53V89.1297L295.738 87.2578V83.8021L292.57 85.53Z" fill="#24272E"/>
    <path d="M292.57 85.53V89.1297L282.491 83.0821V79.4824L292.57 85.53Z" fill="#24272E"/>
    <path d="M282.491 79.4824L292.57 85.53L295.737 83.8021L285.659 77.7545L282.491 79.4824Z" fill="#0B0D11"/>
    <path d="M282.491 67.8192V79.6264L279.468 77.8985V66.0914L282.491 67.8192Z" fill="#24272E"/>
    <path d="M282.491 67.8192V79.6264L285.659 77.8985V66.0914L282.491 67.8192Z" fill="#7F818C"/>
    <path d="M285.659 66.0914L282.491 67.8192L279.468 66.0914L282.491 64.2195L285.659 66.0914Z" fill="#0B0D11"/>
    <path d="M310.279 75.4507V78.9064L313.447 77.1786V73.5788L310.279 75.4507Z" fill="#24272E"/>
    <path d="M310.424 75.4507V78.9064L300.201 72.8589V69.4031L310.424 75.4507Z" fill="#24272E"/>
    <path d="M300.201 69.4031L310.424 75.4507L313.447 73.5788L303.369 67.5312L300.201 69.4031Z" fill="#0B0D11"/>
    <path d="M300.201 57.5959V69.4031L297.178 67.6752V55.868L300.201 57.5959Z" fill="#24272E"/>
    <path d="M300.201 57.5959V69.4031L303.369 67.6752V55.868L300.201 57.5959Z" fill="#7F818C"/>
    <path d="M303.369 55.868L300.201 57.5959L297.178 55.868L300.201 54.1402L303.369 55.868Z" fill="#0B0D11"/>
    <path d="M328.133 65.0834V68.6832L331.3 66.8113V63.3555L328.133 65.0834Z" fill="#24272E"/>
    <path d="M328.133 65.0834V68.6832L318.055 62.4916V59.0358L328.133 65.0834Z" fill="#24272E"/>
    <path d="M318.055 59.0358L328.133 65.0834L331.301 63.3555L321.222 57.164L318.055 59.0358Z" fill="#0B0D11"/>
    <path d="M318.055 47.3727V59.1798L315.031 57.308V45.5008L318.055 47.3727Z" fill="#24272E"/>
    <path d="M318.055 47.3727V59.1798L321.222 57.308V45.5008L318.055 47.3727Z" fill="#7F818C"/>
    <path d="M321.222 45.5008L318.055 47.3727L315.031 45.5008L318.055 43.7729L321.222 45.5008Z" fill="#0B0D11"/>
    <path d="M203.59 137.078V140.678L206.613 138.95V135.35L203.59 137.078Z" fill="#24272E"/>
    <path d="M203.589 137.078V140.678L193.511 134.631V131.031L203.589 137.078Z" fill="#24272E"/>
    <path d="M193.511 131.031L203.589 137.078L206.613 135.35L196.534 129.303L193.511 131.031Z" fill="#0B0D11"/>
    <path d="M182.281 152.917V156.517L179.113 154.789V151.189L182.281 152.917Z" fill="#24272E"/>
    <path d="M182.137 152.917V156.517L387.454 37.5813V33.9816L182.137 152.917Z" fill="#7F818C"/>
    <path d="M387.454 33.9816L182.137 152.917L179.113 151.189L384.431 32.2537L387.454 33.9816Z" fill="#0B0D11"/>
    <path d="M193.511 119.368V131.175L190.487 129.447V117.64L193.511 119.368Z" fill="#24272E"/>
    <path d="M193.511 119.368V131.175L196.534 129.447V117.64L193.511 119.368Z" fill="#7F818C"/>
    <path d="M196.535 117.64L193.511 119.368L190.487 117.64L193.511 115.768L196.535 117.64Z" fill="#0B0D11"/>
    <path d="M183.145 121.815V125.415L180.121 123.543V120.088L183.145 121.815Z" fill="#24272E"/>
    <path d="M183.145 121.815V125.415L374.496 14.255V10.7992L183.145 121.815Z" fill="#7F818C"/>
    <path d="M374.496 10.7992L183.145 121.815L180.121 120.088L371.472 8.92737L374.496 10.7992Z" fill="#0B0D11"/>
    <path d="M179.256 151.189V154.789L182.423 152.917V149.461L179.256 151.189Z" fill="#24272E"/>
    <path d="M179.256 151.189V154.789L169.178 148.741V145.142L179.256 151.189Z" fill="#24272E"/>
    <path d="M169.178 145.142L179.256 151.189L182.424 149.461L172.201 143.414L169.178 145.142Z" fill="#0B0D11"/>
    <path d="M183.288 121.815L169.178 145.286L166.154 143.414L180.12 120.088L183.288 121.815Z" fill="#24272E"/>
    <path d="M183.288 121.815L169.178 145.286L172.201 143.414L186.311 120.088L183.288 121.815Z" fill="#7F818C"/>
    <path d="M366.371 37.1883L191.717 138.682L192.44 139.927L367.094 38.4332L366.371 37.1883Z" fill="#2672AB"/>
    <path d="M206.613 127.143V138.95L203.445 137.078V125.271L206.613 127.143Z" fill="#24272E"/>
    <path d="M206.613 127.143V138.95L209.637 137.078V125.271L206.613 127.143Z" fill="#7F818C"/>
    <path d="M209.637 125.271L206.613 127.143L203.445 125.271L206.613 123.543L209.637 125.271Z" fill="#0B0D11"/>
    <path d="M203.59 121.959V125.415L206.613 123.687V120.088L203.59 121.959Z" fill="#24272E"/>
    <path d="M203.589 121.959V125.415L193.511 119.368V115.768L203.589 121.959Z" fill="#24272E"/>
    <path d="M193.511 115.768L203.589 121.959L206.613 120.088L196.534 114.04L193.511 115.768Z" fill="#0B0D11"/>
    <path d="M224.466 116.776V128.583L221.299 126.855V114.904L224.466 116.776Z" fill="#24272E"/>
    <path d="M224.467 116.776V128.583L227.49 126.855V115.048L224.467 116.776Z" fill="#7F818C"/>
    <path d="M227.49 115.048L224.466 116.776L221.299 114.904L224.466 113.176L227.49 115.048Z" fill="#0B0D11"/>
    <path d="M221.443 111.592V115.048L224.467 113.32V109.72L221.443 111.592Z" fill="#24272E"/>
    <path d="M221.443 111.592V115.048L211.364 109V105.545L221.443 111.592Z" fill="#24272E"/>
    <path d="M211.364 105.545L221.443 111.592L224.467 109.72L214.388 103.673L211.364 105.545Z" fill="#0B0D11"/>
    <path d="M242.176 106.553V118.36L239.009 116.632V104.825L242.176 106.553Z" fill="#24272E"/>
    <path d="M242.176 106.553V118.36L245.199 116.632V104.825L242.176 106.553Z" fill="#7F818C"/>
    <path d="M245.2 104.825L242.176 106.553L239.009 104.825L242.176 103.097L245.2 104.825Z" fill="#0B0D11"/>
    <path d="M239.152 101.369V104.969L242.32 103.241V99.641L239.152 101.369Z" fill="#24272E"/>
    <path d="M239.153 101.369V104.969L229.074 98.921V95.3213L239.153 101.369Z" fill="#24272E"/>
    <path d="M229.074 95.3213L239.153 101.369L242.321 99.641L232.098 93.5934L229.074 95.3213Z" fill="#0B0D11"/>
    <path d="M260.03 96.3292V108.136L256.862 106.265V94.4573L260.03 96.3292Z" fill="#24272E"/>
    <path d="M260.029 96.3292V108.136L263.053 106.265V94.4573L260.029 96.3292Z" fill="#7F818C"/>
    <path d="M263.053 94.4573L260.03 96.3292L256.862 94.4573L260.03 92.7295L263.053 94.4573Z" fill="#0B0D11"/>
    <path d="M257.006 91.1456V94.6013L260.173 92.8735V89.2737L257.006 91.1456Z" fill="#24272E"/>
    <path d="M257.006 91.1456V94.6013L246.928 88.5538V85.098L257.006 91.1456Z" fill="#24272E"/>
    <path d="M246.929 85.098L257.007 91.1456L260.175 89.2737L249.952 83.2261L246.929 85.098Z" fill="#0B0D11"/>
    <path d="M277.74 85.818V97.6251L274.717 95.8973V84.0901L277.74 85.818Z" fill="#24272E"/>
    <path d="M277.74 85.818V97.6251L280.764 95.8973V84.0901L277.74 85.818Z" fill="#7F818C"/>
    <path d="M280.765 84.0901L277.741 85.8179L274.718 84.0901L277.741 82.2182L280.765 84.0901Z" fill="#0B0D11"/>
    <path d="M274.717 80.6343V84.2341L277.884 82.3622V78.9064L274.717 80.6343Z" fill="#24272E"/>
    <path d="M274.716 80.6343V84.2341L264.638 78.1865V74.5867L274.716 80.6343Z" fill="#24272E"/>
    <path d="M264.639 74.5867L274.717 80.6343L277.885 78.9064L267.806 72.8589L264.639 74.5867Z" fill="#0B0D11"/>
    <path d="M295.593 75.4507V87.2579L292.426 85.53V73.7228L295.593 75.4507Z" fill="#24272E"/>
    <path d="M295.594 75.4507V87.2579L298.617 85.53V73.7228L295.594 75.4507Z" fill="#7F818C"/>
    <path d="M298.617 73.7228L295.593 75.4507L292.426 73.7228L295.593 71.9949L298.617 73.7228Z" fill="#0B0D11"/>
    <path d="M292.57 70.2671V73.8668L295.738 72.1389V68.5392L292.57 70.2671Z" fill="#24272E"/>
    <path d="M292.57 70.2671V73.8668L282.491 67.8192V64.2195L292.57 70.2671Z" fill="#24272E"/>
    <path d="M282.491 64.2195L292.57 70.2671L295.737 68.5392L285.659 62.4916L282.491 64.2195Z" fill="#0B0D11"/>
    <path d="M313.303 65.3714V77.1786L310.279 75.4507V63.4995L313.303 65.3714Z" fill="#24272E"/>
    <path d="M313.303 65.3714V77.1786L316.326 75.4507V63.6435L313.303 65.3714Z" fill="#7F818C"/>
    <path d="M316.327 63.6435L313.303 65.3714L310.279 63.4995L313.303 61.7717L316.327 63.6435Z" fill="#0B0D11"/>
    <path d="M310.279 60.1878V63.6435L313.447 61.9156V58.3159L310.279 60.1878Z" fill="#24272E"/>
    <path d="M310.424 60.1877V63.6435L300.201 57.5959V54.1402L310.424 60.1877Z" fill="#24272E"/>
    <path d="M300.201 54.1402L310.424 60.1878L313.447 58.3159L303.369 52.2683L300.201 54.1402Z" fill="#0B0D11"/>
    <path d="M331.156 55.0041V66.8113L328.133 65.0834V53.2762L331.156 55.0041Z" fill="#24272E"/>
    <path d="M331.156 55.0041V66.8113L334.18 65.0834V53.2762L331.156 55.0041Z" fill="#7F818C"/>
    <path d="M334.181 53.2763L331.157 55.0041L328.134 53.2763L331.157 51.4044L334.181 53.2763Z" fill="#0B0D11"/>
    <path d="M328.133 49.8205V53.4202L331.3 51.5484V48.0926L328.133 49.8205Z" fill="#24272E"/>
    <path d="M328.133 49.8205V53.4202L318.055 47.3727V43.7729L328.133 49.8205Z" fill="#24272E"/>
    <path d="M318.055 43.7729L328.133 49.8205L331.301 48.0926L321.222 42.045L318.055 43.7729Z" fill="#0B0D11"/>
    <path d="M348.867 44.4929V56.3L345.699 54.5722V42.765L348.867 44.4929Z" fill="#24272E"/>
    <path d="M348.867 44.4929V56.3L351.891 54.5722V42.765L348.867 44.4929Z" fill="#7F818C"/>
    <path d="M351.89 42.765L348.867 44.4929L345.699 42.765L348.867 41.0371L351.89 42.765Z" fill="#0B0D11"/>
    <path d="M345.842 39.3092V42.909L348.865 41.1811V37.5814L345.842 39.3092Z" fill="#24272E"/>
    <path d="M345.842 39.3092V42.909L335.764 36.8614V33.2617L345.842 39.3092Z" fill="#24272E"/>
    <path d="M335.764 33.2617L345.842 39.3092L348.866 37.5814L338.787 31.5338L335.764 33.2617Z" fill="#0B0D11"/>
    <path d="M366.576 34.2696V46.0767L363.408 44.2049V32.3977L366.576 34.2696Z" fill="#24272E"/>
    <path d="M366.576 34.2696V46.0767L369.6 44.2049V32.3977L366.576 34.2696Z" fill="#7F818C"/>
    <path d="M369.599 32.3977L366.576 34.2696L363.408 32.3977L366.576 30.6698L369.599 32.3977Z" fill="#0B0D11"/>
    <path d="M363.553 29.2299V32.6857L366.72 30.9578V27.3581L363.553 29.2299Z" fill="#24272E"/>
    <path d="M363.553 29.2299V32.6857L353.475 26.6381V23.1823L363.553 29.2299Z" fill="#24272E"/>
    <path d="M353.475 23.1824L363.553 29.2299L366.721 27.3581L356.498 21.3105L353.475 23.1824Z" fill="#0B0D11"/>
    <path d="M384.429 23.9023V35.7095L381.262 33.9816V22.1744L384.429 23.9023Z" fill="#24272E"/>
    <path d="M384.43 23.9023V35.7095L387.453 33.9816V22.1744L384.43 23.9023Z" fill="#7F818C"/>
    <path d="M387.453 22.1744L384.429 23.9023L381.262 22.1744L384.429 20.3026L387.453 22.1744Z" fill="#0B0D11"/>
    <path d="M381.406 18.5747V22.1744L384.574 20.3026V16.8468L381.406 18.5747Z" fill="#24272E"/>
    <path d="M381.407 18.5747V22.1744L371.328 16.1268V12.5271L381.407 18.5747Z" fill="#24272E"/>
    <path d="M371.328 12.5271L381.407 18.5747L384.574 16.8468L374.352 10.7992L371.328 12.5271Z" fill="#0B0D11"/>
    <path d="M196.247 129.591V133.191L193.079 131.319V127.863L196.247 129.591Z" fill="#24272E"/>
    <path d="M196.246 129.591V133.191L387.453 22.0304V18.4307L196.246 129.591Z" fill="#7F818C"/>
    <path d="M387.454 18.4307L196.247 129.591L193.079 127.863L384.43 16.7028L387.454 18.4307Z" fill="#0B0D11"/>
    <path d="M196.247 129.591L182.136 153.061L178.969 151.333L193.079 127.863L196.247 129.591Z" fill="#24272E"/>
    <path d="M196.247 129.591L182.137 153.061L185.16 151.333L199.27 127.863L196.247 129.591Z" fill="#7F818C"/>
    <path d="M345.123 96.9052V100.361L348.291 98.6331V95.0333L345.123 96.9052Z" fill="#24272E"/>
    <path d="M345.267 96.9052V100.361L326.693 89.7057V86.2499L345.267 96.9052Z" fill="#24272E"/>
    <path d="M326.693 86.2499L345.267 96.9052L348.291 95.0333L329.717 84.3781L326.693 86.2499Z" fill="#0B0D11"/>
    <path d="M345.123 125.415V129.015L348.291 127.143V123.687L345.123 125.415Z" fill="#24272E"/>
    <path d="M345.123 153.925V157.381L348.291 155.653V152.053L345.123 153.925Z" fill="#24272E"/>
    <path d="M345.123 182.291V185.747L348.291 184.019V180.419L345.123 182.291Z" fill="#24272E"/>
    <path d="M345.123 210.801V214.257L348.291 212.529V208.929L345.123 210.801Z" fill="#24272E"/>
    <path d="M345.123 239.167V242.767L348.291 241.039V237.439L345.123 239.167Z" fill="#24272E"/>
    <path fill-rule="evenodd" clip-rule="evenodd" d="M345.267 125.415V129.015L326.693 118.216V114.76L345.267 125.415ZM345.267 153.925V157.381L326.693 146.726V143.126L345.267 153.925ZM345.267 185.747V182.291L326.693 171.492V175.092L345.267 185.747ZM345.267 210.801V214.257L326.693 203.602V200.146L345.267 210.801ZM345.267 242.767V239.167L326.693 228.512V232.112L345.267 242.767Z" fill="#0B0D11" fill-opacity="0.3"/>
    <g filter="url(#filter6_b)">
        <path fill-rule="evenodd" clip-rule="evenodd" d="M326.764 114.716L329.717 112.888L348.291 123.687L345.267 125.415L326.766 114.801L308.265 125.415L305.241 123.687L323.671 112.888L326.764 114.716ZM308.265 153.925L326.766 143.168L345.267 153.925L348.291 152.053L329.717 141.398L326.764 143.086L323.671 141.398L305.241 152.053L308.265 153.925ZM326.766 171.534L308.265 182.291L305.241 180.419L323.671 169.764L326.764 171.452L329.717 169.764L348.291 180.419L345.267 182.291L326.766 171.534ZM308.265 210.801L326.766 200.187L345.267 210.801L348.291 208.929L329.717 198.274L326.764 200.102L323.671 198.274L305.241 208.929L308.265 210.801ZM326.766 228.553L308.265 239.167L305.241 237.439L323.671 226.784L326.764 228.472L329.717 226.784L348.291 237.439L345.267 239.167L326.766 228.553Z" fill="#0B0D11" fill-opacity="0.4"/>
    </g>
    <g filter="url(#filter7_b)">
        <path d="M348.292 19.5826V262.781L345.124 261.054V17.7108L348.292 19.5826Z" fill="url(#paint8_linear)"/>
    </g>
    <path d="M351.316 17.7108L348.293 19.5826L345.125 17.7108L348.293 15.9829L351.316 17.7108Z" fill="#0B0D11"/>
    <path d="M329.717 251.838V255.438L326.693 253.566V250.11L329.717 251.838Z" fill="#24272E"/>
    <path d="M329.717 248.239V251.838L326.693 249.966V246.511L329.717 248.239Z" fill="#24272E"/>
    <path d="M329.717 223.472V226.928L326.693 225.2V221.6L329.717 223.472Z" fill="#24272E"/>
    <path d="M323.67 251.838V255.438L326.838 253.566V250.11L323.67 251.838Z" fill="#24272E"/>
    <path d="M323.67 251.838V255.438L326.838 253.566V250.11L323.67 251.838Z" fill="#24272E"/>
    <path d="M323.67 223.472V226.928L326.838 225.2V221.6L323.67 223.472Z" fill="#24272E"/>
    <path d="M323.67 220.017V223.616L326.838 221.744V218.289L323.67 220.017Z" fill="#24272E"/>
    <path d="M323.67 194.818V198.418L326.838 196.69V193.09L323.67 194.818Z" fill="#24272E"/>
    <path d="M329.717 109.576V113.032L326.693 111.304V107.704L329.717 109.576Z" fill="#24272E"/>
    <path d="M329.717 109.576V113.032L348.29 102.377V98.777L329.717 109.576Z" fill="#7F818C"/>
    <path d="M348.291 98.777L329.717 109.576L326.693 107.704L345.267 97.0492L348.291 98.777Z" fill="#0B0D11"/>
    <path d="M323.67 109.576V113.032L326.838 111.304V107.704L323.67 109.576Z" fill="#24272E"/>
    <path d="M323.67 109.576V113.032L305.24 102.377V98.777L323.67 109.576Z" fill="#24272E"/>
    <path d="M305.24 98.777L323.67 109.576L326.837 107.704L308.264 97.0492L305.24 98.777Z" fill="#0B0D11"/>
    <path d="M329.717 81.2103V84.666L326.693 82.9382V79.3384L329.717 81.2103Z" fill="#24272E"/>
    <path d="M329.717 81.2103V84.6661L348.29 74.0108V70.4111L329.717 81.2103Z" fill="#7F818C"/>
    <path d="M348.291 70.411L329.717 81.2103L326.693 79.3384L345.267 68.6832L348.291 70.411Z" fill="#0B0D11"/>
    <path d="M319.207 8.20743V11.8072L316.039 9.93531V6.47955L319.207 8.20743Z" fill="#24272E"/>
    <path d="M319.062 8.20742V11.8072L329.861 5.32762V1.72787L319.062 8.20742Z" fill="#7F818C"/>
    <path d="M329.861 1.72788L319.063 8.20742L316.039 6.47954L326.838 0L329.861 1.72788Z" fill="#0B0D11"/>
    <path d="M319.207 8.20743L305.097 31.5338L308.264 29.8059L322.23 6.47955L319.207 8.20743Z" fill="#7F818C"/>
    <path d="M345.123 14.399V17.9987L348.291 16.1268V12.6711L345.123 14.399Z" fill="#24272E"/>
    <path d="M345.267 14.399V17.9987L326.693 7.19947V3.74371L345.267 14.399Z" fill="#24272E"/>
    <path d="M326.693 3.74372L345.267 14.399L348.291 12.6711L329.717 1.87186L326.693 3.74372Z" fill="#0B0D11"/>
    <path d="M323.814 42.333V45.7888L326.838 44.0609V40.4612L323.814 42.333Z" fill="#24272E"/>
    <path d="M323.67 191.363V194.962L326.838 193.09V189.635L323.67 191.363Z" fill="#24272E"/>
    <path d="M323.67 166.452V170.052L326.838 168.324V164.724L323.67 166.452Z" fill="#24272E"/>
    <path d="M323.67 162.996V166.596L326.838 164.724V161.269L323.67 162.996Z" fill="#24272E"/>
    <path d="M323.67 138.086V141.542L326.838 139.814V136.358L323.67 138.086Z" fill="#24272E"/>
    <path d="M323.671 134.775V138.374L326.839 136.502V133.047L323.671 134.775Z" fill="#24272E"/>
    <g filter="url(#filter8_b)">
        <path fill-rule="evenodd" clip-rule="evenodd" d="M305.241 31.5338L323.815 42.333L326.838 40.4612L308.265 29.8059L305.241 31.5338ZM305.492 184.308L305.241 184.163L308.265 182.435L323.605 191.235L305.241 155.941L305.361 155.867L305.241 155.797L308.265 154.069L323.605 162.869L305.241 127.575L305.361 127.501L305.241 127.431L308.265 125.559L323.479 134.405L305.241 99.353L308.265 97.4811L326.838 133.047L323.9 134.65L326.838 136.358L323.671 138.086L310.865 130.683L326.838 161.269L323.751 162.953L326.838 164.724L323.671 166.452L310.865 159.049L326.838 189.635L323.751 191.319L326.838 193.09L323.671 194.818L310.65 187.29L326.838 218.289L323.879 219.903L326.838 221.6L323.671 223.472L305.241 212.673L308.265 210.945L323.499 219.685L305.241 184.451L305.492 184.308ZM305.241 216.417L321.008 246.72L308.265 239.311L305.241 241.183L323.671 251.838L326.838 250.11L308.265 214.545L305.241 216.417Z" fill="#0B0D11" fill-opacity="0.5"/>
    </g>
    <path d="M329.717 219.873V223.328L326.693 221.6V218.001L329.717 219.873Z" fill="#24272E"/>
    <path d="M329.717 194.818V198.418L326.693 196.69V193.09L329.717 194.818Z" fill="#24272E"/>
    <path d="M329.717 191.363V194.962L326.693 193.09V189.635L329.717 191.363Z" fill="#24272E"/>
    <path d="M329.717 166.452V170.052L326.693 168.324V164.724L329.717 166.452Z" fill="#24272E"/>
    <path d="M329.717 162.997V166.452L326.693 164.724V161.125L329.717 162.997Z" fill="#24272E"/>
    <path d="M329.717 138.086V141.542L326.693 139.814V136.358L329.717 138.086Z" fill="#24272E"/>
    <path d="M329.717 134.631V138.23L326.693 136.358V132.903L329.717 134.631Z" fill="#24272E"/>
    <g filter="url(#filter9_b)">
        <path fill-rule="evenodd" clip-rule="evenodd" d="M329.744 134.585L348.291 102.809L345.267 101.081L326.693 132.903L329.691 134.616L326.693 136.358L329.717 138.086L348.291 127.431L345.267 125.559L329.744 134.585ZM329.723 162.986L348.291 131.175L345.267 129.447L326.693 161.125L329.711 162.993L326.693 164.724L329.717 166.452L348.291 155.797L345.267 154.069L329.723 162.986ZM329.723 191.352L348.291 159.685L345.267 157.813L326.693 189.635L329.711 191.359L326.693 193.09L329.717 194.818L348.291 184.163L345.267 182.435L329.723 191.352ZM329.723 219.862L348.291 188.051L345.267 186.323L326.693 218.001L329.711 219.869L326.693 221.6L329.717 223.472L348.291 212.673L345.267 210.945L329.723 219.862ZM329.717 248.239L348.291 216.561L345.267 214.689L326.693 246.511L329.717 248.239ZM329.717 251.838L348.291 241.183L345.267 239.311L326.693 250.11L329.717 251.838Z" fill="#0B0D11" fill-opacity="0.6"/>
    </g>
    <path d="M329.718 42.333L326.694 44.0609L323.526 42.333L326.694 40.6051L329.718 42.333Z" fill="#0B0D11"/>
    <path d="M337.637 18.8627V22.4624L340.66 20.5906V17.1348L337.637 18.8627Z" fill="#24272E"/>
    <path d="M319.062 8.20743L337.636 18.8627L340.66 17.1348L322.23 6.47955L319.062 8.20743Z" fill="#0B0D11"/>
    <path d="M340.516 20.5905V24.1903L337.492 22.4624V18.8627L340.516 20.5905Z" fill="#24272E"/>
    <path d="M351.314 14.255L340.516 20.5905L337.492 18.8627L348.291 12.3831L351.314 14.255Z" fill="#0B0D11"/>
    <g filter="url(#filter10_b)">
        <path d="M323.527 118.792L362.402 96.3292V57.308L336.63 72.1389L323.527 106.696V118.792Z" fill="#0B0D11"/>
    </g>
    <path d="M323.527 106.696V118.792L299.05 104.825V92.8734L323.527 106.696Z" fill="#0B0D11"/>
    <path d="M312.296 58.1719L336.629 72.1389L323.527 106.696L299.05 92.8735L312.296 58.1719Z" fill="#24272E"/>
    <path d="M335.045 76.4586L323.527 106.696L299.05 92.8734L310.712 62.3476L335.045 76.4586Z" fill="url(#paint9_linear)"/>
    <path d="M299.05 92.8735L319.207 67.2433L327.558 72.1389L299.05 92.8735Z" fill="url(#paint10_linear)"/>
    <path d="M338.07 43.3409L362.402 57.308L336.63 72.1389L312.297 58.1719L338.07 43.3409Z" fill="#0B0D11"/>
    <path d="M352.756 66.0913V89.8497L323.527 106.84V106.696L335.046 76.4586L352.756 66.0913Z" fill="url(#paint11_linear)"/>
    <g filter="url(#filter11_b)">
        <path fill-rule="evenodd" clip-rule="evenodd" d="M319.207 8.20743L319.17 8.26877L337.637 18.8627V18.945L340.516 20.5905L326.542 43.9778L326.694 44.0609V275.309L323.526 273.437V255.354L305.241 244.639V262.782L302.073 260.91V29.8059L316.039 6.47955L319.207 8.20743ZM323.494 42.1469L335.926 21.468L319.063 11.6632V8.44556L305.097 31.5338L302.073 29.806L305.241 31.6777V31.5338L323.494 42.1469ZM323.526 251.562V226.845L305.241 216.273V216.417L323.526 251.562ZM323.526 223.338V223.388L305.241 212.673V188.051L323.526 223.338ZM323.526 219.739V198.335L307.691 189.179L323.526 219.739ZM323.526 194.684V194.735L305.241 184.163V159.397L323.526 194.684ZM323.526 191.086V169.969L307.812 160.884L323.526 191.086ZM323.526 166.318V166.369L305.241 155.797V131.031L323.526 166.318ZM323.526 162.72V141.459L307.705 132.312L323.526 162.72ZM323.526 134.498V45.6236L305.241 35.1336V99.3532L323.526 134.498ZM305.241 127.431V102.809L323.457 137.963L305.241 127.431ZM305.241 241.183V219.873L321.007 250.298L305.241 241.183Z" fill="url(#paint12_linear)"/>
    </g>
    <g filter="url(#filter12_b)">
        <path fill-rule="evenodd" clip-rule="evenodd" d="M340.517 24.1312V24.1903L351.315 17.7107V14.255L340.518 20.5895L340.516 20.5905L326.406 44.2049L329.574 42.333L340.517 24.1312ZM348.292 262.781V19.5826L351.316 17.7108V261.054L348.292 262.781ZM329.718 255.438L348.291 244.639V241.183L329.718 251.838L348.291 220.016V216.561L329.718 248.238V226.928L348.291 216.273V212.673L329.718 223.472V223.328L348.291 191.651V188.051L329.718 219.872V198.418L348.291 187.763V184.163L329.844 194.746L348.291 163.141V159.685L329.718 191.362V170.052L348.291 159.397V155.797L329.718 166.452L348.291 134.774V131.175L329.718 162.996V141.542L348.291 130.887V127.431L329.844 138.014L348.291 106.409V102.809L329.718 134.63V42.333L326.694 44.0609V275.309L329.718 273.437V255.438Z" fill="url(#paint13_linear)"/>
    </g>
    <path d="M50.6817 282.364L72.4229 269.837L70.1192 266.957C69.8313 266.669 69.9752 266.237 70.4072 266.093L77.0303 262.206C77.6063 261.918 78.4701 261.918 79.0461 262.206C79.622 262.494 79.622 263.069 79.0461 263.357L73.1428 266.813L86.3891 282.94C86.6771 283.228 86.5331 283.66 86.1012 283.804L83.9414 285.1C84.0854 285.1 84.2294 285.1 84.3734 285.1C86.3891 285.1 88.1169 286.108 87.9729 287.26C87.9729 288.412 86.2451 289.42 84.2294 289.42C82.2137 289.42 80.4859 288.412 80.6299 287.26C80.6299 287.116 80.6299 287.116 80.6299 286.972L76.0225 289.564C76.1664 289.564 76.3104 289.564 76.4544 289.564C78.4701 289.564 80.1979 290.572 80.0539 291.723C80.0539 292.875 78.3262 293.883 76.3104 293.883C74.2947 293.883 72.5669 292.875 72.7109 291.723C72.7109 291.579 72.7109 291.579 72.7109 291.435L71.703 292.011C71.1271 292.299 70.2632 292.299 69.6873 292.011C69.1114 291.723 69.1114 291.148 69.6873 290.86L83.0775 283.084L80.3419 279.772L64.6479 288.844C63.2081 289.708 60.9044 289.852 59.3206 289.132L51.1137 286.108C48.954 285.244 48.666 283.372 50.6817 282.364Z" fill="white"/>
    <path opacity="0.2" d="M275.738 374.261L300.359 360.006C307.126 356.119 306.262 349.207 298.487 344.743L277.898 332.936C269.979 328.329 258.172 327.897 251.405 331.784L226.784 346.039C220.017 349.927 220.881 356.839 228.656 361.302L249.245 373.109C257.02 377.717 268.971 378.149 275.738 374.261Z" fill="#92B4D1"/>
    <path opacity="0.2" d="M229.519 399.316L254.14 385.061C260.907 381.173 260.043 374.261 252.268 369.798L231.679 357.99C223.76 353.383 211.954 352.951 205.186 356.839L180.566 371.094C173.798 374.981 174.662 381.893 182.437 386.356L203.027 398.164C210.946 402.771 222.752 403.203 229.519 399.316Z" fill="#92B4D1"/>
    <path opacity="0.2" d="M282.793 426.962L307.413 412.707C314.181 408.819 313.317 401.907 305.542 397.444L284.952 385.637C277.033 381.029 265.227 380.597 258.46 384.485L233.839 398.74C227.072 402.627 227.936 409.539 235.711 414.003L256.3 425.81C264.219 430.417 276.026 430.849 282.793 426.962Z" fill="#92B4D1"/>
    <path d="M275.738 361.878L300.359 347.623C307.126 343.735 306.262 336.824 298.487 332.36L277.898 320.553C269.979 315.945 258.172 315.514 251.405 319.401L226.784 333.656C220.017 337.544 220.881 344.455 228.656 348.919L249.245 360.726C257.02 365.334 268.971 365.766 275.738 361.878Z" fill="#72B5E8"/>
    <path d="M228.655 348.919L249.244 360.726C257.163 365.334 268.97 365.766 275.737 361.878L300.358 347.623C303.237 345.895 304.821 343.735 304.965 341.288V349.063C305.109 351.655 303.669 354.247 300.358 356.119L275.737 370.374C268.97 374.261 257.019 373.829 249.244 369.222L228.655 357.415C224.623 355.111 222.464 352.087 222.176 349.207C222.176 348.919 222.176 348.631 222.176 348.343V340.424C222.32 343.447 224.479 346.471 228.655 348.919Z" fill="#2672AB"/>
    <path d="M275.738 349.639L300.359 335.384C307.126 331.496 306.262 324.585 298.487 320.121L277.898 308.314C269.979 303.706 258.172 303.274 251.405 307.162L226.784 321.417C220.017 325.305 220.881 332.216 228.656 336.68L249.245 348.487C257.02 353.095 268.971 353.671 275.738 349.639Z" fill="#72B5E8"/>
    <path d="M228.655 336.68L249.244 348.487C257.163 353.095 268.97 353.527 275.737 349.639L300.358 335.384C303.237 333.656 304.821 331.496 304.965 329.049V336.824C305.109 339.416 303.669 342.008 300.358 343.879L275.737 358.134C268.97 362.022 257.019 361.59 249.244 356.983L228.655 345.175C224.623 342.872 222.464 339.848 222.176 336.968C222.176 336.68 222.176 336.392 222.176 336.104V328.185C222.32 331.352 224.479 334.376 228.655 336.68Z" fill="#2672AB"/>
    <path d="M275.738 337.4L300.359 323.145C307.126 319.257 306.262 312.346 298.487 307.882L277.898 296.075C269.979 291.467 258.172 291.035 251.405 294.923L226.784 309.178C220.017 313.066 220.881 319.977 228.656 324.441L249.245 336.248C257.02 340.856 268.971 341.432 275.738 337.4Z" fill="#72B5E8"/>
    <path d="M228.655 324.441L249.244 336.248C257.163 340.856 268.97 341.288 275.737 337.4L300.358 323.145C303.237 321.417 304.821 319.257 304.965 316.809V324.585C305.109 327.177 303.669 329.769 300.358 331.64L275.737 345.895C268.97 349.783 257.019 349.351 249.244 344.743L228.655 332.936C224.623 330.632 222.464 327.609 222.176 324.729C222.176 324.441 222.176 324.153 222.176 323.865V315.945C222.32 319.113 224.479 322.137 228.655 324.441Z" fill="#2672AB"/>
    <path d="M275.738 325.593L300.359 311.338C307.126 307.45 306.262 300.539 298.487 296.075L277.898 284.268C269.979 279.66 258.172 279.228 251.405 283.116L226.784 297.371C220.017 301.259 220.881 308.17 228.656 312.634L249.245 324.441C257.02 329.049 268.971 329.481 275.738 325.593Z" fill="#72B5E8"/>
    <path d="M228.655 312.634L249.244 324.441C257.163 329.049 268.97 329.48 275.737 325.593L300.358 311.338C303.237 309.61 304.821 307.45 304.965 305.002V312.778C305.109 315.369 303.669 317.961 300.358 319.833L275.737 334.088C268.97 337.976 257.019 337.544 249.244 332.936L228.655 321.129C224.623 318.825 222.464 315.801 222.176 312.922C222.176 312.634 222.176 312.346 222.176 312.058V304.138C222.32 307.162 224.479 310.186 228.655 312.634Z" fill="#2672AB"/>
    <path d="M275.738 313.354L300.359 299.099C307.126 295.211 306.262 288.299 298.487 283.836L277.898 272.029C269.979 267.421 258.172 266.989 251.405 270.877L226.784 285.132C220.017 289.019 220.881 295.931 228.656 300.395L249.245 312.202C257.02 316.809 268.971 317.241 275.738 313.354Z" fill="#72B5E8"/>
    <path d="M228.655 300.395L249.244 312.202C257.163 316.809 268.97 317.241 275.737 313.354L300.358 299.099C303.237 297.371 304.821 295.211 304.965 292.763V300.539C305.109 303.13 303.669 305.722 300.358 307.594L275.737 321.849C268.97 325.737 257.019 325.305 249.244 320.697L228.655 308.89C224.623 306.586 222.464 303.562 222.176 300.683C222.176 300.395 222.176 300.107 222.176 299.819V291.899C222.32 294.923 224.479 297.947 228.655 300.395Z" fill="#2672AB"/>
    <path d="M275.738 301.114L300.359 286.86C307.126 282.972 306.262 276.06 298.487 271.597L277.898 259.789C269.979 255.182 258.172 254.75 251.405 258.637L226.784 272.892C220.017 276.78 220.881 283.692 228.656 288.155L249.245 299.963C257.02 304.57 268.971 305.146 275.738 301.114Z" fill="#72B5E8"/>
    <path d="M228.655 288.155L249.244 299.963C257.163 304.57 268.97 305.002 275.737 301.114L300.358 286.859C303.237 285.132 304.821 282.972 304.965 280.524V288.299C305.109 290.891 303.669 293.483 300.358 295.355L275.737 309.61C268.97 313.498 257.019 313.066 249.244 308.458L228.655 296.651C224.623 294.347 222.464 291.323 222.176 288.443C222.176 288.155 222.176 287.867 222.176 287.579V279.66C222.32 282.828 224.479 285.852 228.655 288.155Z" fill="#2672AB"/>
    <path d="M229.519 386.932L254.14 372.677C260.907 368.79 260.043 361.878 252.268 357.415L231.679 345.607C223.76 341 211.954 340.568 205.186 344.455L180.566 358.71C173.798 362.598 174.662 369.51 182.437 373.973L203.027 385.781C210.946 390.388 222.752 390.82 229.519 386.932Z" fill="#3ECFCD"/>
    <path d="M182.581 373.973L203.17 385.781C211.089 390.388 222.895 390.82 229.663 386.932L254.283 372.677C257.163 370.95 258.747 368.79 258.891 366.342V374.117C259.035 376.709 257.595 379.301 254.283 381.173L229.663 395.428C222.895 399.316 210.945 398.884 203.17 394.276L182.581 382.469C178.549 380.165 176.39 377.141 176.102 374.261C176.102 373.973 176.102 373.685 176.102 373.397V365.478C176.246 368.502 178.405 371.526 182.581 373.973Z" fill="#0BA19F"/>
    <path d="M229.52 386.932L254.14 372.677C257.02 370.95 258.604 368.79 258.748 366.342V374.117C258.892 376.709 257.452 379.301 254.14 381.173L229.52 395.428V386.932Z" fill="#0FBAB8"/>
    <path d="M229.519 374.405L254.14 360.15C260.907 356.263 260.043 349.351 252.268 344.887L231.679 333.08C223.76 328.473 211.954 328.041 205.186 331.928L180.566 346.183C173.798 350.071 174.662 356.983 182.437 361.446L203.027 373.253C210.946 377.861 222.752 378.293 229.519 374.405Z" fill="#3ECFCD"/>
    <path d="M182.581 361.446L203.17 373.253C211.089 377.861 222.895 378.293 229.663 374.405L254.283 360.15C257.163 358.422 258.747 356.263 258.891 353.815V361.59C259.035 364.182 257.595 366.774 254.283 368.646L229.663 382.901C222.895 386.788 210.945 386.356 203.17 381.749L182.581 369.942C178.549 367.638 176.39 364.614 176.102 361.734C176.102 361.446 176.102 361.158 176.102 360.87V353.095C176.246 355.975 178.405 359.142 182.581 361.446Z" fill="#0BA19F"/>
    <path d="M229.52 374.405L254.14 360.15C257.02 358.422 258.604 356.263 258.748 353.815V361.59C258.892 364.182 257.452 366.774 254.14 368.646L229.52 382.901V374.405Z" fill="#0FBAB8"/>
    <path d="M229.519 362.022L254.14 347.767C260.907 343.879 260.043 336.968 252.268 332.504L231.679 320.697C223.76 316.089 211.954 315.657 205.186 319.545L180.566 333.8C173.798 337.688 174.662 344.599 182.437 349.063L203.027 360.87C210.946 365.334 222.752 365.91 229.519 362.022Z" fill="#3ECFCD"/>
    <path d="M182.581 349.063L203.17 360.87C211.089 365.478 222.895 365.91 229.663 362.022L254.283 347.767C257.163 346.039 258.747 343.88 258.891 341.432V349.207C259.035 351.799 257.595 354.391 254.283 356.263L229.663 370.518C222.895 374.405 210.945 373.973 203.17 369.366L182.581 357.559C178.549 355.255 176.39 352.231 176.102 349.351C176.102 349.063 176.102 348.775 176.102 348.487V340.568C176.246 343.592 178.405 346.615 182.581 349.063Z" fill="#0BA19F"/>
    <path d="M229.52 362.022L254.14 347.767C257.02 346.039 258.604 343.879 258.748 341.432V349.207C258.892 351.799 257.452 354.391 254.14 356.263L229.52 370.518V362.022Z" fill="#0FBAB8"/>
    <path d="M221.312 326.169L219.152 341.72L192.084 343.016C192.228 342.584 192.516 342.008 193.236 341.72L219.008 326.889C219.728 326.457 220.592 326.313 221.312 326.169Z" fill="white"/>
    <path d="M193.379 345.031L208.497 353.815C210.081 354.679 212.673 354.679 214.257 353.815L240.029 338.984C241.613 338.12 241.613 336.536 240.029 335.672L224.911 326.889C224.047 326.313 222.752 326.169 221.6 326.169V337.4H240.893L221.6 338.264V343.016H192.371C192.083 343.735 192.371 344.455 193.379 345.031ZM211.521 354.247V343.016H213.105L211.521 354.247Z" fill="white"/>
    <path d="M282.793 414.578L307.413 400.323C314.181 396.436 313.317 389.524 305.542 385.061L284.952 373.253C277.033 368.646 265.227 368.214 258.46 372.101L233.839 386.356C227.072 390.244 227.936 397.156 235.711 401.619L256.3 413.427C264.219 418.034 276.026 418.466 282.793 414.578Z" fill="#72B5E8"/>
    <path d="M235.854 401.619L256.443 413.427C264.362 418.034 276.169 418.466 282.936 414.578L307.557 400.324C310.436 398.596 312.02 396.436 312.164 393.988V401.763C312.308 404.355 310.868 406.947 307.557 408.819L282.936 423.074C276.169 426.962 264.218 426.53 256.443 421.922L235.854 410.115C231.823 407.811 229.663 404.787 229.375 401.907C229.375 401.619 229.375 401.331 229.375 401.043V393.124C229.519 396.148 231.679 399.172 235.854 401.619Z" fill="#2672AB"/>
    <path d="M268.539 395.716V398.164C267.099 398.308 266.091 399.028 266.091 399.892V408.099C266.091 409.107 267.531 409.971 269.259 409.971H271.707C273.434 409.971 274.874 409.107 274.874 408.099V399.892C274.874 399.028 273.866 398.308 272.57 398.164V395.716C279.77 395.14 285.385 391.54 285.385 387.22C285.385 382.469 278.762 378.725 270.555 378.725C262.348 378.725 255.725 382.613 255.725 387.364C255.725 391.54 261.34 395.14 268.539 395.716ZM260.908 387.22C260.908 384.053 265.371 381.605 270.699 381.605C276.026 381.605 280.489 384.053 280.489 387.22C280.489 390.388 276.026 392.836 270.699 392.836C265.227 392.836 260.764 390.388 260.908 387.22Z" fill="#D1EBFF"/>
    <path d="M282.793 402.627L307.413 388.372C314.181 384.485 313.317 377.573 305.542 373.109L284.952 361.302C277.033 356.695 265.227 356.263 258.46 360.15L233.839 374.405C227.072 378.293 227.936 385.205 235.711 389.668L256.3 401.475C264.219 406.083 276.026 406.659 282.793 402.627Z" fill="#72B5E8"/>
    <path d="M235.854 389.668L256.443 401.475C264.362 406.083 276.169 406.515 282.936 402.627L307.557 388.372C310.436 386.644 312.02 384.485 312.164 382.037V389.812C312.308 392.404 310.868 394.996 307.557 396.868L282.936 411.123C276.169 415.01 264.218 414.579 256.443 409.971L235.854 398.164C231.823 395.86 229.663 392.836 229.375 389.956C229.375 389.668 229.375 389.38 229.375 389.092V381.173C229.519 384.341 231.679 387.364 235.854 389.668Z" fill="#2672AB"/>
    <path d="M268.539 383.765V386.212C267.099 386.356 266.091 387.076 266.091 387.94V396.148C266.091 397.156 267.531 398.02 269.259 398.02H271.707C273.434 398.02 274.874 397.156 274.874 396.148V387.94C274.874 387.076 273.866 386.356 272.57 386.212V383.765C279.77 383.189 285.385 379.589 285.385 375.269C285.385 370.518 278.762 366.774 270.555 366.774C262.348 366.774 255.725 370.662 255.725 375.413C255.725 379.733 261.34 383.189 268.539 383.765ZM260.908 375.413C260.908 372.245 265.371 369.798 270.699 369.798C276.026 369.798 280.489 372.245 280.489 375.413C280.489 378.581 276.026 381.029 270.699 381.029C265.227 381.029 260.764 378.437 260.908 375.413Z" fill="white"/>
    <path d="M291.431 280.092L284.664 284.124L272.281 276.924L279.048 273.036L291.431 280.092Z" fill="white"/>
    <path d="M282.649 285.276L275.738 289.163L254.141 276.636L260.908 272.748L282.649 285.276Z" fill="white"/>
    <path d="M242.766 272.461L273.722 290.315L266.81 294.347L235.854 276.492L242.766 272.461Z" fill="white"/>
    <defs>
        <filter id="filter0_b" x="132.939" y="246" width="111.496" height="76.04" filterUnits="userSpaceOnUse" color-interpolation-filters="sRGB">
            <feFlood flood-opacity="0" result="BackgroundImageFix"/>
            <feGaussianBlur in="BackgroundImage" stdDeviation="7"/>
            <feComposite in2="SourceAlpha" operator="in" result="effect1_backgroundBlur"/>
            <feBlend mode="normal" in="SourceGraphic" in2="effect1_backgroundBlur" result="shape"/>
        </filter>
        <filter id="filter1_b" x="74.1582" y="280.126" width="111.389" height="76.04" filterUnits="userSpaceOnUse" color-interpolation-filters="sRGB">
            <feFlood flood-opacity="0" result="BackgroundImageFix"/>
            <feGaussianBlur in="BackgroundImage" stdDeviation="7"/>
            <feComposite in2="SourceAlpha" operator="in" result="effect1_backgroundBlur"/>
            <feBlend mode="normal" in="SourceGraphic" in2="effect1_backgroundBlur" result="shape"/>
        </filter>
        <filter id="filter2_b" x="132.982" y="245.856" width="111.414" height="54.3958" filterUnits="userSpaceOnUse" color-interpolation-filters="sRGB">
            <feFlood flood-opacity="0" result="BackgroundImageFix"/>
            <feGaussianBlur in="BackgroundImage" stdDeviation="7"/>
            <feComposite in2="SourceAlpha" operator="in" result="effect1_backgroundBlur"/>
            <feBlend mode="normal" in="SourceGraphic" in2="effect1_backgroundBlur" result="shape"/>
        </filter>
        <filter id="filter3_b" x="74.1484" y="280.126" width="111.358" height="54.3958" filterUnits="userSpaceOnUse" color-interpolation-filters="sRGB">
            <feFlood flood-opacity="0" result="BackgroundImageFix"/>
            <feGaussianBlur in="BackgroundImage" stdDeviation="7"/>
            <feComposite in2="SourceAlpha" operator="in" result="effect1_backgroundBlur"/>
            <feBlend mode="normal" in="SourceGraphic" in2="effect1_backgroundBlur" result="shape"/>
        </filter>
        <filter id="filter4_b" x="124.256" y="209.961" width="126.867" height="113.149" filterUnits="userSpaceOnUse" color-interpolation-filters="sRGB">
            <feFlood flood-opacity="0" result="BackgroundImageFix"/>
            <feGaussianBlur in="BackgroundImage" stdDeviation="7"/>
            <feComposite in2="SourceAlpha" operator="in" result="effect1_backgroundBlur"/>
            <feBlend mode="normal" in="SourceGraphic" in2="effect1_backgroundBlur" result="shape"/>
        </filter>
        <filter id="filter5_b" x="298.073" y="24.078" width="32.7645" height="242.703" filterUnits="userSpaceOnUse" color-interpolation-filters="sRGB">
            <feFlood flood-opacity="0" result="BackgroundImageFix"/>
            <feGaussianBlur in="BackgroundImage" stdDeviation="2"/>
            <feComposite in2="SourceAlpha" operator="in" result="effect1_backgroundBlur"/>
            <feBlend mode="normal" in="SourceGraphic" in2="effect1_backgroundBlur" result="shape"/>
        </filter>
        <filter id="filter6_b" x="301.241" y="108.888" width="51.0498" height="134.279" filterUnits="userSpaceOnUse" color-interpolation-filters="sRGB">
            <feFlood flood-opacity="0" result="BackgroundImageFix"/>
            <feGaussianBlur in="BackgroundImage" stdDeviation="2"/>
            <feComposite in2="SourceAlpha" operator="in" result="effect1_backgroundBlur"/>
            <feBlend mode="normal" in="SourceGraphic" in2="effect1_backgroundBlur" result="shape"/>
        </filter>
        <filter id="filter7_b" x="341.124" y="13.7108" width="11.1676" height="253.071" filterUnits="userSpaceOnUse" color-interpolation-filters="sRGB">
            <feFlood flood-opacity="0" result="BackgroundImageFix"/>
            <feGaussianBlur in="BackgroundImage" stdDeviation="2"/>
            <feComposite in2="SourceAlpha" operator="in" result="effect1_backgroundBlur"/>
            <feBlend mode="normal" in="SourceGraphic" in2="effect1_backgroundBlur" result="shape"/>
        </filter>
        <filter id="filter8_b" x="301.241" y="25.8059" width="29.5972" height="230.032" filterUnits="userSpaceOnUse" color-interpolation-filters="sRGB">
            <feFlood flood-opacity="0" result="BackgroundImageFix"/>
            <feGaussianBlur in="BackgroundImage" stdDeviation="2"/>
            <feComposite in2="SourceAlpha" operator="in" result="effect1_backgroundBlur"/>
            <feBlend mode="normal" in="SourceGraphic" in2="effect1_backgroundBlur" result="shape"/>
        </filter>
        <filter id="filter9_b" x="322.693" y="97.0809" width="29.5972" height="158.757" filterUnits="userSpaceOnUse" color-interpolation-filters="sRGB">
            <feFlood flood-opacity="0" result="BackgroundImageFix"/>
            <feGaussianBlur in="BackgroundImage" stdDeviation="2"/>
            <feComposite in2="SourceAlpha" operator="in" result="effect1_backgroundBlur"/>
            <feBlend mode="normal" in="SourceGraphic" in2="effect1_backgroundBlur" result="shape"/>
        </filter>
        <filter id="filter10_b" x="319.527" y="53.308" width="46.875" height="69.4837" filterUnits="userSpaceOnUse" color-interpolation-filters="sRGB">
            <feFlood flood-opacity="0" result="BackgroundImageFix"/>
            <feGaussianBlur in="BackgroundImage" stdDeviation="2"/>
            <feComposite in2="SourceAlpha" operator="in" result="effect1_backgroundBlur"/>
            <feBlend mode="normal" in="SourceGraphic" in2="effect1_backgroundBlur" result="shape"/>
        </filter>
        <filter id="filter11_b" x="298.073" y="2.47955" width="46.4429" height="276.829" filterUnits="userSpaceOnUse" color-interpolation-filters="sRGB">
            <feFlood flood-opacity="0" result="BackgroundImageFix"/>
            <feGaussianBlur in="BackgroundImage" stdDeviation="2"/>
            <feComposite in2="SourceAlpha" operator="in" result="effect1_backgroundBlur"/>
            <feBlend mode="normal" in="SourceGraphic" in2="effect1_backgroundBlur" result="shape"/>
        </filter>
        <filter id="filter12_b" x="322.406" y="10.255" width="32.9094" height="269.054" filterUnits="userSpaceOnUse" color-interpolation-filters="sRGB">
            <feFlood flood-opacity="0" result="BackgroundImageFix"/>
            <feGaussianBlur in="BackgroundImage" stdDeviation="2"/>
            <feComposite in2="SourceAlpha" operator="in" result="effect1_backgroundBlur"/>
            <feBlend mode="normal" in="SourceGraphic" in2="effect1_backgroundBlur" result="shape"/>
        </filter>
        <linearGradient id="paint0_linear" x1="145.174" y1="297.997" x2="232.148" y2="297.413" gradientUnits="userSpaceOnUse">
            <stop offset="0.4032" stop-color="#FD05E4"/>
            <stop offset="0.423" stop-color="#FA05E1"/>
            <stop offset="0.5505" stop-color="#EC03B9"/>
            <stop offset="0.6846" stop-color="#E201B0"/>
            <stop offset="0.8286" stop-color="#DC00AC"/>
            <stop offset="1" stop-color="#DA00B7"/>
        </linearGradient>
        <linearGradient id="paint1_linear" x1="149.646" y1="200.911" x2="243.413" y2="340.327" gradientUnits="userSpaceOnUse">
            <stop offset="0.4032" stop-color="#FC04B7"/>
            <stop offset="0.5099" stop-color="#FC04C5"/>
            <stop offset="0.6558" stop-color="#FD05C6"/>
            <stop offset="0.813" stop-color="#FD05C6"/>
            <stop offset="1" stop-color="#FD05C6"/>
        </linearGradient>
        <linearGradient id="paint2_linear" x1="326.478" y1="236.863" x2="326.478" y2="294.459" gradientUnits="userSpaceOnUse">
            <stop stop-color="#0B0D11" stop-opacity="0.26"/>
            <stop offset="1" stop-color="#0B0D11" stop-opacity="0"/>
        </linearGradient>
        <linearGradient id="paint3_linear" x1="311.576" y1="260.766" x2="311.576" y2="284.092" gradientUnits="userSpaceOnUse">
            <stop stop-color="#0B0D11" stop-opacity="0.26"/>
            <stop offset="1" stop-color="#0B0D11" stop-opacity="0"/>
        </linearGradient>
        <linearGradient id="paint4_linear" x1="341.667" y1="260.766" x2="341.667" y2="284.092" gradientUnits="userSpaceOnUse">
            <stop stop-color="#0B0D11" stop-opacity="0.26"/>
            <stop offset="1" stop-color="#0B0D11" stop-opacity="0"/>
        </linearGradient>
        <linearGradient id="paint5_linear" x1="326.55" y1="243.343" x2="326.55" y2="278.188" gradientUnits="userSpaceOnUse">
            <stop stop-color="#0B0D11" stop-opacity="0.26"/>
            <stop offset="1" stop-color="#0B0D11" stop-opacity="0"/>
        </linearGradient>
        <linearGradient id="paint6_linear" x1="315.967" y1="29.8059" x2="315.967" y2="262.782" gradientUnits="userSpaceOnUse">
            <stop stop-color="#0B0D11" stop-opacity="0.26"/>
            <stop offset="1" stop-color="#0B0D11" stop-opacity="0"/>
        </linearGradient>
        <linearGradient id="paint7_linear" x1="305.169" y1="28.078" x2="305.169" y2="31.6778" gradientUnits="userSpaceOnUse">
            <stop stop-color="#0B0D11" stop-opacity="0.26"/>
            <stop offset="1" stop-color="#0B0D11" stop-opacity="0"/>
        </linearGradient>
        <linearGradient id="paint8_linear" x1="346.708" y1="17.7108" x2="346.708" y2="262.781" gradientUnits="userSpaceOnUse">
            <stop stop-color="#0B0D11" stop-opacity="0.26"/>
            <stop offset="1" stop-color="#0B0D11" stop-opacity="0"/>
        </linearGradient>
        <linearGradient id="paint9_linear" x1="326" y1="69.5" x2="309.5" y2="100.5" gradientUnits="userSpaceOnUse">
            <stop stop-color="#1CC8EE"/>
            <stop offset="1" stop-color="#1CC8EE" stop-opacity="0"/>
        </linearGradient>
        <linearGradient id="paint10_linear" x1="326.5" y1="65" x2="301" y2="88.5" gradientUnits="userSpaceOnUse">
            <stop stop-color="#F1FCFF" stop-opacity="0.34"/>
            <stop offset="1" stop-color="#F1FCFF" stop-opacity="0"/>
        </linearGradient>
        <linearGradient id="paint11_linear" x1="338.141" y1="66.0913" x2="338.141" y2="106.84" gradientUnits="userSpaceOnUse">
            <stop stop-color="#1CC8EE"/>
            <stop offset="1" stop-color="#1CC8EE" stop-opacity="0"/>
        </linearGradient>
        <linearGradient id="paint12_linear" x1="321.295" y1="6.47955" x2="321.295" y2="275.309" gradientUnits="userSpaceOnUse">
            <stop stop-color="#0B0D11" stop-opacity="0.26"/>
            <stop offset="1" stop-color="#0B0D11" stop-opacity="0.14"/>
        </linearGradient>
        <linearGradient id="paint13_linear" x1="338.861" y1="14.255" x2="338.861" y2="275.309" gradientUnits="userSpaceOnUse">
            <stop stop-color="#0B0D11" stop-opacity="0.26"/>
            <stop offset="1" stop-color="#0B0D11" stop-opacity="0"/>
        </linearGradient>
    </defs>
</svg>
