<svg xmlns="http://www.w3.org/2000/svg" xmlns:xlink="http://www.w3.org/1999/xlink" width="600" height="595" viewBox="0 0 600 595">
    <defs>
        <path id="a" d="M0 .9h242.898v228.749H0z"/>
        <path id="c" d="M0 .9h161.932v122.147H0z"/>
        <path id="e" d="M0 .9H142.26v122.147H0z"/>
    </defs>
    <g fill="none" fill-rule="evenodd">
        <path fill="#202020" d="M342.277 9.4l195.971 87.165C575.801 113.268 600 150.515 600 191.616v211.961c0 41.1-24.199 78.348-61.752 95.051l-195.971 87.165a104.029 104.029 0 0 1-84.554 0L61.752 498.628C24.199 481.925 0 444.678 0 403.578V191.615c0-41.1 24.199-78.348 61.752-95.05L257.723 9.4a104.029 104.029 0 0 1 84.554 0z"/>
        <path stroke="#8196FF" stroke-width="24.247" d="M553.161 442.006a68.635 68.635 0 0 1-29.745 25.342L332.27 552.082a79.877 79.877 0 0 1-64.741 0L76.38 467.348a68.635 68.635 0 0 1-29.745-25.342 68.635 68.635 0 0 1-11.113-37.463V190.841a68.635 68.635 0 0 1 11.113-37.463 68.635 68.635 0 0 1 29.745-25.342l191.148-84.733a79.877 79.877 0 0 1 64.74 0l191.148 84.733a68.635 68.635 0 0 1 29.745 25.342 68.635 68.635 0 0 1 11.114 37.463v213.702a68.635 68.635 0 0 1-11.114 37.463z" opacity=".499"/>
        <path stroke="#8196FF" stroke-width="24.007" d="M573.14 453.712a91.94 91.94 0 0 1-39.77 33.949l-195.971 87.164a92.026 92.026 0 0 1-74.798 0l-195.97-87.164a91.94 91.94 0 0 1-39.772-33.949 91.94 91.94 0 0 1-14.856-50.135v-211.96A91.94 91.94 0 0 1 26.86 141.48a91.94 91.94 0 0 1 39.771-33.948l195.971-87.165a92.026 92.026 0 0 1 74.798 0l195.97 87.165a91.94 91.94 0 0 1 39.772 33.948 91.94 91.94 0 0 1 14.856 50.135v211.961a91.94 91.94 0 0 1-14.856 50.135z"/>
        <text fill="#8196FF" font-family="Helvetica-Bold, Helvetica" font-size="51" font-weight="bold" letter-spacing="2" transform="translate(0 -10)">
            <tspan x="223" y="464">URQL</tspan>
        </text>
        <g transform="translate(138 147.451)">
            <mask id="b" fill="#fff">
                <use xlink:href="#a"/>
            </mask>
            <path fill="#8196FF" d="M135.063 169.782l45.166 45.214v14.653l15.112-14.763-33.75-33.789v-18.136l15.537 15.556 40.898.117 24.872 24.897v-26.5c0-8.98-3.564-17.594-9.908-23.944l-71.058-71.135-71.424-71.5a32.556 32.556 0 0 0-46.073 0L0 54.934h26.658c7.23-7.238 18.953-7.238 26.183 0l.316.316 54.296 54.354H80.768l-27.611-27.64v12.537a33.79 33.79 0 0 0 9.88 23.88l18.009 18.028 26.685 26.712a21.14 21.14 0 0 0 6.181 14.94l21.104 21.129 13.528 13.54-.104 12.55 12.751-11.127v14.391l14.571-13.888-40.699-40.743" mask="url(#b)"/>
        </g>
        <g transform="translate(299.932 147.451)">
            <mask id="d" fill="#fff">
                <use xlink:href="#c"/>
            </mask>
            <path fill="#647BED" d="M0 81.952l71.424-71.5a32.556 32.556 0 0 1 46.073 0l44.435 44.482h-26.658c-7.23-7.238-18.953-7.238-26.183 0l-.316.316-67.724 67.797" mask="url(#d)"/>
        </g>
        <g transform="translate(198.724 147.451)">
            <mask id="f" fill="#fff">
                <use xlink:href="#e"/>
            </mask>
            <path fill="#A2B1FF" d="M142.259 123.047l-41.051-41.095-71.425-71.5A32.562 32.562 0 0 0 6.747.898C4.461.9 2.202 1.146 0 1.614a32.558 32.558 0 0 1 16.29 8.837l71.423 71.5 41.01 41.055 13.536.04z" mask="url(#f)"/>
        </g>
        <path fill="#A2B1FF" d="M203.975 268.774h58.135l11.707-11.718h-55.05l-27.61-27.64v12.537a33.79 33.79 0 0 0 9.88 23.88l2.938 2.941z"/>
        <path fill="#4D65DD" d="M354.523 309.991a3.252 3.252 0 0 0 3.25 3.255 3.252 3.252 0 0 0 3.251-3.255 3.252 3.252 0 0 0-3.25-3.254h-3.251v3.254z"/>
        <path fill="#647BED" d="M215.456 198.648c-12.929-12.943-33.89-12.943-46.817 0l-2.152 2.154c7.26-5.59 17.703-5.074 24.354 1.584l.124.123h.192l66.02 66.277 28.053-.29-66.379-66.449-3.395-3.399z"/>
        <path fill="#4D65DD" d="M384.327 198.648c12.929-12.943 33.89-12.943 46.817 0l2.152 2.154c-7.26-5.59-17.704-5.074-24.354 1.584l-.124.123h-.192l-67.683 67.95-14.175-14.19 54.162-54.222 3.397-3.399zM233.344 298.175l12.387 12.4a21.14 21.14 0 0 0 6.181 14.939l21.104 21.127 13.528 13.541-.104 12.55 12.751-11.126v14.391l14.571-13.89-40.699-40.742 1.995-2.136 43.17 43.219V377.1l15.114-14.763-33.752-33.788v-18.137a41.72 41.72 0 0 0-29.513-12.237h-36.733z"/>
        <path fill="#647BED" d="M313.762 362.108l-40.7-40.743-23.165-23.19h-16.553l12.386 12.4a21.14 21.14 0 0 0 6.182 14.939l21.105 21.127 13.528 13.542-.105 12.55 12.752-11.128v14.392l14.57-13.89z"/>
        <path fill="#8196FF" d="M417.428 157.903a32.556 32.556 0 0 0-23.036-9.552c-2.286 0-4.545.247-6.747.714a32.548 32.548 0 0 1 16.289 8.838l44.435 44.483h13.495l-44.436-44.483z"/>
    </g>
</svg>
