<svg xmlns="http://www.w3.org/2000/svg" width="33" height="34" viewBox="0 0 33 34">
    <path fill="#E5E5E5" fill-rule="nonzero" d="M16.514 0C7.41 0 .03 7.612.03 17c0 9.39 7.381 17 16.485 17S33 26.39 33 17c0-9.388-7.381-17-16.485-17zm4.618 29.95c-.095-1.33-.201-2.977-.207-3.645-.041-.512-.095-1.814-1.294-2.646 4.76-.412 7.026-3.125 7.19-6.711.135-2.042-.652-3.838-2.05-5.287a29.935 29.935 0 0 0-.142-4.195c-1.074-.319-3.577 1.045-4.277 1.628-1.475-.59-5.087-.798-7.281 0-1.556-1.128-3.327-1.825-4.292-1.631-.892 2.037-.319 3.962-.145 4.192-1.147 1.081-2.748 2.413-2.314 5.202.698 4.09 3.488 6.295 7.98 6.835-.958.201-1.12.939-1.2 1.259-3.017 1.283-3.88-.793-4.26-1.334-1.267-1.616-2.403-1.147-2.473-1.122-.068.026-.12.128-.113.177.064.348.754.702.788.73.934.719 1.28 2.016 1.493 2.386 1.34 2.273 4.457 1.33 4.486 1.35.002.198-.021 1.87-.04 3.172-5.68-1.6-9.86-6.945-9.86-13.31 0-7.629 5.996-13.813 13.393-13.813 7.398 0 13.394 6.184 13.394 13.813 0 5.953-3.658 11.01-8.776 12.95z"/>
</svg>
