<svg xmlns="http://www.w3.org/2000/svg" width="34" height="34" viewBox="0 0 34 34">
    <path fill="#E5E5E5" fill-rule="nonzero" d="M0 0v34h34V0H0zm28.247 8.052l-1.821 1.746a.535.535 0 0 0-.205.508v12.849a.522.522 0 0 0 .205.508l1.783 1.746v.387h-8.955v-.372l1.844-1.791c.182-.182.182-.235.182-.508v-10.39l-5.13 13.023h-.69L9.486 12.735v8.727a1.2 1.2 0 0 0 .334 1.002l2.398 2.907v.387H5.404v-.387l2.398-2.907c.258-.265.372-.637.31-1.002V11.37a.866.866 0 0 0-.287-.744L5.692 8.052v-.387h6.625l5.116 11.232 4.5-11.224h6.314v.38z"/>
</svg>
