<svg xmlns="http://www.w3.org/2000/svg" xmlns:xlink="http://www.w3.org/1999/xlink" width="24" height="24" viewBox="0 0 24 24">
    <defs>
        <path id="a" d="M9.187 5.141l.218.446.493.07-.355.345.084.489-.44-.229-.439.233.084-.49-.355-.344.493-.07.217-.45zm-.179-.904l-.411.837-.921.134a.202.202 0 0 0-.113.344l.668.65-.158.918a.202.202 0 0 0 .292.215l.822-.433.823.433c.148.077.32-.05.292-.215l-.155-.92.668-.651a.202.202 0 0 0-.112-.345l-.921-.133-.412-.837a.203.203 0 0 0-.362.003zm3.435-.583l-.274.555-.615.092c-.11.017-.155.151-.074.228l.443.433-.106.611a.135.135 0 0 0 .197.141l.549-.288.548.288a.135.135 0 0 0 .197-.14l-.106-.612.443-.433a.134.134 0 0 0-.074-.228l-.615-.088-.274-.556a.13.13 0 0 0-.239-.003zm-6.75 0l-.274.555-.615.092c-.11.017-.155.151-.074.228l.443.433-.106.611a.135.135 0 0 0 .197.141l.548-.288.549.288a.135.135 0 0 0 .197-.14l-.106-.612.443-.433a.134.134 0 0 0-.074-.228l-.615-.088-.274-.556a.13.13 0 0 0-.239-.003zm13.5 6.732l-.274.556-.615.088c-.11.017-.155.15-.074.228l.443.433-.106.611a.135.135 0 0 0 .197.141l.549-.288.548.288a.135.135 0 0 0 .197-.14l-.106-.612.443-.433a.134.134 0 0 0-.074-.228l-.615-.088-.274-.556a.134.134 0 0 0-.239 0zM5.675 20.67L3.33 18.325a1.127 1.127 0 0 1 0-1.593L16.732 3.33c.44-.439 1.153-.439 1.593 0l2.345 2.345c.439.44.439 1.154 0 1.593L7.268 20.67c-.44.439-1.153.439-1.593 0zm9.914-9.911l-2.344-2.345-9.12 9.116 2.345 2.345 9.12-9.116zm4.286-4.29L17.53 4.126l-3.49 3.491 2.344 2.345 3.491-3.491z"/>
    </defs>
    <g fill="none" fill-rule="evenodd">
        <mask id="b" fill="#fff">
            <use xlink:href="#a"/>
        </mask>
        <g fill="white" mask="url(#b)">
            <path d="M0 0h24v24H0z"/>
        </g>
    </g>
</svg>
