<?xml version="1.0" encoding="UTF-8"?>
<svg width="180px" height="78px" viewBox="0 0 180 78" version="1.1" xmlns="http://www.w3.org/2000/svg" xmlns:xlink="http://www.w3.org/1999/xlink" style="transform-origin: 50%; transform: scale(0.7);">
    <!-- Generator: Sketch 51.3 (57544) - http://www.bohemiancoding.com/sketch -->
    <title>airfrance@1.5x</title>
    <desc>Created with Sketch.</desc>
    <defs></defs>
    <g id="airfrance" stroke="none" stroke-width="1" fill="none" fill-rule="evenodd">
        <path d="M165.154712,31 L157.554432,41.9951644 C156.553258,43.4425059 154.929919,44.8350415 152.968482,44.9847931 L152.968482,45.3221202 L161.422501,45.3221202 C163.668003,45.3221202 165.303692,43.862428 166.412934,42.2514403 L174.217,31 L165.154712,31 Z M88.2534023,39.7110664 L92.4178865,39.7110664 L90.2542073,35.7094565 L88.2534023,39.7110664 Z M95.5966345,45.323664 L93.9594017,42.4413315 L86.8199553,42.4413315 L85.3455967,45.323664 L81.789382,45.323664 L88.9018114,32.2203984 L92.1330496,32.2203984 L100.178725,45.323664 L95.5966345,45.323664 Z M11.6392452,39.7110664 L15.9117975,39.7110664 L13.6940843,35.7094565 L11.6392452,39.7110664 Z M19.1839473,45.323664 L17.5073468,42.4413315 L10.1787811,42.4413315 L8.6503884,45.323664 L5,45.323664 L12.3015487,32.2203984 L15.6285045,32.2203984 L23.9034387,45.323664 L19.1839473,45.323664 Z M40.4810959,38.2367078 C41.9955941,38.2367078 42.7258262,37.4663361 42.7258262,36.6017908 C42.7258262,35.7364735 42.0766453,35.019364 40.4810959,35.019364 L36.4107855,35.019364 L36.4107855,38.2367078 L40.4810959,38.2367078 Z M43.5371094,40.4011589 L48.8239586,45.323664 L44.7405256,45.323664 C43.8342969,45.323664 43.23915,45.0388272 42.7659658,44.5803094 L39.1696115,41.0904794 C39.1016829,41.0225508 38.9936148,40.9816393 38.8585295,40.9816393 L36.4107855,40.9816393 L36.4107855,45.323664 L32.5844004,45.323664 L32.5844004,32.205732 L40.873229,32.205732 C45.1727983,32.205732 46.9852559,34.1401523 46.9852559,36.2775863 C46.9852559,38.764698 44.7675427,39.9549917 43.5371094,40.4011589 Z M73.3253285,38.2367078 C74.8398267,38.2367078 75.5692869,37.4663361 75.5692869,36.6017908 C75.5692869,35.7364735 74.9208778,35.019364 73.3253285,35.019364 L69.2550181,35.019364 L69.2550181,38.2367078 L73.3253285,38.2367078 Z M76.381342,40.4011589 L81.6681912,45.323664 L77.5847582,45.323664 C76.6785294,45.323664 76.0833826,45.0388272 75.6101984,44.5803094 L72.0130722,41.0904794 C71.9459155,41.0225508 71.8378473,40.9816393 71.7027621,40.9816393 L69.2550181,40.9816393 L69.2550181,45.323664 L65.4286329,45.323664 L65.4286329,32.205732 L73.7166897,32.205732 C78.0170309,32.205732 79.8287166,34.1401523 79.8287166,36.2775863 C79.8287166,38.764698 77.6117753,39.9549917 76.381342,40.4011589 Z M135.741644,45.323664 L135.741644,32.205732 L149.020134,32.205732 L149.020134,35.019364 L139.568801,35.019364 L139.568801,37.2895675 L148.870383,37.2895675 L148.870383,40.1031995 L139.568801,40.1031995 L139.568801,42.5092601 L148.978451,42.5092601 L148.978451,45.323664 L135.741644,45.323664 Z M50.2975453,45.323664 L50.2975453,32.205732 L63.0889571,32.205732 L63.0889571,35.019364 L54.1247024,35.019364 L54.1247024,38.2776193 L62.8867152,38.2776193 L62.8867152,41.0904794 L54.1247024,41.0904794 L54.1247024,45.323664 L50.2975453,45.323664 Z M133.428985,36.4396885 C131.699122,35.5867219 129.75158,34.8989452 127.16875,34.8989452 C124.08572,34.8989452 121.786955,36.4937226 121.786955,38.7106639 C121.786955,40.9816393 124.127403,42.5918551 127.141733,42.5918551 C129.630389,42.5918551 131.604177,41.9550248 133.550176,40.8326596 L133.550176,44.0777924 C131.833436,44.9315309 129.548566,45.5660455 126.978859,45.5660455 C121.732921,45.5660455 117.607805,42.8882706 117.607805,38.7106639 C117.607805,34.6002139 121.814744,31.9625786 126.965737,31.9625786 C129.399586,31.9625786 131.604177,32.4241841 133.428985,33.1667668 L133.428985,36.4396885 Z M113.43097,45.323664 L104.235913,37.5350366 L104.235913,45.323664 L101.004674,45.323664 L101.004674,32.205732 L103.749606,32.205732 L112.822701,39.8731687 L112.822701,32.205732 L116.053939,32.205732 L116.053939,45.323664 L113.43097,45.323664 Z M25.1747835,45.3213483 L29.0019405,45.3213483 L29.0019405,32.205732 L25.1747835,32.205732 L25.1747835,45.3213483 Z" id="Fill-1" fill="#002556"></path>
    </g>
</svg>