<svg xmlns="http://www.w3.org/2000/svg" width="96" height="58" viewBox="0 0 96 58" style="transform-origin: 50%; transform: scale(0.7);">
    <path fill="#27B1FD" fill-rule="evenodd" d="M45.86 3.155V.113H48.9v3.042h3.043v2.93H48.9v3.267H45.86V6.085h-3.042v-2.93h3.042zm-16.79 24v-6.423h36.733v6.423H29.07zM34.48 14.14a5.352 5.352 0 1 1-10.704 0 5.352 5.352 0 0 1 10.704 0zm12.056 0a5.352 5.352 0 1 1-10.704 0 5.352 5.352 0 0 1 10.704 0zm12.17 0a5.352 5.352 0 1 1-10.705 0 5.352 5.352 0 0 1 10.704 0zm12.168 0a5.352 5.352 0 1 1-10.704 0 5.352 5.352 0 0 1 10.704 0zM0 32.9h8.901v9.127l9.014-9.127h9.353L16 44.281 28.845 57.24h-10.93l-8.957-8.957v8.957H0V32.901zm38.31 18.367h15.098v5.971H29.183V33.014h9.127v18.254zm18.253-18.254h15.099l4.394 13.634 4.507-13.634h15.324v24.197h-9.126V39.324L80.563 57.21h-8.901l-6.085-17.887V57.21h-9.014V33.014z"/>
</svg>
