<svg width="72" height="72" viewBox="-9 -9 66 66" fill="none" xmlns="http://www.w3.org/2000/svg">
<rect x="-9" y="-9" width="100%" height="100%" fill="url(#bgGradient)"/>
<defs>
<linearGradient id="bgGradient" x1="0" y1="0" x2="100%" y2="100%">
<stop offset="0%" stop-color="#3B736A"/>
<stop offset="100%" stop-color="#15433C"/>
</linearGradient>
</defs>
<mask id="path-1-inside-1_2048_6773" fill="white">
<path fill-rule="evenodd" clip-rule="evenodd" d="M18.9902 5.00884L23.999 0L29.0079 5.00884L23.999 10.0177L18.9902 5.00884ZM38.5038 14.5063L33.4942 9.49666L26.6081 16.3828C25.167 17.8239 22.831 17.8239 21.3899 16.3828L14.5038 9.49666L9.4942 14.5063L16.3803 21.3924C17.8214 22.8335 17.8214 25.1695 16.3803 26.6105L9.4942 33.4967L14.5038 38.5063L21.3899 31.6201C22.831 30.1791 25.167 30.1791 26.6081 31.6201L33.4942 38.5063L38.5038 33.4967L31.6177 26.6105C30.1766 25.1695 30.1766 22.8335 31.6177 21.3924L38.5038 14.5063ZM23.9986 37.9822L18.9897 42.991L23.9986 47.9999L29.0074 42.991L23.9986 37.9822ZM42.9913 18.9934L37.9824 24.0022L42.9913 29.011L48.0001 24.0022L42.9913 18.9934ZM0 24.002L5.00884 18.9931L10.0177 24.002L5.00884 29.0108L0 24.002Z"/>
</mask>
<path fill-rule="evenodd" clip-rule="evenodd" d="M18.9902 5.00884L23.999 0L29.0079 5.00884L23.999 10.0177L18.9902 5.00884ZM38.5038 14.5063L33.4942 9.49666L26.6081 16.3828C25.167 17.8239 22.831 17.8239 21.3899 16.3828L14.5038 9.49666L9.4942 14.5063L16.3803 21.3924C17.8214 22.8335 17.8214 25.1695 16.3803 26.6105L9.4942 33.4967L14.5038 38.5063L21.3899 31.6201C22.831 30.1791 25.167 30.1791 26.6081 31.6201L33.4942 38.5063L38.5038 33.4967L31.6177 26.6105C30.1766 25.1695 30.1766 22.8335 31.6177 21.3924L38.5038 14.5063ZM23.9986 37.9822L18.9897 42.991L23.9986 47.9999L29.0074 42.991L23.9986 37.9822ZM42.9913 18.9934L37.9824 24.0022L42.9913 29.011L48.0001 24.0022L42.9913 18.9934ZM0 24.002L5.00884 18.9931L10.0177 24.002L5.00884 29.0108L0 24.002Z" fill="url(#paint0_linear_2048_6773)"/>
<path d="M23.999 0L24.3526 -0.353553L23.999 -0.707107L23.6455 -0.353553L23.999 0ZM18.9902 5.00884L18.6366 4.65529L18.2831 5.00884L18.6366 5.36239L18.9902 5.00884ZM29.0079 5.00884L29.3614 5.36239L29.715 5.00884L29.3614 4.65529L29.0079 5.00884ZM23.999 10.0177L23.6455 10.3712L23.999 10.7248L24.3526 10.3712L23.999 10.0177ZM33.4942 9.49666L33.8478 9.14311L33.4942 8.78956L33.1406 9.14311L33.4942 9.49666ZM38.5038 14.5063L38.8574 14.8598L39.2109 14.5063L38.8574 14.1527L38.5038 14.5063ZM26.6081 16.3828L26.2545 16.0292L26.6081 16.3828ZM21.3899 16.3828L21.7435 16.0292L21.3899 16.3828ZM14.5038 9.49666L14.8574 9.14311L14.5038 8.78956L14.1503 9.14311L14.5038 9.49666ZM9.4942 14.5063L9.14065 14.1527L8.78709 14.5063L9.14065 14.8598L9.4942 14.5063ZM9.4942 33.4967L9.14065 33.1431L8.78709 33.4967L9.14065 33.8502L9.4942 33.4967ZM14.5038 38.5063L14.1503 38.8598L14.5038 39.2134L14.8574 38.8598L14.5038 38.5063ZM21.3899 31.6201L21.0364 31.2666L21.3899 31.6201ZM26.6081 31.6201L26.9616 31.2666L26.6081 31.6201ZM33.4942 38.5063L33.1406 38.8598L33.4942 39.2134L33.8478 38.8598L33.4942 38.5063ZM38.5038 33.4967L38.8574 33.8502L39.2109 33.4967L38.8574 33.1431L38.5038 33.4967ZM18.9897 42.991L18.6362 42.6375L18.2826 42.991L18.6362 43.3446L18.9897 42.991ZM23.9986 37.9822L24.3521 37.6287L23.9986 37.2751L23.645 37.6287L23.9986 37.9822ZM23.9986 47.9999L23.645 48.3534L23.9986 48.707L24.3521 48.3534L23.9986 47.9999ZM29.0074 42.991L29.361 43.3446L29.7145 42.991L29.361 42.6375L29.0074 42.991ZM37.9824 24.0022L37.6289 23.6486L37.2753 24.0022L37.6289 24.3557L37.9824 24.0022ZM42.9913 18.9934L43.3448 18.6398L42.9913 18.2862L42.6377 18.6398L42.9913 18.9934ZM42.9913 29.011L42.6377 29.3646L42.9913 29.7181L43.3448 29.3646L42.9913 29.011ZM48.0001 24.0022L48.3537 24.3557L48.7072 24.0022L48.3537 23.6486L48.0001 24.0022ZM5.00884 18.9931L5.36239 18.6396L5.00884 18.286L4.65529 18.6396L5.00884 18.9931ZM0 24.002L-0.353553 23.6484L-0.707107 24.002L-0.353553 24.3555L0 24.002ZM10.0177 24.002L10.3712 24.3555L10.7248 24.002L10.3712 23.6484L10.0177 24.002ZM5.00884 29.0108L4.65529 29.3644L5.00884 29.7179L5.36239 29.3644L5.00884 29.0108ZM23.6455 -0.353553L18.6366 4.65529L19.3438 5.36239L24.3526 0.353553L23.6455 -0.353553ZM29.3614 4.65529L24.3526 -0.353553L23.6455 0.353553L28.6543 5.36239L29.3614 4.65529ZM24.3526 10.3712L29.3614 5.36239L28.6543 4.65529L23.6455 9.66413L24.3526 10.3712ZM18.6366 5.36239L23.6455 10.3712L24.3526 9.66413L19.3438 4.65529L18.6366 5.36239ZM33.1406 9.85022L38.1503 14.8598L38.8574 14.1527L33.8478 9.14311L33.1406 9.85022ZM26.9616 16.7364L33.8478 9.85022L33.1406 9.14311L26.2545 16.0292L26.9616 16.7364ZM21.0364 16.7364C22.6727 18.3727 25.3253 18.3727 26.9616 16.7364L26.2545 16.0292C25.0087 17.2751 22.9893 17.2751 21.7435 16.0292L21.0364 16.7364ZM14.1503 9.85022L21.0364 16.7364L21.7435 16.0292L14.8574 9.14311L14.1503 9.85022ZM9.84775 14.8598L14.8574 9.85022L14.1503 9.14311L9.14065 14.1527L9.84775 14.8598ZM16.7339 21.0389L9.84775 14.1527L9.14065 14.8598L16.0268 21.746L16.7339 21.0389ZM16.7339 26.9641C18.3702 25.3277 18.3702 22.6752 16.7339 21.0389L16.0268 21.746C17.2726 22.9918 17.2726 25.0112 16.0268 26.257L16.7339 26.9641ZM9.84775 33.8502L16.7339 26.9641L16.0268 26.257L9.14065 33.1431L9.84775 33.8502ZM14.8574 38.1527L9.84775 33.1431L9.14065 33.8502L14.1503 38.8598L14.8574 38.1527ZM21.0364 31.2666L14.1503 38.1527L14.8574 38.8598L21.7435 31.9737L21.0364 31.2666ZM26.9616 31.2666C25.3253 29.6302 22.6727 29.6302 21.0364 31.2666L21.7435 31.9737C22.9893 30.7279 25.0087 30.7279 26.2545 31.9737L26.9616 31.2666ZM33.8478 38.1527L26.9616 31.2666L26.2545 31.9737L33.1406 38.8598L33.8478 38.1527ZM38.1503 33.1431L33.1406 38.1527L33.8478 38.8598L38.8574 33.8502L38.1503 33.1431ZM31.2641 26.9641L38.1503 33.8502L38.8574 33.1431L31.9712 26.257L31.2641 26.9641ZM31.2641 21.0389C29.6278 22.6752 29.6278 25.3277 31.2641 26.9641L31.9712 26.257C30.7254 25.0112 30.7254 22.9918 31.9712 21.746L31.2641 21.0389ZM38.1503 14.1527L31.2641 21.0389L31.9712 21.746L38.8574 14.8598L38.1503 14.1527ZM19.3433 43.3446L24.3521 38.3358L23.645 37.6287L18.6362 42.6375L19.3433 43.3446ZM24.3521 47.6463L19.3433 42.6375L18.6362 43.3446L23.645 48.3534L24.3521 47.6463ZM28.6539 42.6375L23.645 47.6463L24.3521 48.3534L29.361 43.3446L28.6539 42.6375ZM23.645 38.3358L28.6539 43.3446L29.361 42.6375L24.3521 37.6287L23.645 38.3358ZM38.336 24.3557L43.3448 19.3469L42.6377 18.6398L37.6289 23.6486L38.336 24.3557ZM43.3448 28.6575L38.336 23.6486L37.6289 24.3557L42.6377 29.3646L43.3448 28.6575ZM47.6466 23.6486L42.6377 28.6575L43.3448 29.3646L48.3537 24.3557L47.6466 23.6486ZM42.6377 19.3469L47.6466 24.3557L48.3537 23.6486L43.3448 18.6398L42.6377 19.3469ZM4.65529 18.6396L-0.353553 23.6484L0.353553 24.3555L5.36239 19.3467L4.65529 18.6396ZM10.3712 23.6484L5.36239 18.6396L4.65529 19.3467L9.66413 24.3555L10.3712 23.6484ZM5.36239 29.3644L10.3712 24.3555L9.66413 23.6484L4.65529 28.6573L5.36239 29.3644ZM-0.353553 24.3555L4.65529 29.3644L5.36239 28.6573L0.353553 23.6484L-0.353553 24.3555Z" fill="url(#paint1_linear_2048_6773)" mask="url(#path-1-inside-1_2048_6773)"/>
<defs>
<linearGradient id="paint0_linear_2048_6773" x1="0" y1="0" x2="47.9981" y2="47.9982" gradientUnits="userSpaceOnUse">
<stop stop-color="#8CBEB3"/>
<stop offset="1" stop-color="#68A8B6"/>
</linearGradient>
<linearGradient id="paint1_linear_2048_6773" x1="0" y1="0" x2="48" y2="48.0001" gradientUnits="userSpaceOnUse">
<stop stop-color="white" stop-opacity="0.4"/>
<stop offset="1" stop-color="white" stop-opacity="0.1"/>
</linearGradient>
</defs>
</svg>
