<svg width="70" height="70" viewBox="0 0 70 70" fill="none" xmlns="http://www.w3.org/2000/svg">
    <rect x="0" y="0" width="100%" height="100%" fill="url(#bgGradient)"/>
    <defs>
    <linearGradient id="bgGradient" x1="0" y1="0" x2="100%" y2="100%">
    <stop offset="0%" stop-color="#3B736A"/>
    <stop offset="100%" stop-color="#15433C"/>
    </linearGradient>
    </defs>
    <path fill-rule="evenodd" clip-rule="evenodd" d="M14.3667 26.9208C13.2578 26.2872 12.5449 25.0991 12.5449 23.7525C12.5449 21.7723 14.2083 20.1089 16.1885 20.1089C16.7429 20.1089 17.2182 20.1881 17.6142 20.4257L32.9013 11.6337C33.6142 11.2377 34.4855 11 35.2776 11C36.1488 11 36.9409 11.2377 37.6538 11.6337L50.6439 19.1584C49.6934 19.7921 48.9805 20.7426 48.5053 21.8515L35.9112 14.5644C35.6736 14.4059 35.436 14.406 35.1983 14.406C34.9607 14.406 34.7231 14.4851 34.4855 14.5644L19.5944 23.1188C19.5944 23.3565 19.6736 23.5149 19.6736 23.7525C19.6736 25.3367 18.6439 26.604 17.2974 27.1584C17.2182 27.1584 17.0598 27.2376 16.9806 27.2376H16.9014C16.8221 27.2376 16.6637 27.3169 16.5845 27.3169H16.5053C16.3469 27.3169 16.2677 27.3169 16.1093 27.3169C15.9509 27.3169 15.7924 27.3169 15.634 27.3169H15.5548C15.4756 27.3169 15.3172 27.3168 15.238 27.2376H15.1588C14.842 27.1584 14.6043 27.0001 14.3667 26.9208ZM57.4557 23.7525C57.4557 24.8614 56.9805 25.8119 56.1884 26.4455V43.6337C56.1884 45.3762 55.2379 46.9603 53.8122 47.8316L40.8221 55.2772C40.8221 54.0891 40.4261 52.901 39.7132 52.0297L52.0696 44.901C52.5449 44.6634 52.7825 44.1881 52.7825 43.6337V27.1584C51.2775 26.6832 50.1686 25.3366 50.1686 23.6732C50.1686 22.8812 50.4063 22.1683 50.8815 21.5347C50.9607 21.4555 51.0399 21.297 51.1191 21.2178C51.3567 20.9802 51.5152 20.8218 51.7528 20.6634C51.7528 20.6634 51.832 20.6634 51.832 20.5842C51.9112 20.505 51.9904 20.505 52.1488 20.4257C52.1488 20.4257 52.228 20.4258 52.228 20.3466C52.3864 20.2674 52.4656 20.2674 52.6241 20.1882C52.9409 20.109 53.3369 20.0297 53.733 20.0297C55.7924 20.1089 57.4557 21.6931 57.4557 23.7525ZM38.9211 55.3564C38.9211 55.5148 38.9211 55.7525 38.8419 55.9109V55.9901C38.5251 57.6534 37.0993 59 35.2776 59C33.6934 59 32.3469 57.9702 31.8716 56.5445L16.8222 47.8316C15.3172 46.9603 14.4459 45.3762 14.4459 43.6337V28.9802C15.0004 29.1386 15.634 29.2971 16.1885 29.2971C16.7429 29.2971 17.2974 29.2178 17.7726 29.0594V43.6337C17.7726 44.1881 18.0895 44.6634 18.4855 44.901L32.5845 53.0594C33.2182 52.2673 34.2479 51.792 35.3568 51.792C36.5449 51.792 37.5746 52.3465 38.2875 53.297C38.2875 53.297 38.2875 53.297 38.2875 53.3762C38.3667 53.4554 38.3667 53.5346 38.4459 53.6138C38.4459 53.6138 38.4459 53.693 38.5251 53.693C38.5251 53.7722 38.6043 53.8515 38.6043 53.8515C38.6043 53.8515 38.6043 53.9307 38.6835 53.9307C38.6835 54.0099 38.7627 54.0891 38.7627 54.0891C38.7627 54.1683 38.7627 54.1683 38.8419 54.2475C38.8419 54.3267 38.9211 54.3267 38.9211 54.4059C38.9211 54.4851 38.9211 54.4851 39.0003 54.5643C39.0003 54.6435 39.0003 54.6436 39.0003 54.7228C39.0003 54.802 39.0003 54.8811 39.0003 54.9603C39.0003 55.0395 39.0003 55.0396 39.0003 55.1188C38.9211 55.1188 38.9211 55.2772 38.9211 55.3564Z" fill="#CAE4DE"/>
    <path d="M46.7632 40.3862L44.3077 39.2773V29.1386C44.3077 28.9802 44.2285 28.8218 43.9909 28.7426L35.6741 25.1782V21.7724C35.6741 21.5347 35.4365 21.297 35.1988 21.297C34.9612 21.297 34.7236 21.5347 34.7236 21.7724V25.1782L26.4068 28.7426C26.2484 28.8218 26.09 28.9802 26.09 29.1386V39.2773L23.6345 40.3862C23.3969 40.4654 23.3177 40.7822 23.3969 41.0198C23.4761 41.2574 23.7929 41.3367 24.0306 41.2575L26.6444 40.1485L35.0404 43.7921C35.1197 43.8713 35.2781 43.8713 35.4365 43.7921L43.8325 40.1485L46.4464 41.2575C46.684 41.3367 46.9216 41.2574 47.08 41.0198C47.08 40.7822 47.0008 40.5446 46.7632 40.3862ZM34.7236 26.208V27.3169C34.7236 27.5545 34.9612 27.7921 35.1988 27.7921C35.4365 27.7921 35.6741 27.5545 35.6741 27.3169V26.208L42.6444 29.2178L35.2781 32.3861L27.9117 29.2178L34.7236 26.208ZM29.4959 38.3267C29.4167 38.0891 29.0998 38.0099 28.8622 38.0891L27.0405 38.8812V29.8515L34.7236 33.1782V42.6039L27.7533 39.5941L29.2583 38.9604C29.4959 38.802 29.6543 38.5643 29.4959 38.3267ZM35.6741 42.6039V33.1782L43.3573 29.8515V38.8812L41.5355 38.0891C41.2978 38.0099 41.0602 38.0891 40.9018 38.3267C40.8226 38.5643 40.9018 38.802 41.1394 38.9604L42.6444 39.5941L35.6741 42.6039Z" fill="#CAE4DE"/>
    <path fill-rule="evenodd" clip-rule="evenodd" d="M34.6612 21.2355C34.792 21.1047 34.9826 21 35.198 21C35.4135 21 35.604 21.1047 35.7348 21.2355C35.8656 21.3664 35.9703 21.5569 35.9703 21.7723V24.9823L44.0967 28.4651C44.258 28.5212 44.3893 28.6122 44.4793 28.7382C44.5712 28.8668 44.6039 29.0094 44.6039 29.1386V39.0855L46.9068 40.1255L46.9271 40.139C47.2701 40.3677 47.3762 40.7136 47.3762 41.0198V41.1097L47.3263 41.1845C47.0987 41.5259 46.7249 41.6636 46.3516 41.5392L46.3404 41.5355L43.833 40.4717L35.5606 44.0616C35.4501 44.1156 35.3285 44.1485 35.2079 44.1485C35.1048 44.1485 34.9846 44.1234 34.8823 44.0476L26.6423 40.4717L24.1349 41.5355L24.1237 41.5392C23.9439 41.5991 23.7393 41.5991 23.5595 41.5392C23.3782 41.4787 23.1912 41.3444 23.1143 41.1137C23.0544 40.9339 23.0544 40.7294 23.1143 40.5496C23.1733 40.3726 23.3026 40.1903 23.5232 40.1101L25.7921 39.0855V29.1386C25.7921 28.9618 25.8781 28.8162 25.9626 28.7176C26.0501 28.6155 26.1618 28.5326 26.2731 28.4769L26.2809 28.473L34.4258 24.9823V21.7723C34.4258 21.5569 34.5305 21.3664 34.6612 21.2355ZM35.0814 21.6556C35.0339 21.703 35.0198 21.7501 35.0198 21.7723V25.3741L26.5322 29.0116C26.4874 29.0351 26.4436 29.0693 26.4137 29.1042C26.3939 29.1272 26.3878 29.1412 26.3862 29.1454V39.469L23.7421 40.6631L23.7276 40.6679C23.7207 40.6702 23.6966 40.6813 23.6779 40.7375C23.6586 40.7953 23.6586 40.868 23.6779 40.9258C23.6802 40.9327 23.6912 40.9569 23.7474 40.9756C23.8023 40.9939 23.8705 40.9949 23.9267 40.9785L26.6449 39.8253L35.2097 43.542L35.2211 43.5535C35.2391 43.5511 35.2674 43.5441 35.3028 43.5264L35.31 43.5228L43.8304 39.8253L46.5489 40.9786C46.6268 41.002 46.7041 40.9923 46.7757 40.9236C46.7592 40.8078 46.7097 40.715 46.6152 40.6456L44.0099 39.469V29.1386C44.0099 29.1093 44.0031 29.0935 43.9959 29.0835C43.9893 29.0742 43.9667 29.0479 43.8962 29.0243L43.8844 29.0204L35.3762 25.3741V21.7723C35.3762 21.7501 35.3621 21.703 35.3147 21.6556C35.2673 21.6081 35.2202 21.594 35.198 21.594C35.1758 21.594 35.1288 21.6081 35.0814 21.6556ZM35.0198 25.752V27.3169C35.0198 27.3391 35.0339 27.3861 35.0813 27.4336C35.1287 27.481 35.1758 27.4951 35.198 27.4951C35.2202 27.4951 35.2673 27.481 35.3147 27.4336C35.3622 27.3861 35.3762 27.3391 35.3762 27.3169V25.7561L43.3941 29.2183L35.2772 32.7094L27.1677 29.2214L35.0198 25.752ZM35.9703 26.6597V27.3169C35.9703 27.5323 35.8656 27.7228 35.7348 27.8536C35.604 27.9844 35.4134 28.0891 35.198 28.0891C34.9826 28.0891 34.7921 27.9844 34.6613 27.8536C34.5305 27.7228 34.4258 27.5323 34.4258 27.3169V26.6639L28.6542 29.2141L35.2772 32.0628L41.8931 29.2172L35.9703 26.6597ZM26.7426 29.3992L35.0198 32.9831V43.0557L26.9953 39.5906L29.1141 38.6984C29.1936 38.6416 29.2376 38.5872 29.2544 38.5503C29.2621 38.5333 29.2619 38.525 29.2618 38.5226C29.2617 38.5209 29.2611 38.5111 29.2479 38.4914L29.2259 38.4583L29.2133 38.4206C29.211 38.4137 29.2 38.3896 29.1437 38.3709C29.0892 38.3527 29.0215 38.3517 28.9654 38.3678L26.7426 39.3342V29.3992ZM43.6535 29.3992V39.3342L41.4302 38.3676C41.341 38.3412 41.2528 38.3582 41.173 38.4574C41.1565 38.5415 41.1822 38.6241 41.2829 38.6988L43.4008 39.5906L35.3762 43.0557V32.9831L43.6535 29.3992ZM27.3367 30.3038V38.4282L28.755 37.8115L28.7675 37.8073C28.9472 37.7474 29.1518 37.7474 29.3315 37.8073C29.5027 37.8643 29.6788 37.9871 29.7628 38.1946C29.8825 38.3959 29.8794 38.6109 29.7952 38.7961C29.7144 38.9739 29.5667 39.1112 29.4222 39.2075L29.3987 39.2232L28.5097 39.5975L34.4258 42.1521V33.3732L27.3367 30.3038ZM35.9703 33.3732V42.1521L41.8863 39.5975L40.9973 39.2232L40.9738 39.2075C40.6324 38.9799 40.4948 38.6059 40.6192 38.2327L40.6318 38.195L40.6539 38.1619C40.8815 37.8204 41.2554 37.6829 41.6286 37.8073L41.641 37.8115L43.0594 38.4282V30.3038L35.9703 33.3732Z" fill="#CAE4DE"/>
</svg>
