<svg  viewBox="0 0 128 128"  xmlns="http://www.w3.org/2000/svg">
        <path d="M104 0H0L9.65595e-06 24L0 128H24H128V104V0H104Z" fill="black"/>
        <path d="M25.5196 45.5376C26.0658 40.2891 28.6695 35.5662 32.6855 32.3073C36.7015 29.0483 41.8592 27.4728 47.1078 28.019C51.9468 28.5225 56.4271 30.8025 59.6825 34.418L93.5814 72.0665C97.1123 75.988 98.8746 81.0849 98.604 86.2498C98.3333 91.4147 96.0479 96.2994 92.1264 99.8304C88.5109 103.086 83.8167 104.885 78.9516 104.88L32.9996 104.832C29.697 104.829 26.5817 103.508 24.2953 101.217C22.0089 98.9254 20.6939 95.8074 20.6973 92.5048V92.0441L25.5196 45.5376ZM44.0277 46.2842C43.6818 46.5649 43.4699 46.9492 43.4233 47.3973L39.3331 86.8389L78.9702 86.8799C79.3294 86.8799 79.6776 86.7641 79.9635 86.551L80.082 86.4538C80.4193 86.15 80.6053 85.7525 80.6286 85.3077C80.6519 84.8629 80.5085 84.4482 80.2048 84.1108L46.3059 46.4623C46.0312 46.1572 45.6531 45.9648 45.2448 45.9223C44.7932 45.8753 44.3735 46.0035 44.0277 46.2842Z" fill="#7A1818"/>
        <path d="M32.5306 23.1032L95.0004 23.1676C98.3031 23.171 101.418 24.4924 103.705 26.7835C105.991 29.0747 107.306 32.1926 107.303 35.4953V35.9564L107.255 36.415L100.771 98.8915C100.429 102.176 98.7952 105.14 96.2819 107.179C93.7685 109.219 90.5322 110.208 87.2473 109.866C84.216 109.55 81.4094 108.122 79.3701 105.857L23.3661 43.6585C21.1562 41.2042 20.0504 38.006 20.2198 34.7736C20.3892 31.5413 21.8232 28.4762 24.2776 26.2663C26.5424 24.2271 29.483 23.1 32.5306 23.1032ZM45.2969 41.1152L84.1869 84.3072L88.6649 41.1602L45.2969 41.1152Z" fill="#FF6A33"/>
</svg>
