<svg xmlns="http://www.w3.org/2000/svg" width="46" height="46" viewBox="0 0 46 46">
    <path fill="#243265" fill-rule="evenodd" d="M45.926 23.963C45.926 11.281 35.646 1 22.963 1 10.281 1 0 11.28 0 23.963 0 34.03 6.477 42.582 15.49 45.683c.55-.397 1.182-.887 1.182-1.71 0-1.264-.027-4.513-.027-4.513s-.997.17-2.42.17c-3.583 0-4.717-2.275-5.256-3.548-.702-1.658-1.613-2.436-2.58-3.059-.594-.382-.73-.832-.043-.961 3.172-.595 3.984 3.578 6.102 4.243 1.513.474 3.457.27 4.425-.353.127-1.274 1.051-2.376 1.82-2.957-5.389-.515-8.584-2.376-10.24-5.368l-.178-.335-.417-.95L7.736 26c-.519-1.518-.748-3.258-.748-5.2 0-3.45 1.08-4.751 2.531-6.59-1.11-3.933.399-6.62.399-6.62s2.332-.481 6.742 2.659c2.39-1.019 8.761-1.103 11.777-.226 1.849-1.217 5.234-2.943 6.6-2.46.37.592 1.166 2.318.483 6.11.463.83 2.873 2.602 2.883 7.61-.04 1.846-.233 3.406-.591 4.724l-.2.675s-.113.318-.237.621l-.146.335c-1.598 3.492-4.878 4.796-10.177 5.338 1.717 1.075 2.21 2.424 2.21 6.074s-.05 4.14-.038 4.979c.01.742.604 1.275 1.137 1.68 9.053-3.08 15.565-11.652 15.565-21.746"/>
</svg>
