<svg xmlns="http://www.w3.org/2000/svg" width="26" height="26" viewBox="0 0 26 26">
    <g fill="none" fill-rule="nonzero">
        <path fill="#243265" d="M0 0h26v26H0z"/>
        <path fill="#FFF" d="M6.205 8.695a.677.677 0 0 0-.22-.57L4.353 6.16v-.293h5.063l3.914 8.584 3.442-8.584H21.6v.293l-1.394 1.337a.408.408 0 0 0-.155.391v9.824c-.025.149.034.3.155.39l1.361 1.338v.293h-6.85v-.293l1.411-1.37c.139-.138.139-.179.139-.391v-7.94L12.345 19.7h-.53L7.248 9.739v6.676a.921.921 0 0 0 .253.767l1.835 2.225v.294H4.133v-.294l1.835-2.225a.888.888 0 0 0 .237-.767v-7.72z"/>
    </g>
</svg>
