<svg width="24" height="25" viewBox="0 0 24 25" fill="none" xmlns="http://www.w3.org/2000/svg">
<path d="M20 13.0498C20 15.2598 19.105 17.2598 17.657 18.7068L19.071 20.1208C20.0009 19.1932 20.7384 18.091 21.2411 16.8776C21.7437 15.6641 22.0016 14.3633 22 13.0498C22 7.5268 17.523 3.0498 12 3.0498C6.47701 3.0498 2.00001 7.5268 2.00001 13.0498C1.99839 14.3633 2.25631 15.6641 2.75897 16.8776C3.26162 18.091 3.99909 19.1932 4.92901 20.1208L6.34301 18.7068C5.41277 17.7765 4.72632 16.6312 4.34444 15.3722C3.96257 14.1133 3.89707 12.7796 4.15374 11.4893C4.41041 10.199 4.98133 8.9919 5.81594 7.97494C6.65054 6.95797 7.72306 6.16254 8.9385 5.65908C10.1539 5.15562 11.4748 4.95968 12.784 5.08861C14.0933 5.21754 15.3505 5.66737 16.4444 6.39825C17.5383 7.12912 18.4351 8.11849 19.0553 9.27872C19.6755 10.4389 20 11.7342 20 13.0498ZM15.293 8.3428L10.793 12.8428L12.207 14.2568L16.707 9.7568L15.293 8.3428Z" fill="white"/>
</svg>
