<?xml version="1.0" encoding="utf-8"?>
<!-- Generated by IcoMoon.io -->
<!DOCTYPE svg PUBLIC "-//W3C//DTD SVG 1.1//EN" "http://www.w3.org/Graphics/SVG/1.1/DTD/svg11.dtd">
<svg version="1.1" xmlns="http://www.w3.org/2000/svg" xmlns:xlink="http://www.w3.org/1999/xlink" width="512" height="512" viewBox="0 0 512 512" style=" transform-origin: 50%; transform: scale(0.8);">
<g>
</g>
	<path d="M141.578 298.957c0-45.65 26.778-84.941 65.465-103.301-123.003 22.303-203.417 112.681-203.417 112.681 76.718 63.365 149.197 91.197 214.016 98.334-44.298-15.79-76.063-57.989-76.063-107.714z" fill="#e15799" />
	<path d="M508.375 299.223c-74.158-66.12-144.875-95.867-208.702-104.079 41.543 17.162 70.748 57.989 70.748 105.728 0 48.313-30.003 89.508-72.315 106.332 127.693-18.483 210.268-107.981 210.268-107.981z" fill="#e15799" />
	<path d="M314.358 240.118c0.236 1.372 0.44 2.744 0.44 4.157 0 14.981-12.144 27.095-27.115 27.095-14.94 0-27.095-12.114-27.095-27.095 0-11.182 6.789-20.746 16.425-24.914-6.717-1.72-13.762-2.744-21.043-2.744-46.663 0-84.5 37.847-84.5 84.531 0 46.663 37.837 84.531 84.5 84.531 46.725 0 84.541-37.868 84.541-84.531 0.010-24.023-10.066-45.639-26.153-61.031z" fill="#e15799" />
	<path d="M354.241 188.303l26.682-54.505 27.602 13.512-26.682 54.505-27.602-13.512z" fill="#e15799" />
	<path d="M127.658 200.833l-23.756-51.3 27.876-12.909 23.756 51.3-27.876 12.909z" fill="#e15799" />
	<path d="M231.391 177.43l0.85-72.635 30.717 0.359-0.85 72.635-30.717-0.359z" fill="#e15799" />
</svg>
