<svg xmlns="http://www.w3.org/2000/svg" width="80" height="61" viewBox="0 0 80 61">
    <g fill="none" fill-rule="evenodd">
        <path fill="#E535AB" d="M8.849 38.1L0 42.525l19.91 11.06 8.85-4.424z"/>
        <path fill="#CACACA" d="M23.295 48.866l.01-.006-.01-.005.01-.005-.01-.004.01-.005-.01-.005.01-.004-.01-.006.01-.004-.01-.005.01-.005-.01-.005.01-.005-.01-.006.01-.004-.01-.005.01-.004-.01-.006.01-.004-.01-.005.01-.005-.01-.005.01-.004-.01-.006.01-.005-.01-.005.01-.004-.01-.005.01-.005-.01-.005.01-.004-.01-.006.01-.004-.01-.005.01-.005-.01-.006.01-.004-.01-.005.01-.004-.01-.006.01-.004-.01-.005.01-.005-.01-.005.01-.005L8.63 40.558l-3.515 1.744.01.005-.01.004.01.005-.01.005.01.005-.01.005.01.004-.01.005.01.005-.01.005.01.005-.01.005.01.005-.01.005.01.005-.01.005.01.004-.01.005.01.005-.01.005.01.005-.01.005.01.005-.01.004.01.006-.01.004.01.005-.01.005.01.004-.01.005.01.005-.01.005.01.005-.01.005.01.005-.01.005.01.005-.01.004.01.006-.01.004.01.005-.01.005.01.005-.01.005.01.005-.01.005.01.005-.01.004.01.005-.01.005.01.005-.01.005.01.004-.01.005.01.005-.01.005.01.006-.01.004.01.005-.01.004.01.006-.01.004.01.005-.01.005.01.005-.01.004.01.006-.01.005.01.005-.01.004.01.005-.01.005.01.005-.01.004.01.006-.01.005.01.004-.01.005.01.005-.01.005.01.005-.01.004.01.006-.01.004.01.005-.01.005.01.005-.01.005.01.004-.01.005.01.006-.01.005.01.005-.01.004.01.005-.01.005.01.005-.01.004.01.006-.01.004.01.005-.01.005.01.005-.01.005.01.005-.01.004.01.006-.01.004.01.005-.01.005.01.005-.01.004.01.006-.01.005.01.005-.01.004.01.005-.01.005.01.005-.01.004.01.006-.01.004.01.005-.01.005.01.005-.01.005.01.005-.01.004.01.006-.01.004.01.005-.01.005.01.005-.01.004.01.005-.01.005.01.006-.01.005.01.004-.01.005.01.005-.01.005.01.005-.01.004.01.005-.01.005.01.005-.01.005.01.005-.01.005.01.005-.01.004.01.006-.01.004.01.005-.01.004.01.006-.01.004.01.005-.01.005.01.005-.01.005.01.005-.01.004.01.006-.01.004.01.006-.01.004.01.005-.01.005.01.005-.01.005.01.005-.01.005.01.005-.01.004.01.005-.01.005.01.005-.01.004.01.005-.01.005.01.005-.01.005.01.005-.01.004.01.005-.01.005.01.005-.01.005.01.005-.01.004.01.006-.01.004.01.006-.01.004.01.006-.01.004.01.006-.01.004.01.005-.01.005 14.676 8.089 3.514-1.744-.01-.005.01-.005-.01-.005.01-.004-.01-.006.01-.004-.01-.005.01-.004-.01-.006.01-.005-.01-.006.01-.004-.01-.005.01-.004-.01-.005.01-.005-.01-.005.01-.005-.01-.005.01-.005-.01-.005.01-.005-.01-.004.01-.005-.01-.005.01-.006-.01-.004.01-.005-.01-.005.01-.005-.01-.004.01-.005-.01-.005.01-.005-.01-.005.01-.004-.01-.006.01-.004-.01-.005.01-.005-.01-.005.01-.005-.01-.005.01-.005-.01-.005.01-.004-.01-.005.01-.005-.01-.005.01-.004-.01-.006.01-.005-.01-.004.01-.004-.01-.007.01-.004-.01-.005.01-.005-.01-.005.01-.004-.01-.005.01-.005-.01-.005.01-.006-.01-.003.01-.005-.01-.006.01-.005-.01-.004.01-.005-.01-.005.01-.005-.01-.005.01-.005-.01-.005.01-.005-.01-.004.01-.005-.01-.006.01-.004-.01-.005.01-.004-.01-.006.01-.004-.01-.005.01-.005-.01-.005.01-.005-.01-.005.01-.005-.01-.005.01-.004-.01-.005.01-.005-.01-.005.01-.004-.01-.006.01-.004-.01-.005.01-.005-.01-.006.01-.004-.01-.005.01-.004-.01-.006.01-.004-.01-.005.01-.005-.01-.005.01-.005-.01-.005.01-.005-.01-.005.01-.005-.01-.005.01-.004-.01-.005.01-.005-.01-.005.01-.004-.01-.005.01-.005-.01-.006.01-.004-.01-.006.01-.004-.01-.005.01-.004-.01-.006.01-.004-.01-.005.01-.005-.01-.005.01-.004-.01-.006.01-.005-.01-.005.01-.004-.01-.005.01-.005-.01-.005.01-.005-.01-.005.01-.005-.01-.004.01-.005-.01-.005.01-.005-.01-.005.01-.004-.01-.006.01-.004-.01-.005.01-.005-.01-.005.01-.005z"/>
        <path fill="#F249C3" d="M0 42.525v6.636l19.91 11.062v-6.637z"/>
        <path fill="#E535AB" d="M8.849 15.978l19.91-11.061 19.91 11.061L28.76 27.04z"/>
        <path fill="#F249C3" d="M28.76 49.161V27.04L8.848 15.98V38.1z"/>
        <path fill="#F7F7F7" d="M10.815 36.944V19.32l15.978 8.876v17.623z"/>
        <path fill="#D128A1" d="M48.67 15.978L28.76 27.04v22.122l-8.85 4.425v6.637l28.76-15.487z"/>
        <path fill="#FFF" d="M35.02 41.598c.014-.063.028-.126.036-.187l8.732-4.344.005.016-3.273 3.922c-.61-.238-1.455.163-1.98.98-.02.032-.035.066-.054.1l-3.466-.487zm-.392-6.876c.38-.593.489-1.25.342-1.74l3.278-3.522.034.016-4.375 10.498-.02-4.49a2.58 2.58 0 0 0 .74-.762zm8.963-5.903c-.188.676-.055 1.317.396 1.606.209.134.46.17.72.13l.095 4.016c-.04.03-.081.06-.121.093l-4.412-5.958c.036-.049.075-.092.108-.144.066-.104.123-.211.172-.32l3.042.577zm-8.613 11.826a.998.998 0 0 0-.366-.49l4.42-10.603c.244-.05.49-.164.72-.33l4.438 5.991c-.017.025-.036.046-.053.072-.21.329-.341.675-.395 1l-8.764 4.36zm11.255-6.298c-.205-.132-.456-.16-.718-.11l-.094-3.977c.263-.18.512-.429.712-.74.573-.893.542-1.935-.07-2.329-.612-.393-1.573.013-2.146.905-.01.016-.016.031-.026.047l-3.144-.595c.068-.576-.114-1.104-.534-1.373-.663-.426-1.665-.047-2.238.846-.423.657-.492 1.408-.236 1.93l-3.2 3.435c-.612-.375-1.56.03-2.128.913-.574.894-.543 1.936.07 2.329.199.129.437.164.685.133l.021 4.521c-.274.18-.533.438-.74.76-.575.895-.543 1.937.07 2.33.61.394 1.572-.011 2.145-.906.038-.058.066-.118.098-.177l3.44.483c-.163.651-.028 1.262.41 1.542.61.394 1.572-.011 2.146-.905.424-.662.515-1.405.285-1.906l3.23-3.87c.587.262 1.443-.15 1.981-.99.574-.893.566-1.92-.019-2.296z"/>
        <path fill="#262728" fill-opacity=".134" d="M28.76 11.554c3.664 0 6.636 1.485 6.636 3.318s-2.972 3.319-6.637 3.319c-3.665 0-6.637-1.486-6.637-3.319s2.972-3.318 6.637-3.318"/>
        <path fill="#112F44" d="M26.547 11.751v3.121c0 .61.99 1.106 2.213 1.106 1.22 0 2.212-.495 2.212-1.106v-3.12h-4.425z"/>
        <path fill="#112F44" d="M22.122 2.705l4.425 9.955c0 .611.99 1.107 2.213 1.107 1.22 0 2.212-.496 2.212-1.107l4.425-9.955H22.122z"/>
        <path fill="#194360" d="M35.396 2.95c0 1.629-2.972 2.948-6.637 2.948-3.665 0-6.637-1.32-6.637-2.948 0-1.63 2.972-2.95 6.637-2.95 3.665 0 6.637 1.32 6.637 2.95"/>
        <path fill="#112F44" d="M28.76 5.285c-1.673 0-3.233-.3-4.394-.845-.93-.436-1.506-1.006-1.506-1.49 0-.485.576-1.056 1.506-1.491 1.16-.545 2.721-.845 4.393-.845 1.672 0 3.232.3 4.393.845.929.435 1.506 1.006 1.506 1.49 0 .485-.577 1.055-1.506 1.491-1.16.544-2.721.845-4.393.845"/>
        <path fill="#F7F7F7" d="M5.115 42.302l3.515-1.744 14.675 8.088-3.514 1.745z"/>
    </g>
</svg>
