<svg width="50" height="54" viewBox="0 0 50 54" fill="none" xmlns="http://www.w3.org/2000/svg">
    <path fill-rule="evenodd" clip-rule="evenodd" d="M0 14.4339C0 15.933 0.793641 17.2557 2.02821 17.9612C2.24183 18.1036 2.51296 18.1885 2.74872 18.2624C2.80492 18.28 2.85912 18.297 2.91004 18.3139H2.99826C3.08642 18.4021 3.26269 18.4021 3.3509 18.4021H3.35096H3.43918H3.96826H4.40917H4.49739C4.54148 18.4021 4.60761 18.3801 4.67374 18.358C4.73987 18.336 4.806 18.3139 4.85009 18.3139H4.93831C4.9824 18.3139 5.04853 18.2919 5.11466 18.2699C5.18079 18.2478 5.24692 18.2258 5.29101 18.2258C6.79013 17.6085 7.93651 16.1975 7.93651 14.4339C7.93651 14.3016 7.91447 14.1914 7.89243 14.0811C7.87039 13.9709 7.84835 13.8607 7.84835 13.7284L24.4268 4.20459C24.6914 4.1164 24.956 4.02826 25.2205 4.02826H25.2207C25.4852 4.02826 25.7496 4.02826 26.0141 4.20459L40.0353 12.3174C40.5644 11.0829 41.3581 10.0247 42.4163 9.31927L27.9542 0.941839C27.1605 0.500922 26.2787 0.236328 25.3087 0.236328C24.4268 0.236328 23.4568 0.500922 22.6632 0.941839L5.64377 10.7302C5.20285 10.4656 4.67376 10.3774 4.05647 10.3774C1.85189 10.3774 0 12.2293 0 14.4339ZM48.5891 17.4321C49.471 16.7266 50.0001 15.6684 50.0001 14.4339C50.0001 12.2293 48.1482 10.3774 45.8554 10.3774C45.4145 10.3774 44.9736 10.4656 44.6209 10.5538C44.5327 10.5978 44.4666 10.6199 44.4004 10.642C44.3343 10.664 44.2682 10.6861 44.18 10.7302C44.18 10.8184 44.0918 10.8183 44.0918 10.8183C44.0244 10.852 43.9699 10.8729 43.9233 10.8906C43.848 10.9194 43.7935 10.9402 43.739 10.9947C43.739 11.0829 43.6508 11.0829 43.6508 11.0829C43.3863 11.2593 43.2099 11.4356 42.9454 11.7002C42.9013 11.7443 42.8572 11.8104 42.8131 11.8766C42.769 11.9427 42.7249 12.0088 42.6808 12.0529C42.1517 12.7584 41.8872 13.552 41.8872 14.4339C41.8872 16.2857 43.1217 17.7848 44.7972 18.3139V36.5679C44.7972 37.1852 44.5327 37.7144 44.0036 37.9789L30.2469 45.9154C31.0406 46.8854 31.4815 48.2082 31.4815 49.5309L45.9436 41.2417C47.5309 40.2716 48.5891 38.5079 48.5891 36.5679V17.4321ZM29.3651 49.7074V49.7072C29.3651 49.5309 29.3651 49.4428 29.4533 49.4428V49.2663V49.0018V48.8254L29.4531 48.8252C29.3651 48.7372 29.3651 48.7372 29.3651 48.6491C29.3651 48.605 29.3431 48.5829 29.321 48.5609C29.299 48.5388 29.2769 48.5168 29.2769 48.4727C29.2262 48.422 29.2047 48.4004 29.1955 48.3745C29.1888 48.3554 29.1888 48.3338 29.1888 48.2963C29.1888 48.2963 29.1006 48.2082 29.1006 48.12C29.0124 48.12 29.0124 48.0317 29.0124 48.0317C29.0124 48.0317 28.9242 47.9436 28.9242 47.8554C28.836 47.8554 28.836 47.7673 28.836 47.7673C28.7919 47.7232 28.7699 47.6791 28.7478 47.635C28.7258 47.5909 28.7037 47.5468 28.6596 47.5027V47.4145C27.866 46.3563 26.7196 45.739 25.3968 45.739C24.1623 45.739 23.0159 46.2681 22.3104 47.1499L6.61376 38.0671C6.17284 37.8025 5.82014 37.2734 5.82014 36.6562V20.4304C5.29104 20.6067 4.67376 20.6949 4.05647 20.6949C3.43919 20.6949 2.73371 20.5186 2.11643 20.3422V36.6562C2.11643 38.5962 3.08644 40.3598 4.76193 41.3298L21.5168 51.03C22.0459 52.6173 23.545 53.7637 25.3087 53.7637C27.3369 53.7637 28.9242 52.2646 29.2769 50.4128V50.3246C29.3651 50.1483 29.3651 49.8837 29.3651 49.7074ZM36.6143 17.3449C36.6143 17.4338 36.6143 17.4339 36.7033 17.6119C36.7033 17.7009 36.7033 17.7899 36.8813 17.7009V32.3877C36.8813 32.7437 36.6142 33.0108 36.3472 33.1888L21.6604 41.1107L21.66 41.1111C21.5714 41.1997 21.5713 41.1998 21.4824 41.1998H21.3934H21.1264H20.8593H20.7703C20.6813 41.1108 20.5923 41.1107 20.5923 41.1107L10.4451 35.5031C10.178 35.3251 10 35.058 10 34.702V31.3195V31.2305V31.0525V30.9635C10.089 30.9635 10.089 30.8745 10.089 30.8745L10.178 30.7855L10.267 30.6965C10.267 30.6075 10.3561 30.6075 10.3561 30.6075C10.3561 30.5185 10.4451 30.5185 10.4451 30.5185L14.4505 28.5602V17.8789V17.6119V17.5228C14.5396 17.4338 14.5395 17.3448 14.5395 17.3448L14.6286 17.2558L14.7176 17.1669C14.7176 17.0778 14.8066 17.0778 14.8066 17.0778L14.8956 16.9888L22.0165 13.0723L21.7495 12.3602C21.3934 12.0932 21.2154 11.6481 21.2154 11.2031V11.1141C21.2154 11.0251 21.2154 10.847 21.3044 10.758C21.6604 9.60086 23.3516 8.7998 25.5769 8.7998C27.8022 8.7998 29.4934 9.60086 29.8494 10.758C29.9384 10.847 29.9385 10.936 29.9385 11.1141V11.2031C29.9385 11.6481 29.7604 12.0042 29.4044 12.3602L29.1373 13.0723L36.2582 16.9888L36.3472 17.0778C36.3472 17.1668 36.4362 17.1669 36.4362 17.1669L36.5252 17.2558C36.6143 17.2558 36.6143 17.3448 36.6143 17.3448V17.3449ZM24.3307 13.6064L24.5088 13.9624L25.3099 15.7426H25.8439L26.8231 13.6064C26.4671 13.6954 26.0222 13.6954 25.5772 13.6954H25.5769H25.5766C25.1316 13.6954 24.6867 13.6954 24.3307 13.6064ZM28.0692 11.2031C27.7132 11.025 26.9121 10.669 25.6659 10.669C24.3307 10.669 23.5297 11.025 23.2626 11.2031C23.6187 11.3811 24.4197 11.7371 25.6659 11.7371C27.0011 11.7371 27.8022 11.3811 28.0692 11.2031ZM23.6187 16.4547L22.9066 14.8525L17.4769 17.8789L25.6659 22.4184L33.8549 17.8789L28.4253 14.8525L27.7132 16.4547C27.5352 17.1668 26.734 17.7009 25.6659 17.7009C24.5978 17.7009 23.7967 17.1668 23.6187 16.4547ZM24.6868 24.1096L16.4088 19.4811V28.5602L24.6868 33.1888V24.1096ZM11.8692 34.2569L20.1473 38.8854V37.6394L11.8692 33.0107V34.2569ZM16.3198 33.3668L21.1264 36.0371L23.6187 34.791L15.4296 30.2514L12.9373 31.4976L16.3198 33.3668ZM22.1055 38.8854L34.8341 32.0316V19.5701L26.556 24.1986V34.8799V34.969V35.147V35.236C26.467 35.236 26.467 35.325 26.467 35.325C26.378 35.325 26.378 35.4141 26.378 35.4141L26.289 35.5031C26.289 35.5921 26.2 35.5921 26.2 35.5921C26.2 35.6811 26.111 35.6811 26.111 35.6811L22.1055 37.6394V38.8854Z" fill="url(#paint0_linear)"/>
    <defs>
        <linearGradient id="paint0_linear" x1="23.4407" y1="8.7998" x2="44.5" y2="46.5" gradientUnits="userSpaceOnUse">
            <stop stop-color="#E535AB"/>
            <stop offset="1" stop-color="#1BCBE2"/>
        </linearGradient>
    </defs>
</svg>
