<?xml version="1.0" encoding="UTF-8" standalone="no"?>
<svg width="256px" height="256px" viewBox="0 0 256 256" version="1.1" xmlns="http://www.w3.org/2000/svg" xmlns:xlink="http://www.w3.org/1999/xlink" preserveAspectRatio="xMidYMid">
	<g>
		<path d="M70.534,69.696 L53.988,53.15 L54.058,172.75 L54.256,178.34 C54.338,180.97 54.826,183.938 55.64,187.014 L186.744,233.244 L219.516,218.724 L219.528,218.684 L70.534,69.696" fill="#00D2B8"></path>
		<path d="M55.64,187.014 L55.648,187.022 C55.64,186.968 55.612,186.908 55.612,186.852 C55.612,186.908 55.62,186.96 55.64,187.014 L55.64,187.014 Z M219.516,218.724 L186.744,233.244 L55.648,187.022 C58.152,196.63 63.696,207.43 69.662,213.336 L112.446,255.876 L207.576,256 L219.528,218.684 L219.516,218.724 L219.516,218.724 Z" fill="#55DDCA"></path>
		<path d="M3.034,130.116 C-1.202,134.638 0.902,143.966 7.722,150.838 L37.14,180.5 L55.64,187.014 C54.826,183.938 54.338,180.97 54.256,178.34 L54.058,172.75 L53.988,53.15 L3.034,130.116 Z" fill="#0081C6"></path>
		<path d="M187.82,54.686 C184.744,53.9 181.794,53.414 179.12,53.33 L173.212,53.126 L53.988,53.142 L219.544,218.684 L219.558,218.684 L234.098,185.88 L187.82,54.686" fill="#0079B3"></path>
		<path d="M187.67,54.654 C187.734,54.668 187.784,54.686 187.826,54.692 L187.82,54.686 C187.784,54.668 187.734,54.668 187.67,54.654 L187.67,54.654 Z M214.118,68.732 C208.11,62.674 197.452,57.168 187.826,54.692 L234.098,185.88 L219.558,218.684 L219.544,218.684 L255.076,207.336 L255.152,109.92 L214.118,68.732 L214.118,68.732 Z" fill="#00A4E4"></path>
		<path d="M181.338,36.298 L151.684,6.862 C144.826,0.068 135.494,-2.046 130.984,2.178 L53.988,53.142 L173.212,53.126 L179.12,53.33 C181.794,53.414 184.744,53.9 187.82,54.686 L181.338,36.298 L181.338,36.298 Z" fill="#00D2B8"></path>
	</g>
</svg>
