<?xml version="1.0" encoding="utf-8"?>
<svg version="1.1" id="Warstwa_1" xmlns="http://www.w3.org/2000/svg" xmlns:xlink="http://www.w3.org/1999/xlink" x="0px" y="0px"
     viewBox="0 0 67.2 71.2" style="enable-background:new 0 0 67.2 71.2;" xml:space="preserve">
<style type="text/css">
	.st0{fill-rule:evenodd;clip-rule:evenodd;fill:#E535AB;}
	.st1{fill:none;stroke:#E535AB;stroke-width:0.75;}
</style>
  <g>
	<g transform="translate(6.000000, 20.000000)">
		<path id="Fill-2" class="st0" d="M32.5,43.1c0,0.3,0,0.5-0.1,0.7v0.1c-0.4,2.3-2.4,4-4.8,4c-2.1,0-4-1.4-4.6-3.3L2.8,33
			c-2-1.2-3.2-3.3-3.2-5.6V7.6C0.3,7.9,1.1,8,2,8c0.7,0,1.5-0.1,2.2-0.3v19.7c0,0.7,0.4,1.3,1,1.7L24,40c0.9-1,2.2-1.7,3.7-1.7
			c1.6,0,3,0.8,3.9,2c0,0,0,0,0,0.1c0.1,0.1,0.1,0.2,0.2,0.3c0,0,0,0.1,0.1,0.1c0,0.1,0.1,0.2,0.1,0.3c0,0,0,0.1,0.1,0.1
			c0,0.1,0.1,0.2,0.1,0.3s0,0.1,0.1,0.2c0,0.1,0.1,0.2,0.1,0.2c0,0.1,0,0.2,0.1,0.2c0,0.1,0,0.1,0,0.2c0,0.1,0,0.2,0,0.3
			s0,0.1,0,0.2C32.5,42.8,32.5,43,32.5,43.1L32.5,43.1z M57.4,0.5c0,1.5-0.6,2.8-1.7,3.7v23.1c0,2.3-1.2,4.5-3.2,5.6L35.1,43.1
			c0-1.6-0.6-3.2-1.5-4.4L50.2,29c0.6-0.3,1-1,1-1.7V5.2c-2-0.6-3.5-2.5-3.5-4.7c0-1.1,0.4-2.1,1-2.9l0,0c0.1-0.1,0.2-0.3,0.4-0.4
			l0,0c0.3-0.3,0.6-0.5,0.9-0.7c0,0,0.1,0,0.1-0.1c0.1-0.1,0.3-0.2,0.4-0.2c0,0,0.1,0,0.1-0.1C50.8-4,50.9-4,51.1-4.1l0,0
			c0.5-0.1,1-0.2,1.5-0.2C55.2-4.3,57.4-2.2,57.4,0.5L57.4,0.5z M-0.4,4.8C-1.9,4-2.9,2.4-2.9,0.6c0-2.7,2.2-4.9,4.9-4.9
			c0.7,0,1.4,0.2,2,0.4l20.5-11.9c1-0.6,2.1-0.9,3.2-0.9s2.2,0.3,3.2,0.9L48.4-5.7c-1.3,0.9-2.3,2.1-2.8,3.6l-16.9-9.8
			c-0.3-0.2-0.6-0.3-1-0.3c-0.3,0-0.7,0.1-1,0.3L6.7-0.3c0,0.3,0.1,0.6,0.1,0.8c0,2.1-1.3,3.9-3.2,4.6l0,0C3.4,5.2,3.3,5.2,3.1,5.3
			H3c-0.1,0-0.3,0.1-0.4,0.1H2.5c-0.2,0-0.4,0-0.5,0c-0.2,0-0.4,0-0.6,0c-0.1,0-0.1,0-0.2,0S0.9,5.3,0.8,5.3H0.7
			C0.3,5.1-0.1,5-0.4,4.8L-0.4,4.8z"/>
      <g transform="translate(12.304928, 12.345165)">
			<path id="Fill-1" class="st0" d="M16.5,17.5V2L29-3.4v14.8l-3-1.3c-0.4-0.2-0.8,0-1,0.4s0,0.8,0.4,1l2.5,1.1L16.5,17.5z
				 M6.5,10.5c-0.2-0.4-0.6-0.6-1-0.4l-3,1.3V-3.4L15,2v15.4L3.6,12.5l2.5-1.1C6.5,11.3,6.6,10.8,6.5,10.5L6.5,10.5z M15-9.4v1.9
				c0,0.4,0.3,0.8,0.8,0.8c0.4,0,0.8-0.3,0.8-0.8v-1.9L28-4.5L15.8,0.7L3.6-4.5L15-9.4z M34.6,13.9l-4.1-1.8V-4.5
				c0-0.3-0.2-0.6-0.5-0.7L16.4-11v-5.5c0-0.4-0.3-0.8-0.8-0.8c-0.4,0-0.8,0.3-0.8,0.8v5.5L1.4-5.2C1.2-5.1,1-4.8,1-4.5v16.6
				l-4.1,1.8c-0.4,0.2-0.6,0.6-0.4,1c0.2,0.4,0.6,0.6,1,0.4l4.2-1.9l13.7,5.9c0.2,0.1,0.4,0.1,0.6,0l13.7-5.9l4.2,1.9
				c0.4,0.2,0.8,0,1-0.4C35.1,14.5,35,14.1,34.6,13.9L34.6,13.9z"/>
        <path id="Stroke-3" class="st1" d="M16.5,17.5V2L29-3.4v14.8l-3-1.3c-0.4-0.2-0.8,0-1,0.4s0,0.8,0.4,1l2.5,1.1L16.5,17.5z
				 M6.5,10.5c-0.2-0.4-0.6-0.6-1-0.4l-3,1.3V-3.4L15,2v15.4L3.6,12.5l2.5-1.1C6.5,11.3,6.6,10.8,6.5,10.5z M15-9.4v1.9
				c0,0.4,0.3,0.8,0.8,0.8c0.4,0,0.8-0.3,0.8-0.8v-1.9L28-4.5L15.8,0.7L3.6-4.5L15-9.4z M34.6,13.9l-4.1-1.8V-4.5
				c0-0.3-0.2-0.6-0.5-0.7L16.4-11v-5.5c0-0.4-0.3-0.8-0.8-0.8c-0.4,0-0.8,0.3-0.8,0.8v5.5L1.4-5.2C1.2-5.1,1-4.8,1-4.5v16.6
				l-4.1,1.8c-0.4,0.2-0.6,0.6-0.4,1c0.2,0.4,0.6,0.6,1,0.4l4.2-1.9l13.7,5.9c0.2,0.1,0.4,0.1,0.6,0l13.7-5.9l4.2,1.9
				c0.4,0.2,0.8,0,1-0.4C35.1,14.5,35,14.1,34.6,13.9z"/>
		</g>
	</g>
</g>
</svg>
