<svg xmlns="http://www.w3.org/2000/svg" width="35" height="28" viewBox="0 0 35 28">
    <path fill="#E5E5E5" fill-rule="nonzero" d="M34.358 3.306c-1.264.56-2.623.939-4.049 1.108a7.068 7.068 0 0 0 3.1-3.899 14.111 14.111 0 0 1-4.476 1.71A7.042 7.042 0 0 0 23.786 0a7.05 7.05 0 0 0-6.865 8.655c-5.858-.293-11.053-3.1-14.53-7.365a7.019 7.019 0 0 0-.954 3.544A7.049 7.049 0 0 0 4.572 10.7a7 7 0 0 1-3.192-.883v.09a7.053 7.053 0 0 0 5.654 6.91 7.024 7.024 0 0 1-3.183.123 7.056 7.056 0 0 0 6.585 4.895 14.143 14.143 0 0 1-8.755 3.018c-.568 0-1.13-.034-1.681-.1 3.118 2.001 6.824 3.168 10.804 3.168 12.966 0 20.057-10.74 20.057-20.057 0-.305-.007-.61-.02-.911a14.294 14.294 0 0 0 3.517-3.648z"/>
</svg>
