<svg xmlns="http://www.w3.org/2000/svg" width="132" height="40" viewBox="0 0 132 40" style="transform-origin: 50%; transform: scale(0.7);">
    <path fill="#4CCA73" fill-rule="evenodd" d="M53.27 29.158c-.192.54-.426 1.084-.701 1.625h-4.003l-.585 1.806h3.507a17.191 17.191 0 0 1-1.743 2.123c-4.601 4.782-11.155 6.279-14.589 3.337-3.434-2.943-2.482-9.242 2.119-14.022 4.601-4.784 11.155-6.281 14.589-3.338 1.793 1.537 2.39 3.99 1.896 6.663h-4.344l-.585 1.806h4.44zm11.65-3.854h-5.154v3.675h4.963v1.575h-4.963v3.77h5.298V35.9h-7.016V23.732h6.873v1.572zM68.859 35.9V23.731h1.574v12.17h-1.574zm7.682-3.77c.239 1.574 1.145 2.386 2.671 2.386.955 0 1.862-.336 2.816-.955v1.527c-1.002.62-1.861.955-3.197.955-2.482 0-3.866-2.053-3.866-4.248 0-2.433 1.528-4.055 3.723-4.055 2.1 0 3.483 1.431 3.483 4.39h-5.63zm2.194-3.055c-1.239 0-1.955.717-2.147 2.005h4.01c-.049-1.242-.764-2.005-1.863-2.005zm13.434.906c-.907-.62-1.526-.81-2.195-.81-1.48 0-2.434 1.098-2.434 2.72 0 1.671 1.05 2.673 2.673 2.673.667 0 1.335-.191 2.147-.525v1.526c-.573.238-1.576.478-2.386.478-2.387 0-4.057-1.67-4.057-4.01 0-2.623 1.528-4.294 3.914-4.294.953 0 1.574.19 2.338.526v1.716zm7.11-2.098h2.53v1.431h-2.53v4.103c0 .907.668 1.194 1.146 1.194.573 0 1.145-.19 1.812-.572v1.48c-.572.284-1.43.523-1.957.523-1.717 0-2.575-1.096-2.575-2.529v-4.199H96.32v-.191l2.958-2.91v1.67zm8.233 0v1.86c.811-1.431 1.573-2.004 2.337-2.004.62 0 1.24.286 1.908.907l-.86 1.385c-.475-.478-1.096-.765-1.477-.765-1.097 0-1.908 1.098-1.908 2.433V35.9h-1.575v-8.017h1.575zm8.73 8.017v-8.016h1.575V35.9h-1.575zm11.812-5.919c-.906-.62-1.528-.81-2.196-.81-1.479 0-2.432 1.098-2.432 2.72 0 1.671 1.048 2.673 2.671 2.673.667 0 1.335-.191 2.147-.525v1.526c-.572.238-1.574.478-2.386.478-2.387 0-4.056-1.67-4.056-4.01 0-2.623 1.527-4.294 3.914-4.294.954 0 1.574.19 2.338.526v1.716zM14.994 5.865c-3.012-1.338-4.819-1.807-6.56-1.807-1.874 0-3.078.668-3.078 1.673 0 3.145 10.575 2.277 10.575 9.504 0 3.95-3.347 6.293-7.965 6.293-3.682 0-5.488-.938-7.496-2.008v-4.486c2.944 2.01 4.752 2.678 7.094 2.678 2.008 0 3.079-.669 3.079-1.94C10.643 12.424 0 13.631 0 6.2 0 2.585 3.146.242 7.966.242c2.342 0 4.418.468 7.028 1.608v4.015zm14.86 14.725c-1.807.603-3.28.938-4.753.938-4.953 0-8.166-2.879-8.166-7.296 0-4.284 3.348-7.296 7.966-7.296 1.405 0 3.28.335 4.753.937v3.28c-1.205-.603-2.545-1.004-3.615-1.004-2.677 0-4.35 1.605-4.35 4.083 0 2.476 1.673 4.15 4.216 4.15 1.07 0 2.009-.27 3.949-1.003v3.211zM41.3 18.85v-5.622c0-2.075-.869-3.079-2.275-3.079-1.005 0-1.874.669-2.946 2.142v8.97H31.66V.508h4.418v8.77h.067c1.272-1.606 2.677-2.343 4.418-2.343 2.611 0 5.153 1.539 5.153 5.355v5.689c-1.472 0-3.279.536-4.417.87zm6.493-1.137V7.203h4.418v2.009c1.406-1.607 2.81-2.277 4.62-2.277 2.207 0 5.085 1.274 5.085 5.356v8.969h-4.418v-8.567c0-2.009-.936-2.811-2.209-2.811-1.071 0-1.874.602-3.078 2.342v6.159c-1.473-.404-3.011-.537-4.418-.67zM71.088 6.935c4.082 0 7.497 2.88 7.229 8.034H68.275c.135 2.475 1.874 3.948 4.619 3.948 1.74 0 3.147-.535 5.22-2.008v2.746c-2.541 1.873-5.153 1.873-6.291 1.873-4.954 0-8.167-2.88-8.167-7.229 0-4.284 3.081-7.364 7.432-7.364zm-2.745 5.691h6.09c-.133-1.874-1.337-3.08-3.01-3.08-1.742 0-2.88 1.138-3.08 3.08zm11.713 8.634V7.204h4.417V21.26h-4.417zM96.725.51h4.417v20.75h-4.417v-1.136c-1.207 1.004-2.412 1.405-3.884 1.405-3.748 0-6.56-3.08-6.56-7.296 0-4.35 2.812-7.297 6.828-7.297 1.272 0 2.476.336 3.616.872V.509zm0 16.935v-6.76c-.604-.467-1.674-.802-2.477-.802-2.21 0-3.548 1.605-3.548 4.417 0 2.544 1.338 4.284 3.413 4.284.938 0 1.74-.334 2.612-1.14zm13.721-10.509c4.083 0 7.428 2.88 7.229 8.034h-10.108c.202 2.475 1.875 3.948 4.687 3.948 1.74 0 3.145-.535 5.22-2.008v2.746c-2.545 1.873-5.22 1.873-6.292 1.873-4.952 0-8.166-2.88-8.166-7.229 0-4.284 3.078-7.364 7.43-7.364zm-2.743 5.691h6.089c-.201-1.874-1.339-3.08-3.077-3.08-1.741 0-2.813 1.138-3.012 3.08zM124.3 11.22h.067c1.272-2.946 2.744-4.284 4.485-4.284.87 0 1.608.335 2.88 1.273l-1.206 3.882c-1.137-.737-1.874-1.006-2.609-1.006-1.608 0-2.678 1.541-3.617 4.083v6.092h-4.417V7.204h4.417v4.016zM84.675 1.245c.403 1.139-.335 2.677-1.673 3.415-1.34.804-2.745.536-3.147-.535-.402-1.07.337-2.612 1.675-3.414 1.339-.803 2.743-.536 3.145.534zm33.237 23.774c.143.381-.142.908-.621 1.193-.478.286-.954.191-1.098-.192-.142-.38.097-.905.574-1.191.477-.287.953-.192 1.145.19zm-83.241 2.616h3.209l.585-1.806H35.81c-.43.593-.81 1.199-1.138 1.806zm-1.292 3.432h3.65l.587-1.805H33.92a12.14 12.14 0 0 0-.542 1.805zm7.167 4.37c2.138 0 4.754-1.543 5.302-3.61l1.439-5.43c.112-.427.298-.547.833-.553l2.398-.024.605-2.552h-4.568c-2.112 0-4.684 1.627-5.15 3.687l-1.137 4.998c-.09.404-.621.684-1.035.682l-2.574-.025-.733 2.826h4.62z"/>
</svg>
