<svg xmlns="http://www.w3.org/2000/svg" xmlns:xlink="http://www.w3.org/1999/xlink" version="1.1" style="" xml:space="preserve" width="957" height="181"><rect id="backgroundrect" width="100%" height="100%" x="0" y="0" fill="none" stroke="none" class="" style=""/>
<style type="text/css">
	.st0{fill:#33475C;}
	.st1{fill:#E535AB;}
	.st2{fill:#DFE8EF;}
	.st3{fill:url(#SVGID_1_);}
	.st4{fill:url(#SVGID_2_);}
	.st5{fill:#E4EAEF;}
	.st6{fill:#22313F;}
	.st7{fill:url(#SVGID_3_);}
	.st8{fill:#EDEDED;}
	.st9{fill:#F249C3;}
	.st10{fill:#0391E0;}
	.st11{fill:#007ACC;}
	.st12{fill:#006DAA;}
	.st13{enable-background:new    ;}
	.st14{clip-path:url(#SVGID_5_);}
	.st15{fill:#FFFFFF;}
	.st16{clip-path:url(#SVGID_7_);}
	.st17{fill:#112F44;}
	.st18{fill:#194360;}
	.st19{fill:#0E2635;}
	.st20{fill:#F7F7F7;}
	.st21{fill:#D128A1;}
	.st22{fill:#9DB2C9;}
	.st23{fill:url(#SVGID_8_);}
	.st24{fill:url(#SVGID_9_);}
	.st25{fill:url(#SVGID_10_);}
	.st26{opacity:0.1;fill:#262728;enable-background:new    ;}
	.st27{clip-path:url(#SVGID_12_);}
	.st28{clip-path:url(#SVGID_14_);}
	.st29{clip-path:url(#SVGID_16_);}
	.st30{clip-path:url(#SVGID_18_);}
	.st31{clip-path:url(#SVGID_20_);}
	.st32{clip-path:url(#SVGID_22_);}
	.st33{fill:#CBD6E3;}
	.st34{fill:#8EA5BA;}
	.st35{fill:#BF2530;}
	.st36{fill:#CC2733;}
	.st37{fill:#EF4351;}
	.st38{fill:#E10098;}
	.st39{fill:url(#SVGID_23_);}
	.st40{fill:url(#SVGID_24_);}
	.st41{fill:url(#SVGID_25_);}
	.st42{fill:#13344F;}
	.st43{fill:url(#SVGID_26_);}
	.st44{fill:url(#SVGID_27_);}
	.st45{fill:#1B456E;}
	.st46{fill:url(#SVGID_28_);}
	.st47{clip-path:url(#SVGID_30_);}
	.st48{clip-path:url(#SVGID_32_);}
	.st49{fill:url(#SVGID_33_);}
	.st50{fill:url(#SVGID_34_);}
	.st51{fill:url(#SVGID_35_);}
	.st52{fill:url(#SVGID_36_);}
	.st53{fill:url(#SVGID_37_);}
	.st54{fill:url(#SVGID_38_);}
	.st55{fill:url(#SVGID_39_);}
	.st56{fill:url(#SVGID_40_);}
	.st57{fill:url(#SVGID_41_);}
	.st58{fill:url(#SVGID_42_);}
	.st59{fill:url(#SVGID_43_);}
	.st60{fill:url(#SVGID_44_);}
	.st61{clip-path:url(#SVGID_46_);}
	.st62{clip-path:url(#SVGID_48_);}
	.st63{fill:url(#SVGID_49_);}
	.st64{fill:url(#SVGID_50_);}
	.st65{fill:url(#SVGID_51_);}
	.st66{clip-path:url(#SVGID_53_);}
	.st67{clip-path:url(#SVGID_55_);}
	.st68{opacity:0.17;fill:#13344F;}
	.st69{fill:url(#SVGID_56_);}
	.st70{fill:url(#SVGID_57_);}
	.st71{fill:url(#SVGID_58_);}
	.st72{fill:url(#SVGID_59_);}
	.st73{fill:url(#SVGID_60_);}
	.st74{fill:url(#SVGID_61_);}
	.st75{fill:url(#SVGID_62_);}
	.st76{fill:url(#SVGID_63_);}
	.st77{fill:url(#SVGID_64_);}
	.st78{fill:url(#SVGID_65_);}
	.st79{fill:url(#SVGID_66_);}
	.st80{fill:url(#SVGID_67_);}
	.st81{fill:url(#SVGID_68_);}
	.st82{fill:url(#SVGID_69_);}
	.st83{fill:url(#SVGID_70_);}
	.st84{fill:url(#SVGID_71_);}
	.st85{fill:url(#SVGID_72_);}
	.st86{fill:url(#SVGID_73_);}
	.st87{fill:url(#SVGID_74_);}
	.st88{fill:url(#SVGID_75_);}
	.st89{fill:#EF4BC1;}
	.st90{fill:#6D88A0;}
	.st91{fill:url(#SVGID_76_);}
	.st92{fill:url(#SVGID_77_);}
	.st93{fill:url(#SVGID_78_);}
	.st94{fill:#53C1DE;}
	.st95{fill:url(#SVGID_79_);}
	.st96{fill:url(#SVGID_80_);}
	.st97{fill:url(#SVGID_81_);}
	.st98{clip-path:url(#SVGID_83_);}
	.st99{clip-path:url(#SVGID_85_);}
	.st100{clip-path:url(#SVGID_87_);}
	.st101{clip-path:url(#SVGID_89_);}
	.st102{clip-path:url(#SVGID_91_);}
	.st103{clip-path:url(#SVGID_93_);}
	.st104{fill:url(#SVGID_94_);}
	.st105{fill:#13A0B7;}
	.st106{fill:#29AECC;}
	.st107{fill:#12AFC9;}
	.st108{fill:#7DE7F9;}
	.st109{fill:url(#SVGID_95_);}
	.st110{fill:url(#SVGID_96_);}
	.st111{fill:url(#SVGID_97_);}
	.st112{clip-path:url(#SVGID_99_);}
	.st113{clip-path:url(#SVGID_101_);}
	.st114{clip-path:url(#SVGID_103_);}
	.st115{clip-path:url(#SVGID_105_);}
	.st116{clip-path:url(#SVGID_107_);}
	.st117{clip-path:url(#SVGID_109_);}
	.st118{fill:url(#SVGID_110_);}
	.st119{fill:#56D6F4;}
	.st120{fill:#E23237;}
	.st121{opacity:0.6;}
	.st122{fill:#A81B2C;}
	.st123{fill:#93182C;}
</style>


<linearGradient id="SVGID_1_" gradientUnits="userSpaceOnUse" x1="1381.745361328125" y1="621.4967041015625" x2="1260.5802001953125" y2="594.6815795898438" gradientTransform="matrix(1 0 0 1 84 -19)">
	<stop offset="4.810700e-04" style="stop-color:#22313F"/>
	<stop offset="1" style="stop-color:#33475C"/>
</linearGradient>

<linearGradient id="SVGID_2_" gradientUnits="userSpaceOnUse" x1="867.4791259765625" y1="362.0743103027344" x2="1217.608642578125" y2="548.6359252929688" gradientTransform="matrix(1 0 0 1 84 -19)">
	<stop offset="4.810700e-04" style="stop-color:#22313F"/>
	<stop offset="1" style="stop-color:#33475C"/>
</linearGradient>


<linearGradient id="SVGID_3_" gradientUnits="userSpaceOnUse" x1="889.282470703125" y1="581.936279296875" x2="1200.738525390625" y2="581.936279296875" gradientTransform="matrix(1 0 0 1 84 -19)">
	<stop offset="4.810700e-04" style="stop-color:#22313F"/>
	<stop offset="1" style="stop-color:#33475C"/>
</linearGradient>






















<linearGradient id="SVGID_14_" gradientUnits="userSpaceOnUse" x1="1236.6513671875" y1="452.6789855957031" x2="1356.839599609375" y2="452.6789855957031">
	<stop offset="0" style="stop-color:#00FFE2"/>
	<stop offset="0.1506" style="stop-color:#06F5E0"/>
	<stop offset="0.4082" style="stop-color:#15DADC"/>
	<stop offset="0.7394" style="stop-color:#2EADD6"/>
	<stop offset="1" style="stop-color:#4486D0"/>
</linearGradient>




























<g class="currentLayer" style=""><title>Layer 1</title><g id="Layer_1_4_" class="">
	<g id="svg_1">
		<path class="st0" d="M42.10000133514404,110.49998931884761 c-1.8,-1.1 -3.9,-1.7000000000000002 -6.2,-1.7000000000000002 c-3.3,0 -5.9,1.3 -7.9,3.9 c-2,2.6 -3.1,6 -3.1,10.2 c0,4.3 1,7.8 3,10.4 c2,2.6 4.7,4 8,4 c5,0 8.5,-2.4 10.5,-7.3 l19.2,9.6 c-2.5,5.5 -6.5,9.7 -11.9,12.7 c-5.4,3 -11.8,4.5 -19.1,4.5 c-6.9,0 -13,-1.4 -18.2,-4.2 c-5.2,-2.8 -9.2,-6.7 -12.1,-11.8 c-2.8,-5.1 -4.3,-11 -4.3,-17.8 c0,-6.8 1.4,-12.8 4.3,-18 c2.9,-5.2 7,-9.2 12.2,-12 c5.2,-2.8 11.3,-4.3 18.2,-4.3 s13,1.5 18.4,4.5 c5.3,3 9.4,7.3 12.3,12.8 l-18.9,9.3 C45.400001335144,113.19998931884766 43.900001335144,111.59998931884763 42.10000133514404,110.49998931884761 z" id="svg_2"/>
		<path class="st0" d="M124.00000133514402,92.99998931884761 c5.5,2.8 9.8,6.8 12.9,11.9 c3.1,5.1 4.6,11.1 4.6,17.9 c0,6.7 -1.5,12.7 -4.6,17.9 c-3.1,5.2 -7.3,9.2 -12.9,12 c-5.5,2.8 -12,4.2 -19.4,4.2 c-7.4,0 -13.9,-1.4 -19.5,-4.2 s-9.9,-6.8 -12.9,-12 s-4.6,-11.1 -4.6,-17.9 c0,-6.8 1.5,-12.8 4.6,-17.9 c3.1,-5.1 7.4,-9.1 12.9,-11.9 c5.6,-2.8 12.1,-4.2 19.5,-4.2 C112.00000133514402,88.79998931884768 118.50000133514402,90.19998931884766 124.00000133514402,92.99998931884761 zM95.900001335144,112.3999893188477 c-2.2,2.7 -3.3,6.3 -3.3,10.7 c0,4.5 1.1,8 3.3,10.7 c2.2,2.7 5.1,4 8.8,4 c3.6,0 6.5,-1.3 8.7,-4 c2.2,-2.7 3.3,-6.3 3.3,-10.7 c0,-4.4 -1.1,-7.9 -3.3,-10.7 c-2.2,-2.7 -5.1,-4.1 -8.7,-4.1 C101.00000133514402,108.29998931884768 98.00000133514402,109.59998931884763 95.900001335144,112.3999893188477 z" id="svg_3"/>
		<path class="st0" d="M220.20000133514407,65.49998931884761 v90.5 h-24.6 v-7.6 c-2.2,2.7 -4.8,4.8 -7.9,6.2 c-3.1,1.5 -6.5,2.2 -10.2,2.2 c-6.1,0 -11.5,-1.4 -16.1,-4.3 c-4.6,-2.8 -8.2,-6.9 -10.8,-12 c-2.6,-5.2 -3.8,-11.2 -3.8,-18.1 c0,-6.7 1.2,-12.7 3.7,-17.7 s6,-9 10.6,-11.8 c4.6,-2.8 9.8,-4.1 15.9,-4.1 c3.9,0 7.4,0.7000000000000002 10.6,2.2 c3.2,1.5 5.9,3.6 8.2,6.3 v-31.8 L220.20000133514407,65.49998931884761 L220.20000133514407,65.49998931884761 zM192.20000133514407,133.79998931884768 c2.2,-2.7 3.3,-6.3 3.3,-10.8 c0,-4.4 -1.1,-7.9 -3.3,-10.7 c-2.2,-2.7 -5.1,-4.1 -8.7,-4.1 c-3.7,0 -6.6,1.4 -8.8,4.1 c-2.2,2.7 -3.3,6.3 -3.3,10.7 c0,4.5 1.1,8.1 3.3,10.8 c2.2,2.7 5.1,4.1 8.8,4.1 C187.10000133514404,137.8999893188477 190.00000133514402,136.59998931884763 192.20000133514407,133.79998931884768 z" id="svg_4"/>
		<path class="st0" d="M291.500001335144,98.49998931884761 c6.1,6.5 9.1,15.3 9.1,26.5 c0,1.7000000000000002 0,3 -0.1,3.8 h-44.7 c1,3.2 2.6,5.6 4.8,7.3 c2.2,1.7000000000000002 4.9,2.6 8.1,2.6 c5.1,0 10,-2.1 14.6,-6.3 l12.8,12.6 c-3.5,3.9 -7.7,6.9 -12.7,8.9 c-5,2 -10.6,3.1 -16.8,3.1 c-7.3,0 -13.7,-1.4 -19,-4.2 c-5.4,-2.8 -9.5,-6.7 -12.4,-11.8 c-2.9,-5.1 -4.3,-11 -4.3,-17.8 c0,-6.8 1.5,-12.8 4.4,-18 c2.9,-5.2 7,-9.2 12.3,-12 s11.4,-4.3 18.3,-4.3 C276.900001335144,88.79998931884768 285.400001335144,91.99998931884761 291.500001335144,98.49998931884761 zM273.60000133514404,108.59998931884763 c-1.9,-2.1 -4.3,-3.2 -7.3,-3.2 c-2.8,0 -5.2,1 -7.1,3.1 c-1.9,2 -3.1,4.8 -3.8,8.2 h20.9 C276.400001335144,113.3999893188477 275.500001335144,110.79998931884768 273.60000133514404,108.59998931884763 z" id="svg_5"/>
		<path class="st0" d="M402.10000133514404,89.59998931884763 v60.6 c0,6.1 -1.5,11.5 -4.6,16.1 c-3.1,4.6 -7.3,8.2 -12.8,10.7 c-5.5,2.5 -11.9,3.7 -19.1,3.7 c-5.9,0 -11.5,-0.8 -16.8,-2.4 c-5.4,-1.6 -10,-3.7 -13.8,-6.2 l8.2,-16.6 c2.9,2 6.2,3.5 9.8,4.5 c3.6,1.1 7.1,1.6 10.6,1.6 c4.4,0 7.8,-1 10.4,-2.9 c2.5,-1.9 3.8,-4.5 3.8,-7.7 v-6.7 c-4.4,5.3 -10.3,7.9 -17.8,7.9 c-5.4,0 -10.1,-1.3 -14.3,-4 c-4.2,-2.6 -7.5,-6.4 -9.9,-11.3 c-2.4,-4.9 -3.6,-10.5 -3.6,-16.8 c0,-6.2 1.2,-11.7 3.5,-16.4 c2.3,-4.8 5.5,-8.4 9.7,-11 c4.1,-2.6 8.9,-3.9 14.2,-3.9 c7.7,0 13.8,2.7 18.3,8 v-7.2 L402.10000133514404,89.59998931884763 L402.10000133514404,89.59998931884763 zM374.500001335144,130.69998931884766 c2.1,-2.5 3.1,-5.8 3.1,-9.9 c0,-4.2 -1,-7.6 -3.1,-10.1 c-2.1,-2.5 -4.8,-3.8 -8.2,-3.8 c-3.3,0 -6,1.3 -8.1,3.8 s-3.1,5.9 -3.1,10.1 c0,4.1 1,7.4 3.1,9.9 c2.1,2.5 4.8,3.8 8.1,3.8 C369.70000133514407,134.4999893188476 372.500001335144,133.19998931884766 374.500001335144,130.69998931884766 z" id="svg_6"/>
		<path class="st0" d="M472.400001335144,98.49998931884761 c6.1,6.5 9.1,15.3 9.1,26.5 c0,1.7000000000000002 0,3 -0.1,3.8 h-44.7 c1,3.2 2.6,5.6 4.8,7.3 c2.2,1.7000000000000002 4.9,2.6 8.1,2.6 c5.1,0 10,-2.1 14.6,-6.3 l12.8,12.6 c-3.5,3.9 -7.7,6.9 -12.7,8.9 c-5,2 -10.6,3.1 -16.8,3.1 c-7.3,0 -13.7,-1.4 -19,-4.2 c-5.4,-2.8 -9.5,-6.7 -12.4,-11.8 c-2.9,-5.1 -4.3,-11 -4.3,-17.8 c0,-6.8 1.5,-12.8 4.4,-18 c2.9,-5.2 7,-9.2 12.3,-12 c5.3,-2.8 11.4,-4.3 18.3,-4.3 C457.8000013351441,88.79998931884768 466.3000013351441,91.99998931884761 472.400001335144,98.49998931884761 zM454.500001335144,108.59998931884763 c-1.9,-2.1 -4.3,-3.2 -7.3,-3.2 c-2.8,0 -5.2,1 -7.1,3.1 c-1.9,2 -3.1,4.8 -3.8,8.2 h20.9 C457.3000013351441,113.3999893188477 456.400001335144,110.79998931884768 454.500001335144,108.59998931884763 z" id="svg_7"/>
		<path class="st0" d="M550.100001335144,91.79998931884768 c3.6,2.1 6.4,5 8.4,8.9 c2,3.8 3,8.3 3,13.3 v42.1 h-24.6 v-35 c0,-3.2 -0.9,-5.9 -2.6,-7.8 c-1.7000000000000002,-1.9 -4,-2.9 -6.9,-2.9 c-3.3,0.1 -6,1.3 -7.9,3.7 c-1.9,2.4 -2.9,5.4 -2.9,9.3 v32.8 h-24.6 v-66.4 h24.6 v10.2 c2.4,-3.7 5.3,-6.4 8.8,-8.4 c3.5,-1.9 7.6,-2.9 12.3,-2.9 C542.3000013351441,88.59998931884763 546.5000013351441,89.69998931884766 550.100001335144,91.79998931884768 z" id="svg_8"/>
		<path class="st0" d="M630.400001335144,98.49998931884761 c6.1,6.5 9.1,15.3 9.1,26.5 c0,1.7000000000000002 0,3 -0.1,3.8 h-44.7 c1,3.2 2.6,5.6 4.8,7.3 c2.2,1.7000000000000002 4.9,2.6 8.1,2.6 c5.1,0 10,-2.1 14.6,-6.3 l12.8,12.6 c-3.5,3.9 -7.7,6.9 -12.7,8.9 c-5,2 -10.6,3.1 -16.8,3.1 c-7.3,0 -13.7,-1.4 -19,-4.2 c-5.4,-2.8 -9.5,-6.7 -12.4,-11.8 c-2.9,-5.1 -4.3,-11 -4.3,-17.8 c0,-6.8 1.5,-12.8 4.4,-18 c2.9,-5.2 7,-9.2 12.3,-12 c5.3,-2.8 11.4,-4.3 18.3,-4.3 C615.8000013351441,88.79998931884768 624.3000013351441,91.99998931884761 630.400001335144,98.49998931884761 zM612.5000013351441,108.59998931884763 c-1.9,-2.1 -4.3,-3.2 -7.3,-3.2 c-2.8,0 -5.2,1 -7.1,3.1 c-1.9,2 -3.1,4.8 -3.8,8.2 h20.9 C615.3000013351441,113.3999893188477 614.400001335144,110.79998931884768 612.5000013351441,108.59998931884763 z" id="svg_9"/>
		<path class="st0" d="M683.3000013351441,91.59998931884763 c3.5,-2 7.5,-3 12,-3 v22.2 c-1,-0.2 -2.4,-0.2 -4.3,-0.2 c-5.1,0 -9.2,1.2 -12.1,3.7 c-3,2.4 -4.5,5.8 -4.5,10 v31.7 h-24.6 v-66.4 h24.6 v10.5 C676.8000013351441,96.3999893188477 679.8000013351441,93.59998931884763 683.3000013351441,91.59998931884763 z" id="svg_10"/>
		<path class="st0" d="M756.100001335144,94.99998931884761 c5.2,4.3 7.9,10.2 7.9,17.9 v43.1 h-24.2 v-7.3 c-2,2.7 -4.7,4.8 -8,6.2 c-3.3,1.5 -7.1,2.2 -11.4,2.2 c-7,0 -12.5,-1.9 -16.5,-5.7 c-4,-3.8 -6,-8.8 -6,-15.2 c0,-6.4 2.2,-11.4 6.5,-14.8 c4.3,-3.5 10.7,-5.2 19.1,-5.3 h16.2 v-0.2 c0,-2.8 -1,-4.9 -2.9,-6.5 c-2,-1.5 -4.8,-2.3 -8.5,-2.3 c-2.7,0 -5.8,0.4 -9.3,1.2 c-3.5,0.8 -7.1,2 -10.7,3.5 l-6.1,-16.3 c11.2,-4.6 21.9,-6.8 32,-6.8 C743.600001335144,88.59998931884763 750.900001335144,90.79998931884768 756.100001335144,94.99998931884761 zM735.5000013351441,139.09998931884763 c2,-1.2 3.5,-2.9 4.4,-5 v-6 H728.600001335144 c-5,0 -7.4,2.1 -7.4,6.2 c0,2.1 0.7000000000000002,3.7 2,4.9 c1.3,1.1 3.1,1.7000000000000002 5.5,1.7000000000000002 C731.200001335144,140.9999893188476 733.400001335144,140.3999893188477 735.5000013351441,139.09998931884763 z" id="svg_11"/>
		<path class="st0" d="M822.900001335144,152.79998931884768 c-2.4,1.3 -5.2,2.3 -8.6,3.1 c-3.4,0.8 -6.8,1.2 -10.2,1.2 c-7.1,0 -12.7,-1.9 -17,-5.9 c-4.2,-3.9 -6.3,-9.2 -6.3,-16 v-26.5 h-9.1 v-15.7 h9.1 v-18.4 h24.5 v18.4 h16.3 v15.7 h-16.3 v22.7 c0,2.1 0.5,3.7 1.5,4.8 c1,1.1 2.4,1.6 4.2,1.6 c1.5,0 4.1,-0.6000000000000002 7.6,-2 L822.900001335144,152.79998931884768 z" id="svg_12"/>
		<path class="st0" d="M883.900001335144,92.99998931884761 c5.5,2.8 9.8,6.8 12.9,11.9 c3.1,5.1 4.6,11.1 4.6,17.9 c0,6.7 -1.5,12.7 -4.6,17.9 c-3.1,5.2 -7.3,9.2 -12.9,12 c-5.5,2.8 -12,4.2 -19.4,4.2 s-13.9,-1.4 -19.5,-4.2 c-5.6,-2.8 -9.9,-6.8 -12.9,-12 c-3.1,-5.2 -4.6,-11.1 -4.6,-17.9 c0,-6.8 1.5,-12.8 4.6,-17.9 c3.1,-5.1 7.4,-9.1 12.9,-11.9 c5.6,-2.8 12.1,-4.2 19.5,-4.2 S878.400001335144,90.19998931884766 883.900001335144,92.99998931884761 zM855.700001335144,112.3999893188477 c-2.2,2.7 -3.3,6.3 -3.3,10.7 c0,4.5 1.1,8 3.3,10.7 c2.2,2.7 5.1,4 8.8,4 c3.6,0 6.5,-1.3 8.7,-4 c2.2,-2.7 3.3,-6.3 3.3,-10.7 c0,-4.4 -1.1,-7.9 -3.3,-10.7 c-2.2,-2.7 -5.1,-4.1 -8.7,-4.1 C860.900001335144,108.29998931884768 857.900001335144,109.59998931884763 855.700001335144,112.3999893188477 z" id="svg_13"/>
		<path class="st0" d="M945.100001335144,91.59998931884763 c3.5,-2 7.5,-3 12,-3 v22.2 c-1,-0.2 -2.4,-0.2 -4.3,-0.2 c-5.1,0 -9.2,1.2 -12.1,3.7 c-3,2.4 -4.5,5.8 -4.5,10 v31.7 H911.600001335144 v-66.4 h24.6 v10.5 C938.600001335144,96.3999893188477 941.600001335144,93.59998931884763 945.100001335144,91.59998931884763 z" id="svg_14"/>
	</g>
	<g id="svg_15">
		<path class="st1" d="M285.10000133514404,31.199989318847656 c-0.4,0.9 -0.9,1.6 -1.5,2.1 c-0.7000000000000002,0.5 -1.7000000000000002,1.2 -3.1,2 c1.4,0.9 2.4,1.5 3.1,2 c0.7000000000000002,0.5 1.2,1.2 1.5,2.1 c0.4,0.9 0.6000000000000002,2.1 0.6000000000000002,3.6 v16.9 c0,2.2 0.6000000000000002,3.7 1.9,4.7 c1.3,1 3.4,1.5 6.3,1.5 v4.5 h-1.9 c-4,0 -6.8,-0.7000000000000002 -8.6,-2.2 c-1.8,-1.5 -2.7,-3.8 -2.7,-7.1 v-18.5 c0,-1.8 -0.3000000000000001,-3.1 -1,-3.9 c-0.7000000000000002,-0.8 -1.7000000000000002,-1.2 -3,-1.2 h-2 v-4.6 h2 c2.6,0 4,-1.7000000000000002 4,-5.1 v-18.6 c0,-3.3 0.9,-5.7 2.7,-7.2 c1.8,-1.5 4.7,-2.2 8.6,-2.2 h1.9 v4.5 c-2.9,0 -5,0.5 -6.3,1.5 c-1.3,1 -1.9,2.6 -1.9,4.7 v16.9 C285.60000133514404,29.199989318847656 285.400001335144,30.3999893188477 285.10000133514404,31.199989318847656 z" id="svg_16"/>
		<path class="st1" d="M367.70000133514407,32.59998931884763 h5 v20.8 c-2.8,2.3 -6,4.2 -9.6,5.5 c-3.7,1.3 -7.4,2 -11.2,2 c-5.4,0 -10.3,-1.3 -14.8,-3.9 c-4.5,-2.6 -8.1,-6.1 -10.8,-10.6 c-2.6,-4.4 -4,-9.3 -4,-14.5 c0,-5.2 1.3,-10.1 4,-14.5 c2.6,-4.4 6.3,-7.9 10.8,-10.4 c4.6,-2.6 9.6,-3.9 15,-3.9 c3.8,0 7.6,0.7000000000000002 11.2,2 c3.6,1.4 6.8,3.2 9.5,5.7 l-3.2,4 c-2.3,-2.2 -5,-3.8 -8,-5 c-3,-1.2 -6.2,-1.7000000000000002 -9.4,-1.7000000000000002 c-4.4,0 -8.4,1.1 -12.1,3.2 c-3.7,2.1 -6.6,5 -8.8,8.6 c-2.2,3.6 -3.2,7.6 -3.2,11.9 c0,4.4 1.1,8.4 3.2,12.1 c2.2,3.7 5.1,6.5 8.8,8.7 c3.7,2.1 7.8,3.2 12.1,3.2 c2.7,0 5.4,-0.4 8.1,-1.3 c2.7,-0.9 5.2,-2.2 7.4,-3.8 L367.70000133514407,32.59998931884763 L367.70000133514407,32.59998931884763 L367.70000133514407,32.59998931884763 z" id="svg_17"/>
		<path class="st1" d="M399.70000133514407,20.29998931884768 c2.6,-1.7000000000000002 5.8,-2.6 9.5,-2.6 v5.1 c-4.5,-0.1 -8.1,1.3 -10.8,3.9 c-2.7,2.7 -4.3,6.3 -4.7,10.9 v22.7 h-5.4 v-42.5 h5.4 v9.9 C395.000001335144,24.49998931884761 397.000001335144,21.99998931884761 399.70000133514407,20.29998931884768 z" id="svg_18"/>
		<path class="st1" d="M442.500001335144,60.3999893188477 l-0.1,-7.2 c-1.7000000000000002,2.5 -3.9,4.3 -6.6,5.6 c-2.7,1.2 -5.8,1.8 -9.3,1.8 c-2.9,0 -5.4,-0.6000000000000002 -7.6,-1.7000000000000002 c-2.2,-1.1 -3.9,-2.6 -5.1,-4.6 c-1.2,-1.9 -1.8,-4.1 -1.8,-6.6 c0,-3.7 1.4,-6.6 4.3,-8.7 c2.8,-2.1 6.8,-3.2 11.7,-3.2 h14.3 v-3.2 c0,-3.4 -1,-6 -3,-7.8 c-2,-1.8 -4.9,-2.8 -8.8,-2.8 c-4.5,0 -9.1,1.7000000000000002 -13.7,5.1 l-2.4,-3.7 c2.9,-2 5.6,-3.5 8.2,-4.4 c2.6,-0.9 5.6,-1.4 8.9,-1.4 c5.1,0 9.1,1.3 11.9,3.9 c2.8,2.6 4.2,6.1 4.3,10.7 l0.1,28.2 L442.500001335144,60.3999893188477 C442.500001335144,60.3999893188477 442.500001335144,60.3999893188477 442.500001335144,60.3999893188477 zM437.10000133514404,53.3999893188477 c2.6,-1.8 4.4,-4.2 5.3,-7.4 V40.199989318847656 h-13.7 c-3.7,0 -6.6,0.6000000000000002 -8.5,1.9 c-2,1.2 -2.9,3.1 -2.9,5.6 c0,2.5 0.9,4.6 2.8,6.1 c1.9,1.5 4.3,2.3 7.4,2.3 C431.3000013351441,56.09998931884763 434.500001335144,55.199989318847656 437.10000133514404,53.3999893188477 z" id="svg_19"/>
		<path class="st1" d="M495.8000013351441,20.3999893188477 c3.1,1.8 5.5,4.4 7.3,7.6 c1.7000000000000002,3.3 2.6,7 2.6,11.2 c0,4.1 -0.9,7.8 -2.6,11 c-1.7000000000000002,3.2 -4.1,5.8 -7.2,7.6 c-3.1,1.8 -6.6,2.7 -10.6,2.7 c-3.9,0 -7.3,-0.9 -10.2,-2.6 c-2.9,-1.8 -5.2,-4.2 -6.8,-7.4 v25.6 h-5.4 v-58.3 h5.4 v9.8 c1.6,-3.1 3.8,-5.6 6.8,-7.3 c2.9,-1.8 6.3,-2.6 10.2,-2.6 C489.20000133514407,17.699989318847656 492.70000133514407,18.599989318847634 495.8000013351441,20.3999893188477 zM492.400001335144,53.699989318847656 c2.4,-1.4 4.3,-3.4 5.7,-6 c1.4,-2.5 2,-5.4 2,-8.7 c0,-3.2 -0.7000000000000002,-6.1 -2,-8.6 c-1.4,-2.6 -3.2,-4.5 -5.7,-6 c-2.4,-1.4 -5.2,-2.1 -8.2,-2.1 c-3.1,0 -5.8,0.7000000000000002 -8.2,2.1 c-2.4,1.4 -4.3,3.4 -5.7,6 c-1.4,2.5 -2.1,5.4 -2.1,8.6 c0,3.2 0.7000000000000002,6.1 2,8.7 c1.4,2.5 3.2,4.5 5.7,6 c2.4,1.4 5.2,2.2 8.3,2.2 C487.3000013351441,55.79998931884768 490.000001335144,55.09998931884763 492.400001335144,53.699989318847656 z" id="svg_20"/>
		<path class="st1" d="M551.900001335144,22.099989318847634 c2.9,3 4.3,7 4.3,12.1 v26.1 h-5.5 v-24.9 c0,-4 -1.1,-7.1 -3.3,-9.4 c-2.2,-2.3 -5.3,-3.4 -9.3,-3.4 c-4.7,0.1 -8.4,1.6 -11.1,4.7 c-2.7,3.1 -4,7.1 -4,12.1 v20.9 h-5.4 v-60.2 h5.4 v27.8 c2.9,-6.7 8.5,-10.1 16.9,-10.2 C545.0000013351441,17.699989318847656 549.0000013351441,19.099989318847634 551.900001335144,22.099989318847634 z" id="svg_21"/>
		<path class="st1" d="M628.400001335144,65.3999893188477 c-2.2,2 -4.5,3.5 -6.9,4.6 c-2.5,1.1 -4.9,1.6 -7.3,1.6 c-6.2,0 -12.1,-3.6 -17.7,-10.8 h-1.1 c-5.4,0 -10.4,-1.3 -14.9,-3.9 c-4.5,-2.6 -8.1,-6.1 -10.8,-10.6 c-2.7,-4.4 -4,-9.3 -4,-14.5 c0,-5.2 1.3,-10.1 4,-14.5 c2.6,-4.4 6.2,-7.9 10.8,-10.4 c4.5,-2.6 9.5,-3.9 14.9,-3.9 c5.4,0 10.4,1.3 14.9,3.9 c4.5,2.6 8.1,6 10.8,10.4 c2.6,4.4 4,9.2 4,14.5 c0,4.5 -1,8.7 -2.9,12.6 c-1.9,3.9 -4.6,7.2 -8,9.9 c-3.4,2.7 -7.3,4.6 -11.6,5.6 c4.4,4.5 8.5,6.7 12.3,6.7 c3.4,0 7.1,-1.8 11.1,-5.3 L628.400001335144,65.3999893188477 zM574.700001335144,43.8999893188477 c2.2,3.7 5.1,6.6 8.8,8.7 c3.7,2.1 7.7,3.2 12,3.2 c4.3,0 8.2,-1.1 11.9,-3.2 c3.7,-2.1 6.6,-5 8.7,-8.7 c2.2,-3.7 3.2,-7.7 3.2,-12 c0,-4.3 -1.1,-8.3 -3.2,-11.9 c-2.2,-3.6 -5.1,-6.5 -8.7,-8.6 c-3.7,-2.1 -7.6,-3.2 -11.9,-3.2 c-4.3,0 -8.3,1.1 -12,3.2 c-3.7,2.1 -6.6,5 -8.8,8.6 c-2.2,3.6 -3.2,7.6 -3.2,11.9 C571.400001335144,36.199989318847656 572.5000013351441,40.199989318847656 574.700001335144,43.8999893188477 z" id="svg_22"/>
		<path class="st1" d="M638.400001335144,3.5999893188476335 h5.6 v51.7 h25 v5 h-30.6 L638.400001335144,3.5999893188476335 L638.400001335144,3.5999893188476335 L638.400001335144,3.5999893188476335 z" id="svg_23"/>
		<path class="st1" d="M715.5000013351441,33.09998931884763 v4.6 h-2 c-1.4,0 -2.4,0.4 -3,1.2 c-0.7000000000000002,0.8 -1,2.1 -1,3.9 v18.5 c0,3.3 -0.9,5.7 -2.7,7.1 c-1.8,1.5 -4.7,2.2 -8.6,2.2 h-2 v-4.5 c2.9,0 5,-0.5 6.3,-1.5 c1.3,-1 1.9,-2.5 1.9,-4.7 v-16.9 c0,-1.5 0.2,-2.7 0.6000000000000002,-3.6 c0.4,-0.9 0.9,-1.6 1.5,-2.1 c0.6000000000000002,-0.5 1.7000000000000002,-1.2 3.1,-2 c-1.4,-0.8 -2.4,-1.5 -3.1,-2 c-0.7000000000000002,-0.5 -1.2,-1.2 -1.5,-2.1 c-0.4,-0.9 -0.6000000000000002,-2.1 -0.6000000000000002,-3.6 v-16.9 c0,-2.2 -0.6000000000000002,-3.7 -1.9,-4.7 c-1.3,-1 -3.4,-1.5 -6.3,-1.5 v-4.5 h2 c3.9,0 6.8,0.7000000000000002 8.6,2.2 c1.8,1.5 2.7,3.8 2.7,7.2 v18.6 c0,3.4 1.3,5.1 4,5.1 L715.5000013351441,33.09998931884763 L715.5000013351441,33.09998931884763 z" id="svg_24"/>
	</g>
</g></g></svg>