<svg width="456" height="403" viewBox="0 0 456 403" fill="none" xmlns="http://www.w3.org/2000/svg">
    <g filter="url(#filter0_b)">
        <path d="M309.197 337.171L405.803 291.026L434.128 350.192C434.634 351.204 434.634 352.468 433.622 353.858L403.527 397.727C401.63 400.509 396.825 402.658 392.779 402.279L341.567 398.36C339.544 398.233 338.153 397.475 337.521 396.337L309.197 337.171Z" fill="url(#paint0_linear)" fill-opacity="0.7"/>
    </g>
    <path d="M375.203 338.688L405.298 294.819C407.194 292.037 405.551 289.383 401.631 289.13L350.419 285.211C346.499 284.958 341.694 286.98 339.671 289.762L309.576 333.631C307.679 336.412 309.323 339.067 313.243 339.32L364.455 343.239C368.501 343.492 373.306 341.469 375.203 338.688Z" fill="url(#paint1_linear)"/>
    <path d="M407.138 269.269L436.36 265.661C438.222 265.428 438.688 263.798 437.407 262.052L420.294 239.355C419.013 237.609 416.335 236.329 414.473 236.562L385.251 240.17C383.389 240.403 382.923 242.032 384.204 243.778L401.317 266.475C402.598 268.338 405.159 269.502 407.138 269.269Z" fill="url(#paint2_linear)"/>
    <g filter="url(#filter1_b)">
        <path d="M396.661 204.265L455.839 229.424L440.412 265.707C440.159 266.339 439.527 266.845 438.642 266.971L406.903 270.891C404.88 271.143 401.972 269.753 400.581 267.856L381.993 243.204C381.234 242.192 380.981 241.308 381.234 240.549L396.661 204.265Z" fill="url(#paint3_linear)" fill-opacity="0.6"/>
    </g>
    <path d="M422.33 234.481L454.068 230.562C456.092 230.309 456.597 228.539 455.206 226.642L436.618 201.99C435.228 200.093 432.319 198.703 430.296 198.956L398.557 202.875C396.534 203.128 396.028 204.898 397.419 206.794L416.007 231.447C417.398 233.469 420.18 234.734 422.33 234.481Z" fill="url(#paint4_linear)"/>
    <path d="M358.853 141.307L388.821 117.539L403.363 135.87C403.616 136.123 403.742 136.629 403.489 137.135L396.534 154.834C396.029 155.972 394.638 157.11 393.12 157.236L375.038 159.891C374.279 160.017 373.774 159.891 373.394 159.512L358.853 141.307Z" fill="url(#paint5_linear)"/>
    <path d="M381.866 136.502L388.821 118.803C389.327 117.665 388.442 116.907 387.051 117.16L368.969 119.815C367.578 120.067 366.06 121.079 365.555 122.217L358.6 139.916C358.094 141.054 358.979 141.812 360.37 141.559L378.452 138.905C379.97 138.778 381.487 137.64 381.866 136.502Z" fill="url(#paint6_linear)"/>
    <g filter="url(#filter2_b)">
        <path d="M45.5134 317.667L75.3552 293.9L89.8968 312.231C90.1497 312.484 90.2762 312.99 90.0233 313.495L83.0686 331.195C82.5628 332.333 81.1719 333.47 79.6545 333.597L61.5724 336.252C60.8137 336.378 60.3079 336.252 59.9285 335.872L45.5134 317.667Z" fill="url(#paint7_linear)" fill-opacity="0.7"/>
    </g>
    <path d="M68.5275 312.863L75.4822 295.164C75.988 294.026 75.1029 293.268 73.7119 293.521L55.6297 296.175C54.2388 296.428 52.7214 297.44 52.2157 298.577L45.261 316.277C44.7552 317.415 45.6403 318.173 47.0313 317.92L65.1134 315.265C66.6308 315.139 68.0217 314.001 68.5275 312.863Z" fill="url(#paint8_linear)"/>
    <path d="M354.301 23.3535C354.301 25.5027 355.818 26.2612 357.588 25.2498C359.359 24.2384 360.876 21.5835 360.876 19.5608C360.876 17.538 359.359 16.653 357.588 17.6644C355.818 18.6758 354.301 21.2043 354.301 23.3535Z" fill="white"/>
    <path d="M344.761 31.5935C343.491 30.8603 343.509 28.4524 344.801 26.2152C346.093 23.9779 348.17 22.7586 349.44 23.4917C350.71 24.2249 350.692 26.6328 349.4 28.87C348.108 31.1073 346.031 32.3266 344.761 31.5935Z" fill="white"/>
    <path d="M333.185 35.6165C333.185 37.7657 334.703 38.5243 336.473 37.5129C338.243 36.5015 339.761 33.8466 339.761 31.8238C339.761 29.6746 338.243 28.9161 336.473 29.9275C334.703 30.9389 333.185 33.4673 333.185 35.6165Z" fill="white"/>
    <g filter="url(#filter3_b)">
        <path d="M111.014 381.385L367.831 233.09C371.245 231.067 374.153 225.757 374.153 221.08V31.4445L104.691 186.945V376.707C104.691 381.258 107.6 383.408 111.014 381.385Z" fill="url(#paint9_radial)" fill-opacity="0.4"/>
    </g>
    <path d="M367.831 1.10291L111.014 149.398C107.6 151.42 104.691 156.73 104.691 161.408V186.945L374.153 31.4445V5.78058C374.153 1.22933 371.371 -0.919866 367.831 1.10291Z" fill="#24272E"/>
    <path opacity="0.3" fill-rule="evenodd" clip-rule="evenodd" d="M356.577 24.6177C356.577 26.7668 358.094 27.5254 359.865 26.514C361.635 25.5026 363.152 22.8477 363.152 20.8249C363.152 18.8022 361.635 17.9172 359.865 18.9286C357.968 19.94 356.577 22.4685 356.577 24.6177ZM345.955 30.686C345.955 32.8352 347.472 33.5937 349.243 32.5823C351.013 31.571 352.53 28.9161 352.53 26.8933C352.53 24.7441 351.013 23.9855 349.243 24.9969C347.472 26.0083 345.955 28.6632 345.955 30.686ZM338.621 38.7771C336.851 39.7885 335.333 39.03 335.333 36.8808C335.333 34.7316 336.851 32.2031 338.621 31.1917C340.391 30.1803 341.908 30.9388 341.908 33.088C341.908 35.1108 340.391 37.7657 338.621 38.7771Z" fill="#14142B"/>
    <path d="M356.576 97.1848L341.782 105.782V103.253L356.576 94.6563V97.1848Z" fill="white"/>
    <path d="M339.506 107.172L331.413 111.723V109.195L339.506 104.517V107.172Z" fill="white"/>
    <path d="M318.896 119.056L313.079 122.343V119.815L318.896 116.401V119.056Z" fill="white"/>
    <path d="M323.068 116.528L321.172 117.665V115.137L323.068 113.999V116.528Z" fill="white"/>
    <path d="M329.011 113.114L325.344 115.263V112.735L329.011 110.586V113.114Z" fill="white"/>
    <path d="M342.92 116.907L337.103 120.194V117.665L342.92 114.252V116.907Z" fill="white"/>
    <path d="M356.576 108.942L345.196 115.516V112.988L356.576 106.414V108.942Z" fill="#FF00E5"/>
    <path d="M335.333 150.535L323.826 157.109V154.581L335.333 148.007V150.535Z" fill="white"/>
    <path d="M341.15 147.122L337.61 149.271V146.616L341.15 144.594V147.122Z" fill="white"/>
    <path d="M335.333 138.778L323.953 145.352V142.824L335.333 136.25V138.778Z" fill="white"/>
    <path d="M341.276 135.365L337.609 137.514V134.985L341.276 132.836V135.365Z" fill="white"/>
    <path d="M335.207 201.231L356.703 188.715V191.37L335.207 203.76V201.231Z" fill="#FF00E5"/>
    <path d="M327.62 205.53L332.931 202.495V205.024L327.62 208.185V205.53Z" fill="white"/>
    <path d="M292.847 208.058L314.343 195.669V198.197L292.847 210.587V208.058Z" fill="white"/>
    <path d="M285.259 212.483L290.57 209.322V211.977L285.259 215.011V212.483Z" fill="white"/>
    <path d="M350.886 186.313L356.703 182.9V185.428L350.886 188.842V186.313Z" fill="white"/>
    <path d="M317.378 193.899L323.194 190.485V193.14L317.378 196.427V193.899Z" fill="white"/>
    <path d="M337.231 194.152L348.611 187.578V190.106L337.231 196.806V194.152Z" fill="white"/>
    <path d="M331.287 197.565L334.954 195.542V198.071L331.287 200.093V197.565Z" fill="white"/>
    <path d="M317.503 205.53L328.884 198.956V201.484L317.503 208.058V205.53Z" fill="#FF00E5"/>
    <path d="M311.688 208.943L315.229 206.794V209.449L311.688 211.472V208.943Z" fill="white"/>
    <path d="M317.378 199.714L323.194 196.427V198.956L317.378 202.369V199.714Z" fill="white"/>
    <path d="M303.721 207.679L315.102 201.105V203.633L303.721 210.207V207.679Z" fill="white"/>
    <path d="M297.905 211.092L301.445 208.943V211.472L297.905 213.621V211.092Z" fill="white"/>
    <path d="M344.817 183.911L356.703 177.084V179.613L344.817 186.566V183.911Z" fill="white"/>
    <path d="M333.943 190.232L342.541 185.302V187.83L333.943 192.761V190.232Z" fill="white"/>
    <path d="M325.849 194.91L331.666 191.497V194.152L325.849 197.439V194.91Z" fill="white"/>
    <path d="M270.338 221.08L282.225 214.126V216.655L270.338 223.608V221.08Z" fill="white"/>
    <path d="M259.464 227.275L268.062 222.344V224.872L259.464 229.929V227.275Z" fill="white"/>
    <path d="M251.372 231.952L257.188 228.665V231.194L251.372 234.607V231.952Z" fill="white"/>
    <path d="M286.524 143.582L274.512 150.535V147.881L286.524 141.054V143.582Z" fill="white"/>
    <path d="M297.399 137.261L288.674 142.318V139.663L297.399 134.732V137.261Z" fill="white"/>
    <path d="M305.365 132.583L299.549 135.997V133.468L305.365 130.055V132.583Z" fill="white"/>
    <path d="M291.455 134.859L279.442 141.686V139.157L291.455 132.331V134.859Z" fill="white"/>
    <path d="M302.33 128.538L293.732 133.595V130.94L302.33 126.009V128.538Z" fill="white"/>
    <path d="M310.423 123.86L304.606 127.274V124.745L310.423 121.332V123.86Z" fill="white"/>
    <path d="M333.562 145.731L329.516 148.007V145.479L333.562 143.076V145.731Z" fill="#FF00E5"/>
    <path d="M341.15 141.307L335.84 144.341V141.812L341.15 138.778V141.307Z" fill="white"/>
    <path d="M344.69 178.096L356.576 171.269V173.797L344.69 180.624V178.096Z" fill="white"/>
    <path d="M333.816 184.417L342.414 179.36V182.015L333.816 186.945V184.417Z" fill="white"/>
    <path d="M325.723 189.095L331.54 185.681V188.21L325.723 191.623V189.095Z" fill="white"/>
    <path d="M352.53 167.729L356.576 165.327V167.982L352.53 170.258V167.729Z" fill="white"/>
    <path d="M344.943 172.027L350.254 168.993V171.522L344.943 174.682V172.027Z" fill="white"/>
    <path d="M334.195 178.349L342.794 173.418V175.947L334.195 180.877V178.349Z" fill="white"/>
    <path d="M331.034 129.549L327.114 131.825V129.296L331.034 127.021V129.549Z" fill="white"/>
    <path d="M338.621 125.124L333.31 128.285V125.63L338.621 122.596V125.124Z" fill="white"/>
    <path d="M349.496 118.93L340.898 123.86V121.332L349.496 116.275V118.93Z" fill="white"/>
    <path d="M324.08 139.031L315.482 143.961V141.433L324.08 136.502V139.031Z" fill="white"/>
    <path d="M337.989 131.446L326.482 138.02V135.491L337.989 128.791V131.446Z" fill="white"/>
    <path d="M343.806 128.032L340.265 130.055V127.526L343.806 125.504V128.032Z" fill="white"/>
    <path d="M349.496 124.745L345.829 126.894V124.239L349.496 122.217V124.745Z" fill="white"/>
    <path d="M343.679 157.868L332.298 164.442V161.914L343.679 155.34V157.868Z" fill="white"/>
    <path d="M349.622 154.455L345.955 156.604V153.949L349.622 151.926V154.455Z" fill="white"/>
    <path d="M341.908 164.821L337.862 167.097V164.568L341.908 162.166V164.821Z" fill="white"/>
    <path d="M329.644 160.017L325.724 162.419V159.891L329.644 157.489V160.017Z" fill="white"/>
    <path d="M323.953 163.431L314.343 168.993V166.338L323.953 160.776V163.431Z" fill="white"/>
    <path d="M312.573 170.005L306.883 173.292V170.637L312.573 167.35V170.005Z" fill="white"/>
    <path d="M349.496 160.397L344.185 163.431V160.902L349.496 157.868V160.397Z" fill="#FF00E5"/>
    <path d="M348.99 166.465L344.944 168.74V166.212L348.99 163.81V166.465Z" fill="white"/>
    <path d="M356.576 162.04L351.265 165.074V162.546L356.576 159.512V162.04Z" fill="white"/>
    <path d="M335.587 156.73L331.92 158.753V156.225L335.587 154.075V156.73Z" fill="white"/>
    <path d="M341.15 153.443L337.61 155.466V152.938L341.15 150.915V153.443Z" fill="white"/>
    <path d="M320.413 123.987L308.021 131.066V128.538L320.413 121.458V123.987Z" fill="white"/>
    <path d="M334.195 116.022L322.688 122.722V120.067L334.195 113.493V116.022Z" fill="white"/>
    <path d="M340.139 112.608L336.472 114.631V112.103L340.139 110.08V112.608Z" fill="white"/>
    <path d="M345.702 109.321L342.162 111.471V108.816L345.702 106.793V109.321Z" fill="white"/>
    <path d="M348.736 107.551L356.576 103V100.472L348.736 105.023V107.551Z" fill="white"/>
    <path d="M136.934 306.163V345.86L185.617 318.047L136.934 306.163Z" fill="url(#paint10_linear)"/>
    <path d="M189.158 164.948V268.362L136.935 298.577V195.163L189.158 164.948Z" fill="url(#paint11_linear)"/>
    <path d="M189.159 164.948V268.362L136.935 298.577V306.163L195.86 272.155V161.155L189.159 164.948Z" fill="#7BDAFF"/>
    <path d="M189.159 164.948V268.362L136.935 298.577V306.163L195.86 272.155V161.155L189.159 164.948Z" fill="url(#paint12_linear)"/>
    <path opacity="0.5" d="M136.935 273.04L177.651 249.272L136.935 225.631V273.04Z" fill="#0063AD"/>
    <mask id="mask0" style="mask-type:alpha" maskUnits="userSpaceOnUse" x="136" y="211" width="155" height="153">
        <path d="M136.784 312.621V211.084L266.525 291.937L290.969 320.142L218.577 363.389L136.784 312.621Z" fill="#C4C4C4"/>
    </mask>
    <g mask="url(#mask0)">
        <path d="M218.748 351.296L135.544 303.761L122.773 262.926L206.103 299.968C206.103 299.968 240.244 325.506 240.623 326.011C241.003 326.517 222.288 350.032 222.288 350.032L218.748 351.296Z" fill="url(#paint13_linear)"/>
        <path d="M131.877 301.359L179.928 273.672L179.169 273.166L131.119 300.853L131.877 301.359Z" fill="#0063AD"/>
        <path d="M203.826 287.578L203.194 287.073L155.143 314.759L155.902 315.265L203.826 287.578Z" fill="#0063AD"/>
        <path d="M179.295 328.666L180.054 329.045L227.852 301.485L227.093 300.979L179.295 328.666Z" fill="#0063AD"/>
        <path d="M203.068 342.699L203.7 343.205L251.877 315.392L251.118 314.886L203.068 342.699Z" fill="#0063AD"/>
        <path d="M268.569 324.873L221.783 351.802L223.806 344.09L222.921 338.654L221.91 333.344L215.208 326.896L202.942 319.184L120.624 271.776L130.993 255.846L131.372 251.421C126.062 248.387 132.005 243.962 132.005 236.883C132.005 232.964 133.396 229.929 135.672 228.539C137.695 227.401 128.717 220.827 131.246 222.218L262.5 298.325C267.81 301.359 271.983 309.323 271.983 316.403C272.236 320.449 270.845 323.483 268.569 324.873Z" fill="url(#paint14_linear)"/>
        <path d="M139.591 282.774L187.642 254.961L186.883 254.582L138.832 282.269L139.591 282.774Z" fill="#3A9BD5"/>
        <path d="M211.54 268.994L210.908 268.489L162.857 296.175L163.616 296.555L211.54 268.994Z" fill="#3A9BD5"/>
        <path d="M163.616 241.055L162.858 240.675L114.934 268.362L115.692 268.741L163.616 241.055Z" fill="#3A9BD5"/>
        <path d="M187.009 310.082L187.768 310.461L235.565 282.901L234.807 282.395L187.009 310.082Z" fill="#3A9BD5"/>
        <path d="M210.782 324.115L211.414 324.621L259.591 296.807L258.832 296.302L210.782 324.115Z" fill="#3A9BD5"/>
        <path d="M223.119 342.502C223.119 348.064 219.199 350.34 214.394 347.558C209.589 344.777 205.669 337.95 205.669 332.388C205.669 326.825 209.589 324.549 214.394 327.331C219.199 330.112 223.119 336.939 223.119 342.502Z" fill="url(#paint15_linear)"/>
        <path d="M219.704 340.605C219.704 344.019 217.302 345.409 214.267 343.766C211.232 341.996 208.83 337.824 208.83 334.41C208.83 330.997 211.232 329.606 214.267 331.25C217.302 333.02 219.704 337.192 219.704 340.605Z" fill="#2573BA"/>
        <path d="M221.783 351.802C224.186 350.411 225.45 347.377 225.45 343.458C225.45 336.378 221.277 328.413 215.967 325.379L96.2198 255.973C93.6908 254.456 91.1618 254.329 89.1386 255.467C86.7361 256.858 85.4716 259.892 85.4716 263.811C85.4716 270.891 89.6444 278.855 94.9553 281.889L214.702 351.296C216.093 352.181 217.61 352.56 218.875 352.56C219.886 352.56 220.898 352.307 221.783 351.802ZM215.967 349.147L96.2198 279.74C91.6676 277.085 88.0006 270.006 88.0006 263.937C88.0006 261.03 88.8857 258.754 90.4031 257.869C91.9205 256.984 93.6908 257.616 94.9553 258.375L214.702 327.781C219.254 330.436 222.921 337.516 222.921 343.584C222.921 346.492 222.036 348.767 220.519 349.652C219.001 350.537 217.231 349.905 215.967 349.147Z" fill="url(#paint16_linear)"/>
    </g>
    <path d="M26.1341 246.333L59.8516 244.25C62.0666 244.127 62.6819 242.288 61.3283 240.204L43.362 213.236C42.0084 211.152 39.0551 209.558 36.84 209.681L3.12257 211.765C0.907555 211.887 0.292255 213.726 1.64588 215.81L19.6121 242.779C21.0888 244.862 23.9191 246.456 26.1341 246.333Z" fill="url(#paint17_linear)"/>
    <g filter="url(#filter4_b)">
        <path d="M19.2117 174.05L81.5508 205.151L62.5835 243.33C62.3306 243.963 61.5719 244.468 60.5603 244.595L25.9134 246.744C23.6374 246.87 20.7291 245.227 19.2117 243.078L0.750191 215.264C-0.00849915 214.127 -0.134949 213.115 0.11795 212.357L19.2117 174.05Z" fill="url(#paint18_linear)" fill-opacity="0.6"/>
    </g>
    <path d="M44.8806 208.438L79.5275 206.288C81.8036 206.162 82.4359 204.266 81.0449 202.116L62.5834 174.303C61.1925 172.154 58.1577 170.51 55.8817 170.637L21.2348 172.786C18.9587 172.913 18.3264 174.809 19.7174 176.958L38.1789 204.771C39.6963 206.92 42.6045 208.564 44.8806 208.438Z" fill="url(#paint19_linear)"/>
    <path opacity="0.5" d="M205.598 310.841L238.095 292.13C239.866 291.119 239.613 289.349 237.59 288.211L206.104 270.006C204.081 268.868 201.046 268.742 199.402 269.753L166.905 288.464C165.135 289.475 165.388 291.245 167.411 292.383L198.896 310.588C200.92 311.726 203.954 311.852 205.598 310.841Z" fill="#1A4272"/>
    <g filter="url(#filter5_b)">
        <path d="M170.445 230.688L248.59 239.791L243.026 287.705C243.026 288.59 242.394 289.349 241.256 289.854L205.344 305.404C203.068 306.416 199.275 305.784 196.872 304.014L166.651 281.51C165.387 280.625 164.881 279.614 164.881 278.603L170.445 230.688Z" fill="#FD05B8" fill-opacity="0.7"/>
    </g>
    <path d="M210.908 257.363L246.819 241.813C249.095 240.802 249.095 238.526 246.819 236.883L216.598 214.379C214.196 212.61 210.402 211.977 208.126 212.989L172.215 228.539C169.939 229.55 169.939 231.826 172.215 233.469L202.436 255.973C204.712 257.869 208.505 258.375 210.908 257.363Z" fill="url(#paint20_linear)"/>
    <path d="M210.275 247.629L230.381 238.906C231.645 238.4 231.645 237.136 230.381 236.124L213.437 223.482C212.172 222.471 210.023 222.218 208.758 222.723L188.653 231.447C187.388 231.952 187.388 233.217 188.653 234.228L205.597 246.87C206.861 247.882 208.884 248.261 210.275 247.629Z" fill="url(#paint21_linear)"/>
    <g filter="url(#filter6_b)">
        <path d="M177.906 213.747L248.97 179.992L253.142 188.589C253.522 189.348 253.522 190.233 252.763 191.244L230.508 223.482C229.117 225.505 225.577 227.022 222.668 226.895L185.113 223.861C183.596 223.735 182.584 223.229 182.078 222.344L177.906 213.747Z" fill="#B500A3" fill-opacity="0.6"/>
    </g>
    <path d="M226.335 214.885L248.59 182.774C249.981 180.751 248.843 178.854 245.935 178.602L208.379 175.567C205.471 175.315 201.931 176.832 200.54 178.981L178.285 211.219C176.894 213.242 178.032 215.138 180.94 215.391L218.495 218.425C221.404 218.551 224.944 217.034 226.335 214.885Z" fill="url(#paint22_linear)"/>
    <path opacity="0.7" d="M217.231 209.828L230.255 190.991C231.14 189.727 230.382 188.715 228.738 188.589L206.736 186.819C205.092 186.693 202.942 187.578 202.183 188.842L189.159 207.679C188.274 208.943 189.033 209.955 190.677 210.081L212.679 211.851C214.323 211.851 216.472 210.966 217.231 209.828Z" fill="#DA0076"/>
    <g filter="url(#filter7_b)">
        <path d="M189.412 199.967L230.887 180.119L233.29 185.176C233.543 185.555 233.543 186.187 233.037 186.693L220.013 205.53C219.128 206.794 217.105 207.679 215.461 207.553L193.459 205.783C192.574 205.656 191.941 205.403 191.688 204.898L189.412 199.967Z" fill="#C10097"/>
    </g>
    <path d="M217.737 200.599L230.761 181.762C231.646 180.498 230.887 179.487 229.244 179.36L207.241 177.59C205.598 177.464 203.448 178.349 202.689 179.613L189.665 198.45C188.78 199.714 189.539 200.726 191.183 200.852L213.185 202.622C214.828 202.748 216.852 201.863 217.737 200.599Z" fill="url(#paint23_linear)"/>
    <defs>
        <filter id="filter0_b" x="295.196" y="277.026" width="153.263" height="139.296" filterUnits="userSpaceOnUse" color-interpolation-filters="sRGB">
            <feFlood flood-opacity="0" result="BackgroundImageFix"/>
            <feGaussianBlur in="BackgroundImage" stdDeviation="7"/>
            <feComposite in2="SourceAlpha" operator="in" result="effect1_backgroundBlur"/>
            <feBlend mode="normal" in="SourceGraphic" in2="effect1_backgroundBlur" result="shape"/>
        </filter>
        <filter id="filter1_b" x="367.14" y="190.265" width="102.699" height="94.6549" filterUnits="userSpaceOnUse" color-interpolation-filters="sRGB">
            <feFlood flood-opacity="0" result="BackgroundImageFix"/>
            <feGaussianBlur in="BackgroundImage" stdDeviation="7"/>
            <feComposite in2="SourceAlpha" operator="in" result="effect1_backgroundBlur"/>
            <feBlend mode="normal" in="SourceGraphic" in2="effect1_backgroundBlur" result="shape"/>
        </filter>
        <filter id="filter2_b" x="31.5137" y="279.9" width="72.6478" height="70.3993" filterUnits="userSpaceOnUse" color-interpolation-filters="sRGB">
            <feFlood flood-opacity="0" result="BackgroundImageFix"/>
            <feGaussianBlur in="BackgroundImage" stdDeviation="7"/>
            <feComposite in2="SourceAlpha" operator="in" result="effect1_backgroundBlur"/>
            <feBlend mode="normal" in="SourceGraphic" in2="effect1_backgroundBlur" result="shape"/>
        </filter>
        <filter id="filter3_b" x="90.6914" y="17.4445" width="297.462" height="378.703" filterUnits="userSpaceOnUse" color-interpolation-filters="sRGB">
            <feFlood flood-opacity="0" result="BackgroundImageFix"/>
            <feGaussianBlur in="BackgroundImage" stdDeviation="7"/>
            <feComposite in2="SourceAlpha" operator="in" result="effect1_backgroundBlur"/>
            <feBlend mode="normal" in="SourceGraphic" in2="effect1_backgroundBlur" result="shape"/>
        </filter>
        <filter id="filter4_b" x="-14" y="160.05" width="109.551" height="100.7" filterUnits="userSpaceOnUse" color-interpolation-filters="sRGB">
            <feFlood flood-opacity="0" result="BackgroundImageFix"/>
            <feGaussianBlur in="BackgroundImage" stdDeviation="7"/>
            <feComposite in2="SourceAlpha" operator="in" result="effect1_backgroundBlur"/>
            <feBlend mode="normal" in="SourceGraphic" in2="effect1_backgroundBlur" result="shape"/>
        </filter>
        <filter id="filter5_b" x="150.881" y="216.688" width="111.709" height="103.199" filterUnits="userSpaceOnUse" color-interpolation-filters="sRGB">
            <feFlood flood-opacity="0" result="BackgroundImageFix"/>
            <feGaussianBlur in="BackgroundImage" stdDeviation="7"/>
            <feComposite in2="SourceAlpha" operator="in" result="effect1_backgroundBlur"/>
            <feBlend mode="normal" in="SourceGraphic" in2="effect1_backgroundBlur" result="shape"/>
        </filter>
        <filter id="filter6_b" x="163.905" y="165.992" width="103.486" height="74.9105" filterUnits="userSpaceOnUse" color-interpolation-filters="sRGB">
            <feFlood flood-opacity="0" result="BackgroundImageFix"/>
            <feGaussianBlur in="BackgroundImage" stdDeviation="7"/>
            <feComposite in2="SourceAlpha" operator="in" result="effect1_backgroundBlur"/>
            <feBlend mode="normal" in="SourceGraphic" in2="effect1_backgroundBlur" result="shape"/>
        </filter>
        <filter id="filter7_b" x="175.412" y="166.119" width="72.0437" height="55.4459" filterUnits="userSpaceOnUse" color-interpolation-filters="sRGB">
            <feFlood flood-opacity="0" result="BackgroundImageFix"/>
            <feGaussianBlur in="BackgroundImage" stdDeviation="7"/>
            <feComposite in2="SourceAlpha" operator="in" result="effect1_backgroundBlur"/>
            <feBlend mode="normal" in="SourceGraphic" in2="effect1_backgroundBlur" result="shape"/>
        </filter>
        <linearGradient id="paint0_linear" x1="389.583" y1="352.289" x2="255.943" y2="416.203" gradientUnits="userSpaceOnUse">
            <stop stop-color="#3A9BD5"/>
            <stop offset="0.1172" stop-color="#3490CE"/>
            <stop offset="0.367" stop-color="#2C80C3"/>
            <stop offset="0.6442" stop-color="#2776BC"/>
            <stop offset="1" stop-color="#2573BA"/>
        </linearGradient>
        <linearGradient id="paint1_linear" x1="369.385" y1="229.528" x2="340.636" y2="434.302" gradientUnits="userSpaceOnUse">
            <stop stop-color="#59BDEF"/>
            <stop offset="1" stop-color="#7BDAFF"/>
        </linearGradient>
        <linearGradient id="paint2_linear" x1="452.676" y1="228.876" x2="351.477" y2="287.546" gradientUnits="userSpaceOnUse">
            <stop offset="0.4032" stop-color="#FC04B7"/>
            <stop offset="0.5099" stop-color="#FC04C5"/>
            <stop offset="0.6558" stop-color="#FD05C6"/>
            <stop offset="0.813" stop-color="#FD05C6"/>
            <stop offset="1" stop-color="#FD05C6"/>
        </linearGradient>
        <linearGradient id="paint3_linear" x1="442.991" y1="258.498" x2="385.851" y2="230.077" gradientUnits="userSpaceOnUse">
            <stop offset="0.4032" stop-color="#FD05E4"/>
            <stop offset="0.423" stop-color="#FA05E1"/>
            <stop offset="0.5505" stop-color="#EC03B9"/>
            <stop offset="0.6846" stop-color="#E201B0"/>
            <stop offset="0.8286" stop-color="#DC00AC"/>
            <stop offset="1" stop-color="#DA00B7"/>
        </linearGradient>
        <linearGradient id="paint4_linear" x1="471.791" y1="190.608" x2="361.874" y2="254.333" gradientUnits="userSpaceOnUse">
            <stop offset="0.4032" stop-color="#FC04B7"/>
            <stop offset="0.5099" stop-color="#FC04C5"/>
            <stop offset="0.6558" stop-color="#FD05C6"/>
            <stop offset="0.813" stop-color="#FD05C6"/>
            <stop offset="1" stop-color="#FD05C6"/>
        </linearGradient>
        <linearGradient id="paint5_linear" x1="399.473" y1="131.052" x2="369.527" y2="154.751" gradientUnits="userSpaceOnUse">
            <stop stop-color="#3A9BD5"/>
            <stop offset="0.1172" stop-color="#3490CE"/>
            <stop offset="0.367" stop-color="#2C80C3"/>
            <stop offset="0.6442" stop-color="#2776BC"/>
            <stop offset="1" stop-color="#2573BA"/>
        </linearGradient>
        <linearGradient id="paint6_linear" x1="371.261" y1="99.0302" x2="377.438" y2="172.536" gradientUnits="userSpaceOnUse">
            <stop stop-color="#59BDEF"/>
            <stop offset="1" stop-color="#7BDAFF"/>
        </linearGradient>
        <linearGradient id="paint7_linear" x1="86.0971" y1="307.434" x2="56.1516" y2="331.133" gradientUnits="userSpaceOnUse">
            <stop stop-color="#3A9BD5"/>
            <stop offset="0.1172" stop-color="#3490CE"/>
            <stop offset="0.367" stop-color="#2C80C3"/>
            <stop offset="0.6442" stop-color="#2776BC"/>
            <stop offset="1" stop-color="#2573BA"/>
        </linearGradient>
        <linearGradient id="paint8_linear" x1="57.8859" y1="275.412" x2="64.0628" y2="348.918" gradientUnits="userSpaceOnUse">
            <stop stop-color="#59BDEF"/>
            <stop offset="1" stop-color="#7BDAFF"/>
        </linearGradient>
        <radialGradient id="paint9_radial" cx="0" cy="0" r="1" gradientUnits="userSpaceOnUse" gradientTransform="translate(87.5949 208.315) rotate(150.004) scale(406.426 351.945)">
            <stop stop-color="#7BDAFF"/>
            <stop offset="1" stop-color="#59BDEF"/>
        </radialGradient>
        <linearGradient id="paint10_linear" x1="157.977" y1="332.009" x2="161.991" y2="307.491" gradientUnits="userSpaceOnUse">
            <stop stop-color="#2573BA"/>
            <stop offset="1" stop-color="#1A4272"/>
        </linearGradient>
        <linearGradient id="paint11_linear" x1="196.566" y1="242.711" x2="98.3102" y2="210.609" gradientUnits="userSpaceOnUse">
            <stop stop-color="#2573BA"/>
            <stop offset="1" stop-color="#1A4272"/>
        </linearGradient>
        <linearGradient id="paint12_linear" x1="206.468" y1="233.675" x2="167.399" y2="233.675" gradientUnits="userSpaceOnUse">
            <stop stop-color="#2573BA"/>
            <stop offset="0.00753981" stop-color="#2674BB"/>
            <stop offset="0.1331" stop-color="#2F86C7"/>
            <stop offset="0.2856" stop-color="#3592CF"/>
            <stop offset="0.4934" stop-color="#3999D4"/>
            <stop offset="1" stop-color="#3A9BD5"/>
        </linearGradient>
        <linearGradient id="paint13_linear" x1="122.761" y1="307.109" x2="240.617" y2="307.109" gradientUnits="userSpaceOnUse">
            <stop stop-color="#2573BA"/>
            <stop offset="1" stop-color="#0063AD"/>
        </linearGradient>
        <linearGradient id="paint14_linear" x1="138.195" y1="242.579" x2="257.583" y2="331.438" gradientUnits="userSpaceOnUse">
            <stop stop-color="#59BDEF"/>
            <stop offset="1" stop-color="#7BDAFF"/>
        </linearGradient>
        <linearGradient id="paint15_linear" x1="205.607" y1="332.424" x2="223.147" y2="332.424" gradientUnits="userSpaceOnUse">
            <stop stop-color="#59BDEF"/>
            <stop offset="1" stop-color="#7BDAFF"/>
        </linearGradient>
        <linearGradient id="paint16_linear" x1="85.4839" y1="263.336" x2="225.513" y2="263.336" gradientUnits="userSpaceOnUse">
            <stop stop-color="#3A9BD5"/>
            <stop offset="1" stop-color="#2573BA"/>
        </linearGradient>
        <linearGradient id="paint17_linear" x1="78.3081" y1="201.104" x2="-34.8989" y2="266.686" gradientUnits="userSpaceOnUse">
            <stop offset="0.4032" stop-color="#FC04B7"/>
            <stop offset="0.5099" stop-color="#FC04C5"/>
            <stop offset="0.6558" stop-color="#FD05C6"/>
            <stop offset="0.813" stop-color="#FD05C6"/>
            <stop offset="1" stop-color="#FD05C6"/>
        </linearGradient>
        <linearGradient id="paint18_linear" x1="67.5242" y1="233.202" x2="5.16711" y2="202.157" gradientUnits="userSpaceOnUse">
            <stop offset="0.4032" stop-color="#FD05E4"/>
            <stop offset="0.423" stop-color="#FA05E1"/>
            <stop offset="0.5505" stop-color="#EC03B9"/>
            <stop offset="0.6846" stop-color="#E201B0"/>
            <stop offset="0.8286" stop-color="#DC00AC"/>
            <stop offset="1" stop-color="#DA00B7"/>
        </linearGradient>
        <linearGradient id="paint19_linear" x1="98.4928" y1="161.791" x2="-18.0476" y2="229.059" gradientUnits="userSpaceOnUse">
            <stop offset="0.4032" stop-color="#FC04B7"/>
            <stop offset="0.5099" stop-color="#FC04C5"/>
            <stop offset="0.6558" stop-color="#FD05C6"/>
            <stop offset="0.813" stop-color="#FD05C6"/>
            <stop offset="1" stop-color="#FD05C6"/>
        </linearGradient>
        <linearGradient id="paint20_linear" x1="269.293" y1="201.901" x2="127.072" y2="286.913" gradientUnits="userSpaceOnUse">
            <stop offset="0.4032" stop-color="#FC04B7"/>
            <stop offset="0.5099" stop-color="#FC04C5"/>
            <stop offset="0.6558" stop-color="#FD05C6"/>
            <stop offset="0.813" stop-color="#FD05C6"/>
            <stop offset="1" stop-color="#FD05C6"/>
        </linearGradient>
        <linearGradient id="paint21_linear" x1="230.912" y1="237.871" x2="175.8" y2="231.765" gradientUnits="userSpaceOnUse">
            <stop stop-color="#DA00B7"/>
            <stop offset="0.2337" stop-color="#DB009E"/>
            <stop offset="0.3329" stop-color="#DF0194"/>
            <stop offset="0.4066" stop-color="#E70299"/>
            <stop offset="0.4674" stop-color="#F103A0"/>
            <stop offset="0.5164" stop-color="#FD05A9"/>
        </linearGradient>
        <linearGradient id="paint22_linear" x1="268.209" y1="165.514" x2="135.778" y2="242.232" gradientUnits="userSpaceOnUse">
            <stop offset="0.4032" stop-color="#FC04B7"/>
            <stop offset="0.5099" stop-color="#FC04C5"/>
            <stop offset="0.6558" stop-color="#FD05C6"/>
            <stop offset="0.813" stop-color="#FD05C6"/>
            <stop offset="1" stop-color="#FD05C6"/>
        </linearGradient>
        <linearGradient id="paint23_linear" x1="242.273" y1="171.721" x2="164.835" y2="216.672" gradientUnits="userSpaceOnUse">
            <stop offset="0.4032" stop-color="#FC04B7"/>
            <stop offset="0.5099" stop-color="#FC04C5"/>
            <stop offset="0.6558" stop-color="#FD05C6"/>
            <stop offset="0.813" stop-color="#FD05C6"/>
            <stop offset="1" stop-color="#FD05C6"/>
        </linearGradient>
    </defs>
</svg>
